<?xml version="1.0" encoding="UTF-8" standalone="no"?>
<!-- Created with Inkscape (http://www.inkscape.org/) -->

<svg
   width="50.200001mm"
   height="50.200005mm"
   viewBox="0 0 50.2 50.200006"
   version="1.1"
   id="svg5"
   inkscape:version="1.2.2 (b0a8486541, 2022-12-01)"
   sodipodi:docname="lineexample.svg"
   xmlns:inkscape="http://www.inkscape.org/namespaces/inkscape"
   xmlns:sodipodi="http://sodipodi.sourceforge.net/DTD/sodipodi-0.dtd"
   xmlns="http://www.w3.org/2000/svg"
   xmlns:svg="http://www.w3.org/2000/svg"
   xmlns:ns1="http://www.iki.fi/pav/software/textext/">
  <sodipodi:namedview
     id="namedview7"
     pagecolor="#ffffff"
     bordercolor="#000000"
     borderopacity="0.25"
     inkscape:showpageshadow="2"
     inkscape:pageopacity="0.0"
     inkscape:pagecheckerboard="0"
     inkscape:deskcolor="#d1d1d1"
     inkscape:document-units="mm"
     showgrid="false"
     inkscape:zoom="4.3748478"
     inkscape:cx="123.31858"
     inkscape:cy="76.231223"
     inkscape:window-width="1850"
     inkscape:window-height="1016"
     inkscape:window-x="0"
     inkscape:window-y="0"
     inkscape:window-maximized="1"
     inkscape:current-layer="layer1" />
  <defs
     id="defs2">
    <marker
       style="overflow:visible"
       id="Arrow3"
       refX="0"
       refY="0"
       orient="auto-start-reverse"
       inkscape:stockid="Arrow3"
       markerWidth="4.2071066"
       markerHeight="6.9999995"
       viewBox="0 0 4.2071068 7"
       inkscape:isstock="true"
       inkscape:collect="always"
       preserveAspectRatio="xMidYMid">
      <path
         style="fill:none;stroke:context-stroke;stroke-width:1;stroke-linecap:round"
         d="M 3,-3 0,0 3,3"
         id="arrow3"
         transform="rotate(180,0.125,0)"
         sodipodi:nodetypes="ccc" />
    </marker>
    <g
       id="id-45a2e069-0925-4c72-9a05-c3b8cddd304e-7">
      <g
         id="id-78698bbd-2455-46bc-8eb9-a30a1ce02550-5" />
      <g
         id="id-c813d254-2f5b-415a-8d86-9439a13e2064-3">
        <path
           d="m 4.25,-6.046875 c 0.078125,-0.28125 0.109375,-0.34375 0.234375,-0.375 0.09375,-0.015625 0.421875,-0.015625 0.625,-0.015625 1.015625,0 1.453125,0.03125 1.453125,0.8125 0,0.15625 -0.03125,0.546875 -0.078125,0.796875 0,0.046875 -0.03125,0.15625 -0.03125,0.1875 0,0.0625 0.03125,0.140625 0.125,0.140625 0.109375,0 0.125,-0.078125 0.15625,-0.234375 L 7,-6.46875 C 7.015625,-6.515625 7.015625,-6.609375 7.015625,-6.640625 7.015625,-6.75 6.921875,-6.75 6.75,-6.75 H 1.21875 c -0.234375,0 -0.25,0.015625 -0.328125,0.203125 l -0.59375,1.75 c 0,0.015625 -0.0625,0.15625 -0.0625,0.1875 0,0.046875 0.0625,0.109375 0.125,0.109375 0.09375,0 0.109375,-0.0625 0.171875,-0.21875 C 1.0625,-6.265625 1.328125,-6.4375 2.796875,-6.4375 H 3.1875 c 0.28125,0 0.28125,0.03125 0.28125,0.125 0,0.046875 -0.03125,0.171875 -0.046875,0.203125 L 2.09375,-0.78125 C 2,-0.421875 1.96875,-0.3125 0.90625,-0.3125 c -0.359375,0 -0.421875,0 -0.421875,0.1875 C 0.484375,0 0.59375,0 0.65625,0 c 0.265625,0 0.546875,-0.015625 0.8125,-0.015625 0.28125,0 0.578125,-0.015625 0.859375,-0.015625 0.28125,0 0.546875,0.015625 0.828125,0.015625 C 3.4375,-0.015625 3.734375,0 4.015625,0 c 0.09375,0 0.21875,0 0.21875,-0.203125 0,-0.109375 -0.078125,-0.109375 -0.34375,-0.109375 -0.234375,0 -0.375,0 -0.625,-0.015625 -0.296875,-0.03125 -0.375,-0.0625 -0.375,-0.21875 0,-0.015625 0,-0.0625 0.046875,-0.203125 z m 0,0"
           id="id-32536e52-6621-49ae-b17c-433e8fb693dd-5" />
      </g>
    </g>
    <g
       id="id-59531d2e-5dbf-474c-9ea5-752b104144e2-7">
      <g
         id="id-746e1365-d6fa-4415-98ad-e2879cfe6f50-0" />
      <g
         id="id-9472d221-a66e-406a-970b-e47f0b04f316-9">
        <path
           d="m 6.4375,-6.921875 c 0,-0.03125 -0.03125,-0.109375 -0.125,-0.109375 -0.046875,0 -0.046875,0.015625 -0.171875,0.15625 L 5.65625,-6.3125 c -0.25,-0.46875 -0.765625,-0.71875 -1.421875,-0.71875 -1.265625,0 -2.453125,1.15625 -2.453125,2.359375 0,0.796875 0.515625,1.265625 1.03125,1.40625 l 1.0625,0.28125 c 0.375,0.09375 0.921875,0.25 0.921875,1.0625 0,0.890625 -0.8125,1.828125 -1.796875,1.828125 -0.640625,0 -1.75,-0.21875 -1.75,-1.453125 0,-0.234375 0.0625,-0.484375 0.0625,-0.53125 0.015625,-0.046875 0.015625,-0.0625 0.015625,-0.078125 0,-0.09375 -0.0625,-0.109375 -0.109375,-0.109375 -0.046875,0 -0.078125,0.015625 -0.109375,0.046875 -0.03125,0.03125 -0.59375,2.3125 -0.59375,2.34375 0,0.046875 0.046875,0.09375 0.109375,0.09375 0.046875,0 0.0625,-0.015625 0.1875,-0.15625 L 1.296875,-0.5 c 0.421875,0.578125 1.109375,0.71875 1.6875,0.71875 1.359375,0 2.53125,-1.328125 2.53125,-2.5625 0,-0.6875 -0.34375,-1.03125 -0.484375,-1.171875 C 4.796875,-3.734375 4.640625,-3.78125 3.765625,-4 3.53125,-4.0625 3.1875,-4.171875 3.09375,-4.1875 2.828125,-4.28125 2.484375,-4.5625 2.484375,-5.09375 c 0,-0.8125 0.796875,-1.65625 1.75,-1.65625 0.8125,0 1.421875,0.4375 1.421875,1.546875 0,0.3125 -0.03125,0.5 -0.03125,0.5625 0,0 0,0.09375 0.109375,0.09375 0.109375,0 0.125,-0.03125 0.15625,-0.203125 z m 0,0"
           id="id-2a458f34-13ab-4b6d-bfa7-f16f1619e949-3" />
      </g>
      <g
         id="id-5ec49300-1959-42dd-b9b5-b791efc9eddc-6" />
      <g
         id="id-1e71104c-27f1-421d-8cf3-2e42eff9f075-0">
        <path
           d="m 2.015625,-3.296875 c 0.0625,-0.109375 0.0625,-0.171875 0.0625,-0.21875 0,-0.21875 -0.1875,-0.375 -0.40625,-0.375 -0.265625,0 -0.34375,0.21875 -0.375,0.328125 L 0.375,-0.546875 c -0.015625,0.015625 -0.046875,0.09375 -0.046875,0.109375 0,0.078125 0.21875,0.15625 0.28125,0.15625 0.046875,0 0.046875,-0.015625 0.09375,-0.125 z m 0,0"
           id="id-9eb8b1ad-4469-4909-b1e2-b06d16bd5b3e-6" />
      </g>
    </g>
    <g
       id="id-f8790d98-62d2-4f1e-a32e-8c3037c93750-2">
      <g
         id="id-0ab761af-ac18-40ee-9b9c-e85b6067ff7c-3" />
      <g
         id="id-8bf23c7e-394d-4f86-9b31-9a87a174ec8f-7">
        <path
           d="m 2.9375,-6.375 c 0,-0.25 0,-0.265625 -0.234375,-0.265625 C 2.078125,-6 1.203125,-6 0.890625,-6 v 0.3125 c 0.203125,0 0.78125,0 1.296875,-0.265625 v 5.171875 c 0,0.359375 -0.03125,0.46875 -0.921875,0.46875 h -0.3125 V 0 c 0.34375,-0.03125 1.203125,-0.03125 1.609375,-0.03125 0.390625,0 1.265625,0 1.609375,0.03125 v -0.3125 h -0.3125 c -0.90625,0 -0.921875,-0.109375 -0.921875,-0.46875 z m 0,0"
           id="id-5d9b2009-635c-4fa0-9d26-a96034ed3bf3-5" />
      </g>
      <g
         id="id-c48bb27a-1da1-43e1-8b09-5c487e2da182-9">
        <path
           d="m 1.90625,-0.53125 c 0,-0.28125 -0.234375,-0.53125 -0.515625,-0.53125 -0.296875,0 -0.53125,0.25 -0.53125,0.53125 C 0.859375,-0.234375 1.09375,0 1.390625,0 1.671875,0 1.90625,-0.234375 1.90625,-0.53125 Z m 0,0"
           id="id-d5cf0520-1dba-4699-955c-31401c991980-2" />
      </g>
      <g
         id="id-3ddd3d3f-6039-4f12-8ab2-e4e8d9066bad-2">
        <path
           d="m 6.640625,-6.75 h -6.09375 l -0.1875,2.25 h 0.25 C 0.75,-6.109375 0.890625,-6.4375 2.40625,-6.4375 c 0.171875,0 0.4375,0 0.53125,0.015625 0.21875,0.046875 0.21875,0.15625 0.21875,0.375 v 5.265625 c 0,0.328125 0,0.46875 -1.046875,0.46875 H 1.703125 V 0 C 2.109375,-0.03125 3.125,-0.03125 3.59375,-0.03125 c 0.453125,0 1.484375,0 1.890625,0.03125 v -0.3125 h -0.40625 c -1.046875,0 -1.046875,-0.140625 -1.046875,-0.46875 v -5.265625 c 0,-0.1875 0,-0.328125 0.1875,-0.375 0.109375,-0.015625 0.375,-0.015625 0.5625,-0.015625 1.515625,0 1.65625,0.328125 1.796875,1.9375 h 0.25 z m 0,0"
           id="id-bc9f283c-de72-46a2-b9d0-b3f4ce4d774b-8" />
      </g>
      <g
         id="id-1a6150fc-bf39-42e5-a397-1a41397576f6-9">
        <path
           d="M 1.671875,-3.3125 V -4.40625 L 0.28125,-4.296875 v 0.3125 c 0.703125,0 0.78125,0.0625 0.78125,0.5625 V -0.75 c 0,0.4375 -0.109375,0.4375 -0.78125,0.4375 V 0 c 0.390625,-0.015625 0.859375,-0.03125 1.140625,-0.03125 0.390625,0 0.859375,0 1.265625,0.03125 V -0.3125 H 2.46875 c -0.734375,0 -0.75,-0.109375 -0.75,-0.46875 V -2.3125 c 0,-0.984375 0.421875,-1.875 1.171875,-1.875 0.0625,0 0.09375,0 0.109375,0.015625 -0.03125,0 -0.234375,0.125 -0.234375,0.390625 0,0.265625 0.21875,0.421875 0.4375,0.421875 0.171875,0 0.421875,-0.125 0.421875,-0.4375 0,-0.3125 -0.3125,-0.609375 -0.734375,-0.609375 -0.734375,0 -1.09375,0.671875 -1.21875,1.09375 z m 0,0"
           id="id-e0389a92-64d6-42e2-a356-9423fc7f31e5-7" />
      </g>
      <g
         id="id-c26db852-f4fc-4111-b55b-e03ba3c51215-3">
        <path
           d="m 3.3125,-0.75 c 0.046875,0.390625 0.3125,0.8125 0.78125,0.8125 0.21875,0 0.828125,-0.140625 0.828125,-0.953125 v -0.5625 h -0.25 v 0.5625 c 0,0.578125 -0.25,0.640625 -0.359375,0.640625 -0.328125,0 -0.375,-0.453125 -0.375,-0.5 v -1.984375 c 0,-0.421875 0,-0.8125 -0.359375,-1.1875 C 3.1875,-4.3125 2.6875,-4.46875 2.21875,-4.46875 c -0.828125,0 -1.515625,0.46875 -1.515625,1.125 0,0.296875 0.203125,0.46875 0.46875,0.46875 0.28125,0 0.453125,-0.203125 0.453125,-0.453125 0,-0.125 -0.046875,-0.453125 -0.515625,-0.453125 C 1.390625,-4.140625 1.875,-4.25 2.1875,-4.25 c 0.5,0 1.0625,0.390625 1.0625,1.28125 v 0.359375 c -0.515625,0.03125 -1.203125,0.0625 -1.828125,0.359375 -0.75,0.34375 -1,0.859375 -1,1.296875 0,0.8125 0.96875,1.0625 1.59375,1.0625 0.65625,0 1.109375,-0.40625 1.296875,-0.859375 z M 3.25,-2.390625 v 1 c 0,0.9375 -0.71875,1.28125 -1.171875,1.28125 -0.484375,0 -0.890625,-0.34375 -0.890625,-0.84375 0,-0.546875 0.421875,-1.375 2.0625,-1.4375 z m 0,0"
           id="id-978c0193-7575-401c-8fb3-756a36e271e4-6" />
      </g>
      <g
         id="id-c12a62c5-612b-41fb-a4a9-32d59330af30-1">
        <path
           d="M 1.09375,-3.421875 V -0.75 c 0,0.4375 -0.109375,0.4375 -0.78125,0.4375 V 0 c 0.359375,-0.015625 0.859375,-0.03125 1.140625,-0.03125 0.25,0 0.765625,0.015625 1.109375,0.03125 v -0.3125 c -0.671875,0 -0.78125,0 -0.78125,-0.4375 V -2.59375 C 1.78125,-3.625 2.5,-4.1875 3.125,-4.1875 c 0.640625,0 0.75,0.53125 0.75,1.109375 V -0.75 c 0,0.4375 -0.109375,0.4375 -0.78125,0.4375 V 0 c 0.34375,-0.015625 0.859375,-0.03125 1.125,-0.03125 0.25,0 0.78125,0.015625 1.109375,0.03125 v -0.3125 c -0.515625,0 -0.765625,0 -0.765625,-0.296875 v -1.90625 c 0,-0.859375 0,-1.15625 -0.3125,-1.515625 -0.140625,-0.171875 -0.46875,-0.375 -1.046875,-0.375 C 2.46875,-4.40625 2,-3.984375 1.71875,-3.359375 V -4.40625 L 0.3125,-4.296875 v 0.3125 c 0.703125,0 0.78125,0.0625 0.78125,0.5625 z m 0,0"
           id="id-e16118b1-1801-4567-a171-ea860ec25f99-2" />
      </g>
      <g
         id="id-c4af8aa6-8e57-40d8-a4cc-42a5a0cb9150-9">
        <path
           d="m 2.078125,-1.9375 c 0.21875,0.046875 1.03125,0.203125 1.03125,0.921875 0,0.5 -0.34375,0.90625 -1.125,0.90625 -0.84375,0 -1.203125,-0.5625 -1.390625,-1.421875 C 0.5625,-1.65625 0.5625,-1.6875 0.453125,-1.6875 c -0.125,0 -0.125,0.0625 -0.125,0.234375 V -0.125 c 0,0.171875 0,0.234375 0.109375,0.234375 0.046875,0 0.0625,-0.015625 0.25,-0.203125 0.015625,-0.015625 0.015625,-0.03125 0.203125,-0.21875 0.4375,0.40625 0.890625,0.421875 1.09375,0.421875 1.140625,0 1.609375,-0.671875 1.609375,-1.390625 0,-0.515625 -0.296875,-0.828125 -0.421875,-0.9375 C 2.84375,-2.546875 2.453125,-2.625 2.03125,-2.703125 1.46875,-2.8125 0.8125,-2.9375 0.8125,-3.515625 c 0,-0.359375 0.25,-0.765625 1.109375,-0.765625 1.09375,0 1.15625,0.90625 1.171875,1.203125 0,0.09375 0.09375,0.09375 0.109375,0.09375 0.140625,0 0.140625,-0.046875 0.140625,-0.234375 v -1.015625 c 0,-0.15625 0,-0.234375 -0.109375,-0.234375 -0.046875,0 -0.078125,0 -0.203125,0.125 -0.03125,0.03125 -0.125,0.125 -0.171875,0.15625 -0.375,-0.28125 -0.78125,-0.28125 -0.9375,-0.28125 -1.21875,0 -1.59375,0.671875 -1.59375,1.234375 0,0.34375 0.15625,0.625 0.421875,0.84375 0.328125,0.25 0.609375,0.3125 1.328125,0.453125 z m 0,0"
           id="id-d3646c8f-3a7a-428f-bbf9-3c6bd68ef00b-3" />
      </g>
      <g
         id="id-701d3624-d921-4f9e-b3e2-41b137af5cf6-1">
        <path
           d="M 1.765625,-6.921875 0.328125,-6.8125 V -6.5 c 0.703125,0 0.78125,0.0625 0.78125,0.5625 V -0.75 c 0,0.4375 -0.109375,0.4375 -0.78125,0.4375 V 0 C 0.65625,-0.015625 1.1875,-0.03125 1.4375,-0.03125 c 0.25,0 0.734375,0.015625 1.109375,0.03125 v -0.3125 c -0.671875,0 -0.78125,0 -0.78125,-0.4375 z m 0,0"
           id="id-cd54a0ba-748d-4dce-9c63-b2a75b71fc32-9" />
      </g>
      <g
         id="id-9a033fb5-e25b-4bc6-ad1c-19684ec17f34-4">
        <path
           d="m 1.71875,-3.984375 h 1.4375 v -0.3125 H 1.71875 V -6.125 h -0.25 c 0,0.8125 -0.296875,1.875 -1.28125,1.921875 v 0.21875 h 0.84375 v 2.75 c 0,1.21875 0.9375,1.34375 1.296875,1.34375 0.703125,0 0.984375,-0.703125 0.984375,-1.34375 v -0.5625 h -0.25 V -1.25 c 0,0.734375 -0.296875,1.109375 -0.671875,1.109375 -0.671875,0 -0.671875,-0.90625 -0.671875,-1.078125 z m 0,0"
           id="id-f5a1f66a-07a2-4d4c-ae28-4f2e398b41f9-7" />
      </g>
      <g
         id="id-e6f2943f-5176-48c7-b429-9ff6a9e5aebf-8">
        <path
           d="M 1.109375,-2.515625 C 1.171875,-4 2.015625,-4.25 2.359375,-4.25 c 1.015625,0 1.125,1.34375 1.125,1.734375 z m 0,0.21875 h 2.78125 c 0.21875,0 0.25,0 0.25,-0.21875 0,-0.984375 -0.546875,-1.953125 -1.78125,-1.953125 -1.15625,0 -2.078125,1.03125 -2.078125,2.28125 0,1.328125 1.046875,2.296875 2.1875,2.296875 C 3.6875,0.109375 4.140625,-1 4.140625,-1.1875 4.140625,-1.28125 4.0625,-1.3125 4,-1.3125 c -0.078125,0 -0.109375,0.0625 -0.125,0.140625 -0.34375,1.03125 -1.25,1.03125 -1.34375,1.03125 -0.5,0 -0.890625,-0.296875 -1.125,-0.671875 -0.296875,-0.46875 -0.296875,-1.125 -0.296875,-1.484375 z m 0,0"
           id="id-79d1a4d5-20cb-4453-a045-933a3e4f2d37-4" />
      </g>
    </g>
    <marker
       style="overflow:visible"
       id="Arrow1"
       refX="0"
       refY="0"
       orient="auto-start-reverse"
       inkscape:stockid="Arrow1"
       markerWidth="4.0606604"
       markerHeight="6.7071066"
       viewBox="0 0 4.0606602 6.7071068"
       inkscape:isstock="true"
       inkscape:collect="always"
       preserveAspectRatio="xMidYMid">
      <path
         style="fill:none;stroke:context-stroke;stroke-width:1;stroke-linecap:butt"
         d="M 3,-3 0,0 3,3"
         id="path5057"
         transform="rotate(180,0.125,0)"
         sodipodi:nodetypes="ccc" />
    </marker>
  </defs>
  <g
     inkscape:label="Layer 1"
     inkscape:groupmode="layer"
     id="layer1"
     transform="translate(-42.2628, -73.9001)">
    <path
       style="fill:none;fill-opacity:0.154933;stroke:#808080;stroke-width:0.2;stroke-linecap:round;stroke-dasharray:none;stroke-dashoffset:0.653102;stroke-opacity:1;paint-order:normal"
       d="M 92.362763,79.100138 H 42.36276"
       id="path64183" />
    <path
       style="fill:none;fill-opacity:0.154933;stroke:#808080;stroke-width:0.2;stroke-linecap:round;stroke-dasharray:none;stroke-dashoffset:0.653102;stroke-opacity:1;paint-order:normal"
       d="M 92.362763,84.100138 H 42.36276"
       id="path64185" />
    <path
       style="fill:none;fill-opacity:0.154933;stroke:#808080;stroke-width:0.2;stroke-linecap:round;stroke-dasharray:none;stroke-dashoffset:0.653102;stroke-opacity:1;paint-order:normal"
       d="M 92.362764,89.100138 H 42.36276"
       id="path64187" />
    <path
       style="fill:none;fill-opacity:0.154933;stroke:#808080;stroke-width:0.2;stroke-linecap:round;stroke-dasharray:none;stroke-dashoffset:0.653102;stroke-opacity:1;paint-order:normal"
       d="M 92.262763,94.000138 H 42.26276"
       id="path64189" />
    <path
       style="fill:none;fill-opacity:0.154933;stroke:#808080;stroke-width:0.2;stroke-linecap:round;stroke-dasharray:none;stroke-dashoffset:0.653102;stroke-opacity:1;paint-order:normal"
       d="M 92.262763,99.000138 H 42.26276"
       id="path64191" />
    <path
       style="fill:none;fill-opacity:0.154933;stroke:#808080;stroke-width:0.2;stroke-linecap:round;stroke-dasharray:none;stroke-dashoffset:0.653102;stroke-opacity:1;paint-order:normal"
       d="M 92.262763,104.00014 H 42.26276"
       id="path64193" />
    <path
       style="fill:none;fill-opacity:0.154933;stroke:#808080;stroke-width:0.2;stroke-linecap:round;stroke-dasharray:none;stroke-dashoffset:0.653102;stroke-opacity:1;paint-order:normal"
       d="M 92.262763,109.20014 H 42.26276"
       id="path64195" />
    <path
       style="fill:none;fill-opacity:0.154933;stroke:#808080;stroke-width:0.2;stroke-linecap:round;stroke-dasharray:none;stroke-dashoffset:0.653102;stroke-opacity:1;paint-order:normal"
       d="M 92.362763,114.10014 H 42.36276"
       id="path64197" />
    <path
       style="fill:none;fill-opacity:0.154933;stroke:#808080;stroke-width:0.2;stroke-linecap:round;stroke-dasharray:none;stroke-dashoffset:0.653102;stroke-opacity:1;paint-order:normal"
       d="M 92.262763,119.00014 H 42.26276"
       id="path64199" />
    <path
       style="fill:none;fill-opacity:0.154933;stroke:#808080;stroke-width:0.2;stroke-linecap:round;stroke-dasharray:none;stroke-dashoffset:0.653102;stroke-opacity:1;paint-order:normal"
       d="M 47.362759,74.000136 V 124.00014"
       id="path64348" />
    <path
       style="fill:none;fill-opacity:0.154933;stroke:#808080;stroke-width:0.2;stroke-linecap:round;stroke-dasharray:none;stroke-dashoffset:0.653102;stroke-opacity:1;paint-order:normal"
       d="M 52.362759,74.000136 V 124.00014"
       id="path64350" />
    <path
       style="fill:none;fill-opacity:0.154933;stroke:#808080;stroke-width:0.2;stroke-linecap:round;stroke-dasharray:none;stroke-dashoffset:0.653102;stroke-opacity:1;paint-order:normal"
       d="M 57.362759,74.000136 V 124.00014"
       id="path64352" />
    <path
       style="fill:none;fill-opacity:0.154933;stroke:#808080;stroke-width:0.2;stroke-linecap:round;stroke-dasharray:none;stroke-dashoffset:0.653102;stroke-opacity:1;paint-order:normal"
       d="M 62.262759,74.100136 V 124.10014"
       id="path64354" />
    <path
       style="fill:none;fill-opacity:0.154933;stroke:#808080;stroke-width:0.2;stroke-linecap:round;stroke-dasharray:none;stroke-dashoffset:0.653102;stroke-opacity:1;paint-order:normal"
       d="M 67.262759,74.100136 V 124.10014"
       id="path64356" />
    <path
       style="fill:none;fill-opacity:0.154933;stroke:#808080;stroke-width:0.2;stroke-linecap:round;stroke-dasharray:none;stroke-dashoffset:0.653102;stroke-opacity:1;paint-order:normal"
       d="M 72.262762,74.100136 V 124.10014"
       id="path64358" />
    <path
       style="fill:none;fill-opacity:0.154933;stroke:#808080;stroke-width:0.2;stroke-linecap:round;stroke-dasharray:none;stroke-dashoffset:0.653102;stroke-opacity:1;paint-order:normal"
       d="M 77.462762,74.100136 V 124.10014"
       id="path64360" />
    <path
       style="fill:none;fill-opacity:0.154933;stroke:#808080;stroke-width:0.2;stroke-linecap:round;stroke-dasharray:none;stroke-dashoffset:0.653102;stroke-opacity:1;paint-order:normal"
       d="M 82.362762,74.000136 V 124.00014"
       id="path64362" />
    <path
       style="fill:none;fill-opacity:0.154933;stroke:#808080;stroke-width:0.2;stroke-linecap:round;stroke-dasharray:none;stroke-dashoffset:0.653102;stroke-opacity:1;paint-order:normal"
       d="M 87.262762,74.100136 V 124.10014"
       id="path64364" />
    <path
       style="fill:#e3e3f9;fill-opacity:0.74902;stroke:#000000;stroke-width:0.2;stroke-linecap:round;stroke-dasharray:none;stroke-dashoffset:0.653102;stroke-opacity:1;paint-order:normal"
       d="M 42.2628,73.900104 H 92.462801 V 124.1001 H 42.2628 Z"
       id="path64181"
       sodipodi:nodetypes="ccccc" />
    <path
       style="fill:#000000;fill-opacity:0.74902;stroke:#000000;stroke-width:0.5;stroke-linecap:round;stroke-dasharray:none;stroke-dashoffset:0.653102;stroke-opacity:1;marker-end:url(#Arrow1);paint-order:normal"
       d="M 67.312759,93.850136 82.212762,88.950134"
       id="path67029"
       sodipodi:nodetypes="cc" />
    <circle
       style="fill:#000000;fill-opacity:0.995356;stroke:none;stroke-width:0.532999;stroke-linecap:round;stroke-dasharray:none;stroke-dashoffset:0.653102;stroke-opacity:0.466667;paint-order:normal"
       id="path54622"
       cx="67.262764"
       cy="109.20014"
       r="0.89999998" />
    <path
       style="fill:#000000;fill-opacity:0.74902;stroke:#000000;stroke-width:0.5;stroke-linecap:round;stroke-dasharray:none;stroke-dashoffset:0.653102;stroke-opacity:1;marker-end:url(#Arrow1);paint-order:normal;opacity:0.25"
       d="m 67.312759,109.05014 14.900003,-4.9"
       id="path107191"
       sodipodi:nodetypes="cc" />
    <path
       id="path111897"
       style="opacity:0.25;fill:none;fill-opacity:0.74902;stroke:#000000;stroke-width:0.5;stroke-linecap:round;stroke-dasharray:none;stroke-dashoffset:0.653102;stroke-opacity:1;marker-end:;paint-order:normal"
       d="M 82.212762 104.15014 L 92.462888 100.77929 " />
    <path
       id="path107191-4"
       style="opacity:0.25;fill:none;fill-opacity:0.74902;stroke:#000000;stroke-width:0.5;stroke-linecap:round;stroke-dasharray:none;stroke-dashoffset:0.653102;stroke-opacity:1;paint-order:normal;marker-start:"
       d="M 42.262909 117.42157 L 52.362759 114.10014 " />
    <path
       style="opacity:0.25;fill:#000000;fill-opacity:0.74902;stroke:#000000;stroke-width:0.5;stroke-linecap:round;stroke-dasharray:none;stroke-dashoffset:0.653102;stroke-opacity:1;marker-end:;paint-order:normal;marker-start:url(#Arrow3)"
       d="m 52.362759,114.10014 14.900003,-4.9"
       id="path110133-8"
       sodipodi:nodetypes="cc" />
    <path
       style="opacity:1;fill:#000000;fill-opacity:0;stroke:#3b7ec3;stroke-width:0.2;stroke-linecap:round;stroke-dasharray:none;stroke-opacity:1;stroke-dashoffset:0"
       d="M 42.262909,117.42157 92.462888,100.77929"
       id="path111966" />
    <g
       transform="matrix(0.265693,0,0,0.265693,73.093865,89.000138)"
       ns1:version="1.8.2"
       ns1:texconverter="pdflatex"
       ns1:pdfconverter="inkscape"
       ns1:text="$\\vec{v}$"
       ns1:preamble="/usr/share/inkscape/extensions/textext/default_packages.tex"
       ns1:scale="0.7531439980667257"
       ns1:alignment="middle center"
       ns1:stroke-to-path="0"
       ns1:inkscapeversion="1.2.2"
       ns1:jacobian_sqrt="0.265693"
       id="g114434"
       style="opacity:1">
      <defs
         id="id-446b1190-c3d4-4de4-bfcc-f3d5b280b0f0">
        <g
           id="id-6c43eecd-ec88-4dac-9c02-701a7e50818d">
          <g
             id="id-88f0191f-37a6-4640-a1a9-c6a966275ca7" />
          <g
             id="id-3cc1638c-5c28-4494-a49e-3b9aaa2f4fc4">
            <path
               d="m 5.359375,-5.9375 c -0.140625,0.140625 -0.46875,0.421875 -0.46875,0.59375 0,0.09375 0.09375,0.203125 0.1875,0.203125 0.09375,0 0.140625,-0.078125 0.203125,-0.140625 C 5.390625,-5.421875 5.625,-5.703125 6.0625,-5.921875 6.125,-5.96875 6.234375,-6.015625 6.234375,-6.125 6.234375,-6.234375 6.15625,-6.28125 6.09375,-6.328125 5.875,-6.484375 5.765625,-6.65625 5.6875,-6.890625 5.65625,-6.984375 5.625,-7.125 5.484375,-7.125 c -0.140625,0 -0.203125,0.140625 -0.203125,0.21875 0,0.046875 0.078125,0.359375 0.234375,0.578125 H 2.15625 c -0.15625,0 -0.34375,0 -0.34375,0.203125 0,0.1875 0.1875,0.1875 0.34375,0.1875 z m 0,0"
               id="id-132664df-9be7-4fcb-bb76-07383b12dbc4" />
          </g>
          <g
             id="id-b39178bd-4f87-4388-a56d-cc8efdf181d5">
            <path
               d="m 4.671875,-3.703125 c 0,-0.546875 -0.265625,-0.703125 -0.4375,-0.703125 -0.25,0 -0.5,0.265625 -0.5,0.484375 0,0.125 0.046875,0.1875 0.15625,0.296875 0.21875,0.203125 0.34375,0.453125 0.34375,0.8125 0,0.421875 -0.609375,2.703125 -1.765625,2.703125 -0.515625,0 -0.75,-0.34375 -0.75,-0.875 0,-0.546875 0.28125,-1.28125 0.578125,-2.109375 0.078125,-0.171875 0.125,-0.3125 0.125,-0.5 0,-0.4375 -0.3125,-0.8125 -0.8125,-0.8125 -0.9375,0 -1.3125,1.453125 -1.3125,1.53125 0,0.109375 0.09375,0.109375 0.109375,0.109375 0.109375,0 0.109375,-0.03125 0.15625,-0.1875 0.296875,-1 0.71875,-1.234375 1.015625,-1.234375 0.078125,0 0.25,0 0.25,0.3125 0,0.25 -0.109375,0.53125 -0.171875,0.703125 -0.4375,1.15625 -0.5625,1.609375 -0.5625,2.046875 0,1.078125 0.875,1.234375 1.328125,1.234375 1.671875,0 2.25,-3.296875 2.25,-3.8125 z m 0,0"
               id="id-93d6cc1e-671a-42d8-a780-a128af55ad21" />
          </g>
        </g>
      </defs>
      <g
         fill="#000000"
         fill-opacity="1"
         id="id-3a6be6ed-9ca4-4d02-b158-0c3bbbbab456"
         transform="translate(-149.01,-127.64)">
        <g
           transform="translate(148.325,134.765)"
           id="g114427">
          <path
             d="m 5.359375,-5.9375 c -0.140625,0.140625 -0.46875,0.421875 -0.46875,0.59375 0,0.09375 0.09375,0.203125 0.1875,0.203125 0.09375,0 0.140625,-0.078125 0.203125,-0.140625 C 5.390625,-5.421875 5.625,-5.703125 6.0625,-5.921875 6.125,-5.96875 6.234375,-6.015625 6.234375,-6.125 6.234375,-6.234375 6.15625,-6.28125 6.09375,-6.328125 5.875,-6.484375 5.765625,-6.65625 5.6875,-6.890625 5.65625,-6.984375 5.625,-7.125 5.484375,-7.125 c -0.140625,0 -0.203125,0.140625 -0.203125,0.21875 0,0.046875 0.078125,0.359375 0.234375,0.578125 H 2.15625 c -0.15625,0 -0.34375,0 -0.34375,0.203125 0,0.1875 0.1875,0.1875 0.34375,0.1875 z m 0,0"
             id="id-f470f326-6645-42eb-a2e6-c54bb5ae50e1" />
        </g>
      </g>
      <g
         fill="#000000"
         fill-opacity="1"
         id="id-26ca51a9-5840-4e18-b3d1-e0a95236edcb"
         transform="translate(-149.01,-127.64)">
        <g
           transform="translate(148.714,134.765)"
           id="g114431">
          <path
             d="m 4.671875,-3.703125 c 0,-0.546875 -0.265625,-0.703125 -0.4375,-0.703125 -0.25,0 -0.5,0.265625 -0.5,0.484375 0,0.125 0.046875,0.1875 0.15625,0.296875 0.21875,0.203125 0.34375,0.453125 0.34375,0.8125 0,0.421875 -0.609375,2.703125 -1.765625,2.703125 -0.515625,0 -0.75,-0.34375 -0.75,-0.875 0,-0.546875 0.28125,-1.28125 0.578125,-2.109375 0.078125,-0.171875 0.125,-0.3125 0.125,-0.5 0,-0.4375 -0.3125,-0.8125 -0.8125,-0.8125 -0.9375,0 -1.3125,1.453125 -1.3125,1.53125 0,0.109375 0.09375,0.109375 0.109375,0.109375 0.109375,0 0.109375,-0.03125 0.15625,-0.1875 0.296875,-1 0.71875,-1.234375 1.015625,-1.234375 0.078125,0 0.25,0 0.25,0.3125 0,0.25 -0.109375,0.53125 -0.171875,0.703125 -0.4375,1.15625 -0.5625,1.609375 -0.5625,2.046875 0,1.078125 0.875,1.234375 1.328125,1.234375 1.671875,0 2.25,-3.296875 2.25,-3.8125 z m 0,0"
             id="id-62efd710-982f-460c-94e0-c81c42d669ed" />
        </g>
      </g>
    </g>
    <g
       transform="matrix(0.265693,0,0,0.265693,67.717298,106.17171)"
       ns1:version="1.8.2"
       ns1:texconverter="pdflatex"
       ns1:pdfconverter="inkscape"
       ns1:text="$P$"
       ns1:preamble="/usr/share/inkscape/extensions/textext/default_packages.tex"
       ns1:scale="0.7531439980667257"
       ns1:alignment="middle center"
       ns1:stroke-to-path="0"
       ns1:inkscapeversion="1.2.2"
       ns1:jacobian_sqrt="0.265693"
       id="g114635">
      <defs
         id="id-47186247-8bc6-48a3-bb56-941802c52a3f">
        <g
           id="id-f04b2d0d-7b91-4319-8919-7cec57f1364a">
          <g
             id="id-9671b98c-8f75-4d71-ad19-496e1dc3fdc8" />
          <g
             id="id-33f99252-5d46-41fd-bdcc-c36bc8dcd278">
            <path
               d="M 3.015625,-3.15625 H 4.71875 c 1.40625,0 2.796875,-1.03125 2.796875,-2.140625 0,-0.78125 -0.65625,-1.515625 -1.96875,-1.515625 h -3.21875 c -0.1875,0 -0.296875,0 -0.296875,0.1875 0,0.125 0.078125,0.125 0.28125,0.125 0.125,0 0.3125,0.015625 0.421875,0.015625 0.171875,0.03125 0.21875,0.046875 0.21875,0.171875 0,0.03125 0,0.0625 -0.03125,0.1875 l -1.34375,5.34375 c -0.09375,0.390625 -0.109375,0.46875 -0.90625,0.46875 -0.15625,0 -0.265625,0 -0.265625,0.1875 C 0.40625,0 0.515625,0 0.546875,0 0.828125,0 1.53125,-0.03125 1.8125,-0.03125 c 0.21875,0 0.4375,0.015625 0.640625,0.015625 0.21875,0 0.4375,0.015625 0.640625,0.015625 0.078125,0 0.203125,0 0.203125,-0.203125 0,-0.109375 -0.09375,-0.109375 -0.28125,-0.109375 -0.359375,0 -0.640625,0 -0.640625,-0.171875 0,-0.0625 0.015625,-0.109375 0.03125,-0.171875 z M 3.734375,-6.125 C 3.828125,-6.46875 3.84375,-6.5 4.28125,-6.5 h 0.953125 c 0.828125,0 1.359375,0.265625 1.359375,0.953125 0,0.390625 -0.203125,1.25 -0.59375,1.609375 -0.5,0.453125 -1.09375,0.53125 -1.53125,0.53125 H 3.0625 Z m 0,0"
               id="id-db5a541d-d864-4b2c-8926-7c158e416272" />
          </g>
        </g>
      </defs>
      <g
         fill="#000000"
         fill-opacity="1"
         id="id-f479e540-6264-4502-bbec-e7da777aa3cb"
         transform="translate(-149.118,-127.953)">
        <g
           transform="translate(148.712,134.765)"
           id="g114632">
          <path
             d="M 3.015625,-3.15625 H 4.71875 c 1.40625,0 2.796875,-1.03125 2.796875,-2.140625 0,-0.78125 -0.65625,-1.515625 -1.96875,-1.515625 h -3.21875 c -0.1875,0 -0.296875,0 -0.296875,0.1875 0,0.125 0.078125,0.125 0.28125,0.125 0.125,0 0.3125,0.015625 0.421875,0.015625 0.171875,0.03125 0.21875,0.046875 0.21875,0.171875 0,0.03125 0,0.0625 -0.03125,0.1875 l -1.34375,5.34375 c -0.09375,0.390625 -0.109375,0.46875 -0.90625,0.46875 -0.15625,0 -0.265625,0 -0.265625,0.1875 C 0.40625,0 0.515625,0 0.546875,0 0.828125,0 1.53125,-0.03125 1.8125,-0.03125 c 0.21875,0 0.4375,0.015625 0.640625,0.015625 0.21875,0 0.4375,0.015625 0.640625,0.015625 0.078125,0 0.203125,0 0.203125,-0.203125 0,-0.109375 -0.09375,-0.109375 -0.28125,-0.109375 -0.359375,0 -0.640625,0 -0.640625,-0.171875 0,-0.0625 0.015625,-0.109375 0.03125,-0.171875 z M 3.734375,-6.125 C 3.828125,-6.46875 3.84375,-6.5 4.28125,-6.5 h 0.953125 c 0.828125,0 1.359375,0.265625 1.359375,0.953125 0,0.390625 -0.203125,1.25 -0.59375,1.609375 -0.5,0.453125 -1.09375,0.53125 -1.53125,0.53125 H 3.0625 Z m 0,0"
             id="id-90cdd4de-6aa5-4c55-9986-33261c92211c" />
        </g>
      </g>
    </g>
    <g
       transform="matrix(0.265693,0,0,0.265693,73.093865,104.20014)"
       ns1:version="1.8.2"
       ns1:texconverter="pdflatex"
       ns1:pdfconverter="inkscape"
       ns1:text="$\\vec{v}$"
       ns1:preamble="/usr/share/inkscape/extensions/textext/default_packages.tex"
       ns1:scale="0.7531439980667257"
       ns1:alignment="middle center"
       ns1:stroke-to-path="0"
       ns1:inkscapeversion="1.2.2"
       ns1:jacobian_sqrt="0.265693"
       id="g120780"
       style="fill:#000000;fill-opacity:0.99464697;stroke-width:1.00115547;stroke-dasharray:none;opacity:0.25">
      <defs
         id="defs120766">
        <g
           id="g120764">
          <g
             id="g120754" />
          <g
             id="g120758">
            <path
               d="m 5.359375,-5.9375 c -0.140625,0.140625 -0.46875,0.421875 -0.46875,0.59375 0,0.09375 0.09375,0.203125 0.1875,0.203125 0.09375,0 0.140625,-0.078125 0.203125,-0.140625 C 5.390625,-5.421875 5.625,-5.703125 6.0625,-5.921875 6.125,-5.96875 6.234375,-6.015625 6.234375,-6.125 6.234375,-6.234375 6.15625,-6.28125 6.09375,-6.328125 5.875,-6.484375 5.765625,-6.65625 5.6875,-6.890625 5.65625,-6.984375 5.625,-7.125 5.484375,-7.125 c -0.140625,0 -0.203125,0.140625 -0.203125,0.21875 0,0.046875 0.078125,0.359375 0.234375,0.578125 H 2.15625 c -0.15625,0 -0.34375,0 -0.34375,0.203125 0,0.1875 0.1875,0.1875 0.34375,0.1875 z m 0,0"
               id="path120756" />
          </g>
          <g
             id="g120762">
            <path
               d="m 4.671875,-3.703125 c 0,-0.546875 -0.265625,-0.703125 -0.4375,-0.703125 -0.25,0 -0.5,0.265625 -0.5,0.484375 0,0.125 0.046875,0.1875 0.15625,0.296875 0.21875,0.203125 0.34375,0.453125 0.34375,0.8125 0,0.421875 -0.609375,2.703125 -1.765625,2.703125 -0.515625,0 -0.75,-0.34375 -0.75,-0.875 0,-0.546875 0.28125,-1.28125 0.578125,-2.109375 0.078125,-0.171875 0.125,-0.3125 0.125,-0.5 0,-0.4375 -0.3125,-0.8125 -0.8125,-0.8125 -0.9375,0 -1.3125,1.453125 -1.3125,1.53125 0,0.109375 0.09375,0.109375 0.109375,0.109375 0.109375,0 0.109375,-0.03125 0.15625,-0.1875 0.296875,-1 0.71875,-1.234375 1.015625,-1.234375 0.078125,0 0.25,0 0.25,0.3125 0,0.25 -0.109375,0.53125 -0.171875,0.703125 -0.4375,1.15625 -0.5625,1.609375 -0.5625,2.046875 0,1.078125 0.875,1.234375 1.328125,1.234375 1.671875,0 2.25,-3.296875 2.25,-3.8125 z m 0,0"
               id="path120760" />
          </g>
        </g>
      </defs>
      <g
         fill="#000000"
         fill-opacity="1"
         id="g120772"
         transform="translate(-149.01,-127.64)"
         style="fill:#000000;fill-opacity:0.99464697;stroke-width:1.00115547;stroke-dasharray:none">
        <g
           transform="translate(148.325,134.765)"
           id="g120770"
           style="fill:#000000;fill-opacity:0.99464697;stroke-width:1.00115547;stroke-dasharray:none">
          <path
             d="m 5.359375,-5.9375 c -0.140625,0.140625 -0.46875,0.421875 -0.46875,0.59375 0,0.09375 0.09375,0.203125 0.1875,0.203125 0.09375,0 0.140625,-0.078125 0.203125,-0.140625 C 5.390625,-5.421875 5.625,-5.703125 6.0625,-5.921875 6.125,-5.96875 6.234375,-6.015625 6.234375,-6.125 6.234375,-6.234375 6.15625,-6.28125 6.09375,-6.328125 5.875,-6.484375 5.765625,-6.65625 5.6875,-6.890625 5.65625,-6.984375 5.625,-7.125 5.484375,-7.125 c -0.140625,0 -0.203125,0.140625 -0.203125,0.21875 0,0.046875 0.078125,0.359375 0.234375,0.578125 H 2.15625 c -0.15625,0 -0.34375,0 -0.34375,0.203125 0,0.1875 0.1875,0.1875 0.34375,0.1875 z m 0,0"
             id="path120768"
             style="fill:#000000;fill-opacity:0.99464697;stroke-width:1.00115547;stroke-dasharray:none" />
        </g>
      </g>
      <g
         fill="#000000"
         fill-opacity="1"
         id="g120778"
         transform="translate(-149.01,-127.64)"
         style="fill:#000000;fill-opacity:0.99464697;stroke-width:1.00115547;stroke-dasharray:none">
        <g
           transform="translate(148.714,134.765)"
           id="g120776"
           style="fill:#000000;fill-opacity:0.99464697;stroke-width:1.00115547;stroke-dasharray:none">
          <path
             d="m 4.671875,-3.703125 c 0,-0.546875 -0.265625,-0.703125 -0.4375,-0.703125 -0.25,0 -0.5,0.265625 -0.5,0.484375 0,0.125 0.046875,0.1875 0.15625,0.296875 0.21875,0.203125 0.34375,0.453125 0.34375,0.8125 0,0.421875 -0.609375,2.703125 -1.765625,2.703125 -0.515625,0 -0.75,-0.34375 -0.75,-0.875 0,-0.546875 0.28125,-1.28125 0.578125,-2.109375 0.078125,-0.171875 0.125,-0.3125 0.125,-0.5 0,-0.4375 -0.3125,-0.8125 -0.8125,-0.8125 -0.9375,0 -1.3125,1.453125 -1.3125,1.53125 0,0.109375 0.09375,0.109375 0.109375,0.109375 0.109375,0 0.109375,-0.03125 0.15625,-0.1875 0.296875,-1 0.71875,-1.234375 1.015625,-1.234375 0.078125,0 0.25,0 0.25,0.3125 0,0.25 -0.109375,0.53125 -0.171875,0.703125 -0.4375,1.15625 -0.5625,1.609375 -0.5625,2.046875 0,1.078125 0.875,1.234375 1.328125,1.234375 1.671875,0 2.25,-3.296875 2.25,-3.8125 z m 0,0"
             id="path120774"
             style="fill:#000000;fill-opacity:0.99464697;stroke-width:1.00115547;stroke-dasharray:none" />
        </g>
      </g>
    </g>
    <g
       transform="matrix(0.265693,0,0,0.265693,87.993868,99.30014)"
       ns1:version="1.8.2"
       ns1:texconverter="pdflatex"
       ns1:pdfconverter="inkscape"
       ns1:text="$\\vec{v}$"
       ns1:preamble="/usr/share/inkscape/extensions/textext/default_packages.tex"
       ns1:scale="0.7531439980667257"
       ns1:alignment="middle center"
       ns1:stroke-to-path="0"
       ns1:inkscapeversion="1.2.2"
       ns1:jacobian_sqrt="0.265693"
       id="g120812"
       style="fill:#000000;fill-opacity:0.99464697;stroke-width:1.00115547;stroke-dasharray:none;opacity:0.25">
      <defs
         id="defs120798">
        <g
           id="g120796">
          <g
             id="g120786" />
          <g
             id="g120790">
            <path
               d="m 5.359375,-5.9375 c -0.140625,0.140625 -0.46875,0.421875 -0.46875,0.59375 0,0.09375 0.09375,0.203125 0.1875,0.203125 0.09375,0 0.140625,-0.078125 0.203125,-0.140625 C 5.390625,-5.421875 5.625,-5.703125 6.0625,-5.921875 6.125,-5.96875 6.234375,-6.015625 6.234375,-6.125 6.234375,-6.234375 6.15625,-6.28125 6.09375,-6.328125 5.875,-6.484375 5.765625,-6.65625 5.6875,-6.890625 5.65625,-6.984375 5.625,-7.125 5.484375,-7.125 c -0.140625,0 -0.203125,0.140625 -0.203125,0.21875 0,0.046875 0.078125,0.359375 0.234375,0.578125 H 2.15625 c -0.15625,0 -0.34375,0 -0.34375,0.203125 0,0.1875 0.1875,0.1875 0.34375,0.1875 z m 0,0"
               id="path120788" />
          </g>
          <g
             id="g120794">
            <path
               d="m 4.671875,-3.703125 c 0,-0.546875 -0.265625,-0.703125 -0.4375,-0.703125 -0.25,0 -0.5,0.265625 -0.5,0.484375 0,0.125 0.046875,0.1875 0.15625,0.296875 0.21875,0.203125 0.34375,0.453125 0.34375,0.8125 0,0.421875 -0.609375,2.703125 -1.765625,2.703125 -0.515625,0 -0.75,-0.34375 -0.75,-0.875 0,-0.546875 0.28125,-1.28125 0.578125,-2.109375 0.078125,-0.171875 0.125,-0.3125 0.125,-0.5 0,-0.4375 -0.3125,-0.8125 -0.8125,-0.8125 -0.9375,0 -1.3125,1.453125 -1.3125,1.53125 0,0.109375 0.09375,0.109375 0.109375,0.109375 0.109375,0 0.109375,-0.03125 0.15625,-0.1875 0.296875,-1 0.71875,-1.234375 1.015625,-1.234375 0.078125,0 0.25,0 0.25,0.3125 0,0.25 -0.109375,0.53125 -0.171875,0.703125 -0.4375,1.15625 -0.5625,1.609375 -0.5625,2.046875 0,1.078125 0.875,1.234375 1.328125,1.234375 1.671875,0 2.25,-3.296875 2.25,-3.8125 z m 0,0"
               id="path120792" />
          </g>
        </g>
      </defs>
      <g
         fill="#000000"
         fill-opacity="1"
         id="g120804"
         transform="translate(-149.01,-127.64)"
         style="fill:#000000;fill-opacity:0.99464697;stroke-width:1.00115547;stroke-dasharray:none">
        <g
           transform="translate(148.325,134.765)"
           id="g120802"
           style="fill:#000000;fill-opacity:0.99464697;stroke-width:1.00115547;stroke-dasharray:none">
          <path
             d="m 5.359375,-5.9375 c -0.140625,0.140625 -0.46875,0.421875 -0.46875,0.59375 0,0.09375 0.09375,0.203125 0.1875,0.203125 0.09375,0 0.140625,-0.078125 0.203125,-0.140625 C 5.390625,-5.421875 5.625,-5.703125 6.0625,-5.921875 6.125,-5.96875 6.234375,-6.015625 6.234375,-6.125 6.234375,-6.234375 6.15625,-6.28125 6.09375,-6.328125 5.875,-6.484375 5.765625,-6.65625 5.6875,-6.890625 5.65625,-6.984375 5.625,-7.125 5.484375,-7.125 c -0.140625,0 -0.203125,0.140625 -0.203125,0.21875 0,0.046875 0.078125,0.359375 0.234375,0.578125 H 2.15625 c -0.15625,0 -0.34375,0 -0.34375,0.203125 0,0.1875 0.1875,0.1875 0.34375,0.1875 z m 0,0"
             id="path120800"
             style="fill:#000000;fill-opacity:0.99464697;stroke-width:1.00115547;stroke-dasharray:none" />
        </g>
      </g>
      <g
         fill="#000000"
         fill-opacity="1"
         id="g120810"
         transform="translate(-149.01,-127.64)"
         style="fill:#000000;fill-opacity:0.99464697;stroke-width:1.00115547;stroke-dasharray:none">
        <g
           transform="translate(148.714,134.765)"
           id="g120808"
           style="fill:#000000;fill-opacity:0.99464697;stroke-width:1.00115547;stroke-dasharray:none">
          <path
             d="m 4.671875,-3.703125 c 0,-0.546875 -0.265625,-0.703125 -0.4375,-0.703125 -0.25,0 -0.5,0.265625 -0.5,0.484375 0,0.125 0.046875,0.1875 0.15625,0.296875 0.21875,0.203125 0.34375,0.453125 0.34375,0.8125 0,0.421875 -0.609375,2.703125 -1.765625,2.703125 -0.515625,0 -0.75,-0.34375 -0.75,-0.875 0,-0.546875 0.28125,-1.28125 0.578125,-2.109375 0.078125,-0.171875 0.125,-0.3125 0.125,-0.5 0,-0.4375 -0.3125,-0.8125 -0.8125,-0.8125 -0.9375,0 -1.3125,1.453125 -1.3125,1.53125 0,0.109375 0.09375,0.109375 0.109375,0.109375 0.109375,0 0.109375,-0.03125 0.15625,-0.1875 0.296875,-1 0.71875,-1.234375 1.015625,-1.234375 0.078125,0 0.25,0 0.25,0.3125 0,0.25 -0.109375,0.53125 -0.171875,0.703125 -0.4375,1.15625 -0.5625,1.609375 -0.5625,2.046875 0,1.078125 0.875,1.234375 1.328125,1.234375 1.671875,0 2.25,-3.296875 2.25,-3.8125 z m 0,0"
             id="path120806"
             style="fill:#000000;fill-opacity:0.99464697;stroke-width:1.00115547;stroke-dasharray:none" />
        </g>
      </g>
    </g>
    <g
       transform="matrix(0.265693 0 0 0.265693 57.185 109.25)"
       ns1:version="1.8.2"
       ns1:texconverter="pdflatex"
       ns1:pdfconverter="inkscape"
       ns1:text="$-\\vec{v}$"
       ns1:preamble="/usr/share/inkscape/extensions/textext/default_packages.tex"
       ns1:scale="0.7531439980667257"
       ns1:alignment="middle center"
       ns1:stroke-to-path="0"
       ns1:inkscapeversion="1.2.2"
       ns1:jacobian_sqrt="0.265693"
       style="opacity:0.25;stroke-width:0"
       id="g123592">
      <defs
         id="id-5eb82939-6aa6-4bbc-b031-a92fa8036da2"
         style="opacity:1;stroke-width:0">
        <g
           id="id-62a418ca-9b47-4589-aea9-33d0ff28790e"
           style="opacity:1;stroke-width:0">
          <g
             id="id-d7e4663f-abd1-489e-8102-4ded6f8ffc0a"
             style="opacity:1;stroke-width:0" />
          <g
             id="id-0827173a-0f00-4206-8d49-8ee287f8e07a"
             style="opacity:1;stroke-width:0">
            <path
               d="m 6.5625,-2.296875 c 0.171875,0 0.359375,0 0.359375,-0.203125 0,-0.1875 -0.1875,-0.1875 -0.359375,-0.1875 H 1.171875 c -0.171875,0 -0.34375,0 -0.34375,0.1875 0,0.203125 0.171875,0.203125 0.34375,0.203125 z m 0,0"
               id="id-20a916c0-0cc2-457d-9119-164655aa3067"
               style="opacity:1;stroke-width:0" />
          </g>
          <g
             id="id-4bdf1f88-3a54-43e8-96eb-07a7dfc0cfb0"
             style="opacity:1;stroke-width:0" />
          <g
             id="id-62cca791-5235-4d3d-beb6-6ffc5c37f3d4"
             style="opacity:1;stroke-width:0">
            <path
               d="m 5.359375,-5.9375 c -0.140625,0.140625 -0.46875,0.421875 -0.46875,0.59375 0,0.09375 0.09375,0.203125 0.1875,0.203125 0.09375,0 0.140625,-0.078125 0.203125,-0.140625 C 5.390625,-5.421875 5.625,-5.703125 6.0625,-5.921875 6.125,-5.96875 6.234375,-6.015625 6.234375,-6.125 6.234375,-6.234375 6.15625,-6.28125 6.09375,-6.328125 5.875,-6.484375 5.765625,-6.65625 5.6875,-6.890625 5.65625,-6.984375 5.625,-7.125 5.484375,-7.125 c -0.140625,0 -0.203125,0.140625 -0.203125,0.21875 0,0.046875 0.078125,0.359375 0.234375,0.578125 H 2.15625 c -0.15625,0 -0.34375,0 -0.34375,0.203125 0,0.1875 0.1875,0.1875 0.34375,0.1875 z m 0,0"
               id="id-fb58f883-84de-4287-9183-9f3c07d2e965"
               style="opacity:1;stroke-width:0" />
          </g>
          <g
             id="id-6d2c76d2-7b17-4b0f-b58c-ec77c4d5c782"
             style="opacity:1;stroke-width:0">
            <path
               d="m 4.671875,-3.703125 c 0,-0.546875 -0.265625,-0.703125 -0.4375,-0.703125 -0.25,0 -0.5,0.265625 -0.5,0.484375 0,0.125 0.046875,0.1875 0.15625,0.296875 0.21875,0.203125 0.34375,0.453125 0.34375,0.8125 0,0.421875 -0.609375,2.703125 -1.765625,2.703125 -0.515625,0 -0.75,-0.34375 -0.75,-0.875 0,-0.546875 0.28125,-1.28125 0.578125,-2.109375 0.078125,-0.171875 0.125,-0.3125 0.125,-0.5 0,-0.4375 -0.3125,-0.8125 -0.8125,-0.8125 -0.9375,0 -1.3125,1.453125 -1.3125,1.53125 0,0.109375 0.09375,0.109375 0.109375,0.109375 0.109375,0 0.109375,-0.03125 0.15625,-0.1875 0.296875,-1 0.71875,-1.234375 1.015625,-1.234375 0.078125,0 0.25,0 0.25,0.3125 0,0.25 -0.109375,0.53125 -0.171875,0.703125 -0.4375,1.15625 -0.5625,1.609375 -0.5625,2.046875 0,1.078125 0.875,1.234375 1.328125,1.234375 1.671875,0 2.25,-3.296875 2.25,-3.8125 z m 0,0"
               id="id-dba488d9-19e7-4ac7-91dc-511fb352f7b7"
               style="opacity:1;stroke-width:0" />
          </g>
        </g>
      </defs>
      <g
         fill="#000000"
         fill-opacity="1"
         id="id-8dccc27c-afb9-4022-ada6-96555a0a77e5"
         transform="translate(-149.54, -127.64)"
         style="opacity:1;stroke-width:0">
        <g
           transform="translate(148.712, 134.765)"
           style="opacity:1;stroke-width:0"
           id="g123923">
          <path
             d="m 6.5625,-2.296875 c 0.171875,0 0.359375,0 0.359375,-0.203125 0,-0.1875 -0.1875,-0.1875 -0.359375,-0.1875 H 1.171875 c -0.171875,0 -0.34375,0 -0.34375,0.1875 0,0.203125 0.171875,0.203125 0.34375,0.203125 z m 0,0"
             id="id-b1d5737c-35a7-457a-b1eb-8f24ed22eacb"
             style="opacity:1;stroke-width:0" />
        </g>
      </g>
      <g
         fill="#000000"
         fill-opacity="1"
         id="id-4465ddcb-bb1e-4840-bc62-3d1651cd4093"
         transform="translate(-149.54, -127.64)"
         style="opacity:1;stroke-width:0">
        <g
           transform="translate(156.074, 134.765)"
           style="opacity:1;stroke-width:0"
           id="g123927">
          <path
             d="m 5.359375,-5.9375 c -0.140625,0.140625 -0.46875,0.421875 -0.46875,0.59375 0,0.09375 0.09375,0.203125 0.1875,0.203125 0.09375,0 0.140625,-0.078125 0.203125,-0.140625 C 5.390625,-5.421875 5.625,-5.703125 6.0625,-5.921875 6.125,-5.96875 6.234375,-6.015625 6.234375,-6.125 6.234375,-6.234375 6.15625,-6.28125 6.09375,-6.328125 5.875,-6.484375 5.765625,-6.65625 5.6875,-6.890625 5.65625,-6.984375 5.625,-7.125 5.484375,-7.125 c -0.140625,0 -0.203125,0.140625 -0.203125,0.21875 0,0.046875 0.078125,0.359375 0.234375,0.578125 H 2.15625 c -0.15625,0 -0.34375,0 -0.34375,0.203125 0,0.1875 0.1875,0.1875 0.34375,0.1875 z m 0,0"
             id="id-f7592aee-65f1-4b99-bb5e-eb7af941d163"
             style="opacity:1;stroke-width:0" />
        </g>
      </g>
      <g
         fill="#000000"
         fill-opacity="1"
         id="id-0bce4776-5f25-4f58-8494-a47d29244690"
         transform="translate(-149.54, -127.64)"
         style="opacity:1;stroke-width:0">
        <g
           transform="translate(156.463, 134.765)"
           style="opacity:1;stroke-width:0"
           id="g123931">
          <path
             d="m 4.671875,-3.703125 c 0,-0.546875 -0.265625,-0.703125 -0.4375,-0.703125 -0.25,0 -0.5,0.265625 -0.5,0.484375 0,0.125 0.046875,0.1875 0.15625,0.296875 0.21875,0.203125 0.34375,0.453125 0.34375,0.8125 0,0.421875 -0.609375,2.703125 -1.765625,2.703125 -0.515625,0 -0.75,-0.34375 -0.75,-0.875 0,-0.546875 0.28125,-1.28125 0.578125,-2.109375 0.078125,-0.171875 0.125,-0.3125 0.125,-0.5 0,-0.4375 -0.3125,-0.8125 -0.8125,-0.8125 -0.9375,0 -1.3125,1.453125 -1.3125,1.53125 0,0.109375 0.09375,0.109375 0.109375,0.109375 0.109375,0 0.109375,-0.03125 0.15625,-0.1875 0.296875,-1 0.71875,-1.234375 1.015625,-1.234375 0.078125,0 0.25,0 0.25,0.3125 0,0.25 -0.109375,0.53125 -0.171875,0.703125 -0.4375,1.15625 -0.5625,1.609375 -0.5625,2.046875 0,1.078125 0.875,1.234375 1.328125,1.234375 1.671875,0 2.25,-3.296875 2.25,-3.8125 z m 0,0"
             id="id-aad916d2-13df-487d-831d-0d8edf52da50"
             style="opacity:1;stroke-width:0" />
        </g>
      </g>
    </g>
    <g
       transform="matrix(0.265693 0 0 0.265693 42.285 114.15)"
       ns1:version="1.8.2"
       ns1:texconverter="pdflatex"
       ns1:pdfconverter="inkscape"
       ns1:text="$-\\vec{v}$"
       ns1:preamble="/usr/share/inkscape/extensions/textext/default_packages.tex"
       ns1:scale="0.7531439980667257"
       ns1:alignment="middle center"
       ns1:stroke-to-path="0"
       ns1:inkscapeversion="1.2.2"
       ns1:jacobian_sqrt="0.265693"
       style="opacity:0.25;stroke-width:0"
       id="g123624">
      <defs
         id="id-2e91154d-0a40-4a71-a43c-7ab95c9bc110"
         style="opacity:1;stroke-width:0">
        <g
           id="id-78899510-4c58-4d6c-b66f-3a90d2ae2ac4"
           style="opacity:1;stroke-width:0">
          <g
             id="id-27d5b7af-83e6-4dde-ab0d-2a9c79e65773"
             style="opacity:1;stroke-width:0" />
          <g
             id="id-3c86c567-1996-4b70-a673-bb21b8379399"
             style="opacity:1;stroke-width:0">
            <path
               d="m 6.5625,-2.296875 c 0.171875,0 0.359375,0 0.359375,-0.203125 0,-0.1875 -0.1875,-0.1875 -0.359375,-0.1875 H 1.171875 c -0.171875,0 -0.34375,0 -0.34375,0.1875 0,0.203125 0.171875,0.203125 0.34375,0.203125 z m 0,0"
               id="id-b9bd1720-1db7-4b57-9d4a-c865b2111d7d"
               style="opacity:1;stroke-width:0" />
          </g>
          <g
             id="id-2d7ee549-650e-45d8-aee4-2f52579d4231"
             style="opacity:1;stroke-width:0" />
          <g
             id="id-20dbdf4e-2668-44a2-927b-1fde0e789274"
             style="opacity:1;stroke-width:0">
            <path
               d="m 5.359375,-5.9375 c -0.140625,0.140625 -0.46875,0.421875 -0.46875,0.59375 0,0.09375 0.09375,0.203125 0.1875,0.203125 0.09375,0 0.140625,-0.078125 0.203125,-0.140625 C 5.390625,-5.421875 5.625,-5.703125 6.0625,-5.921875 6.125,-5.96875 6.234375,-6.015625 6.234375,-6.125 6.234375,-6.234375 6.15625,-6.28125 6.09375,-6.328125 5.875,-6.484375 5.765625,-6.65625 5.6875,-6.890625 5.65625,-6.984375 5.625,-7.125 5.484375,-7.125 c -0.140625,0 -0.203125,0.140625 -0.203125,0.21875 0,0.046875 0.078125,0.359375 0.234375,0.578125 H 2.15625 c -0.15625,0 -0.34375,0 -0.34375,0.203125 0,0.1875 0.1875,0.1875 0.34375,0.1875 z m 0,0"
               id="id-9a4e1f41-6dc3-4c24-bcca-4bcd3058ad84"
               style="opacity:1;stroke-width:0" />
          </g>
          <g
             id="id-fe51447b-c893-4939-8cbd-db6a0b5a63bf"
             style="opacity:1;stroke-width:0">
            <path
               d="m 4.671875,-3.703125 c 0,-0.546875 -0.265625,-0.703125 -0.4375,-0.703125 -0.25,0 -0.5,0.265625 -0.5,0.484375 0,0.125 0.046875,0.1875 0.15625,0.296875 0.21875,0.203125 0.34375,0.453125 0.34375,0.8125 0,0.421875 -0.609375,2.703125 -1.765625,2.703125 -0.515625,0 -0.75,-0.34375 -0.75,-0.875 0,-0.546875 0.28125,-1.28125 0.578125,-2.109375 0.078125,-0.171875 0.125,-0.3125 0.125,-0.5 0,-0.4375 -0.3125,-0.8125 -0.8125,-0.8125 -0.9375,0 -1.3125,1.453125 -1.3125,1.53125 0,0.109375 0.09375,0.109375 0.109375,0.109375 0.109375,0 0.109375,-0.03125 0.15625,-0.1875 0.296875,-1 0.71875,-1.234375 1.015625,-1.234375 0.078125,0 0.25,0 0.25,0.3125 0,0.25 -0.109375,0.53125 -0.171875,0.703125 -0.4375,1.15625 -0.5625,1.609375 -0.5625,2.046875 0,1.078125 0.875,1.234375 1.328125,1.234375 1.671875,0 2.25,-3.296875 2.25,-3.8125 z m 0,0"
               id="id-99fbe1ef-3057-4246-87c5-068d6e3442c4"
               style="opacity:1;stroke-width:0" />
          </g>
        </g>
      </defs>
      <g
         fill="#000000"
         fill-opacity="1"
         id="id-89e1bafd-e961-4aad-aa35-a4e664518d0f"
         transform="translate(-149.54, -127.64)"
         style="opacity:1;stroke-width:0">
        <g
           transform="translate(148.712, 134.765)"
           style="opacity:1;stroke-width:0"
           id="g124280">
          <path
             d="m 6.5625,-2.296875 c 0.171875,0 0.359375,0 0.359375,-0.203125 0,-0.1875 -0.1875,-0.1875 -0.359375,-0.1875 H 1.171875 c -0.171875,0 -0.34375,0 -0.34375,0.1875 0,0.203125 0.171875,0.203125 0.34375,0.203125 z m 0,0"
             id="id-c9a58285-210d-4dce-898c-a8ca745473ee"
             style="opacity:1;stroke-width:0" />
        </g>
      </g>
      <g
         fill="#000000"
         fill-opacity="1"
         id="id-2d8f5671-0fc0-49d4-893f-f6fe446d8faf"
         transform="translate(-149.54, -127.64)"
         style="opacity:1;stroke-width:0">
        <g
           transform="translate(156.074, 134.765)"
           style="opacity:1;stroke-width:0"
           id="g124284">
          <path
             d="m 5.359375,-5.9375 c -0.140625,0.140625 -0.46875,0.421875 -0.46875,0.59375 0,0.09375 0.09375,0.203125 0.1875,0.203125 0.09375,0 0.140625,-0.078125 0.203125,-0.140625 C 5.390625,-5.421875 5.625,-5.703125 6.0625,-5.921875 6.125,-5.96875 6.234375,-6.015625 6.234375,-6.125 6.234375,-6.234375 6.15625,-6.28125 6.09375,-6.328125 5.875,-6.484375 5.765625,-6.65625 5.6875,-6.890625 5.65625,-6.984375 5.625,-7.125 5.484375,-7.125 c -0.140625,0 -0.203125,0.140625 -0.203125,0.21875 0,0.046875 0.078125,0.359375 0.234375,0.578125 H 2.15625 c -0.15625,0 -0.34375,0 -0.34375,0.203125 0,0.1875 0.1875,0.1875 0.34375,0.1875 z m 0,0"
             id="id-f23ce617-6ef0-4cfd-b926-4afacb5ded75"
             style="opacity:1;stroke-width:0" />
        </g>
      </g>
      <g
         fill="#000000"
         fill-opacity="1"
         id="id-15286077-243c-42d7-bff6-df850e57529f"
         transform="translate(-149.54, -127.64)"
         style="opacity:1;stroke-width:0">
        <g
           transform="translate(156.463, 134.765)"
           style="opacity:1;stroke-width:0"
           id="g124288">
          <path
             d="m 4.671875,-3.703125 c 0,-0.546875 -0.265625,-0.703125 -0.4375,-0.703125 -0.25,0 -0.5,0.265625 -0.5,0.484375 0,0.125 0.046875,0.1875 0.15625,0.296875 0.21875,0.203125 0.34375,0.453125 0.34375,0.8125 0,0.421875 -0.609375,2.703125 -1.765625,2.703125 -0.515625,0 -0.75,-0.34375 -0.75,-0.875 0,-0.546875 0.28125,-1.28125 0.578125,-2.109375 0.078125,-0.171875 0.125,-0.3125 0.125,-0.5 0,-0.4375 -0.3125,-0.8125 -0.8125,-0.8125 -0.9375,0 -1.3125,1.453125 -1.3125,1.53125 0,0.109375 0.09375,0.109375 0.109375,0.109375 0.109375,0 0.109375,-0.03125 0.15625,-0.1875 0.296875,-1 0.71875,-1.234375 1.015625,-1.234375 0.078125,0 0.25,0 0.25,0.3125 0,0.25 -0.109375,0.53125 -0.171875,0.703125 -0.4375,1.15625 -0.5625,1.609375 -0.5625,2.046875 0,1.078125 0.875,1.234375 1.328125,1.234375 1.671875,0 2.25,-3.296875 2.25,-3.8125 z m 0,0"
             id="id-bbe3b82e-e680-42d2-a018-898c7eef7321"
             style="opacity:1;stroke-width:0" />
        </g>
      </g>
    </g>
  </g>
</svg>
