<?xml version="1.0" encoding="UTF-8" standalone="no"?>
<!-- Created with Inkscape (http://www.inkscape.org/) -->

<svg
   width="50.200001mm"
   height="50.200005mm"
   viewBox="0 0 50.2 50.200006"
   version="1.1"
   id="svg5"
   inkscape:version="1.2.2 (b0a8486541, 2022-12-01)"
   sodipodi:docname="symmetry-rotations-shuriken.svg"
   xml:space="preserve"
   xmlns:inkscape="http://www.inkscape.org/namespaces/inkscape"
   xmlns:sodipodi="http://sodipodi.sourceforge.net/DTD/sodipodi-0.dtd"
   xmlns="http://www.w3.org/2000/svg"
   xmlns:svg="http://www.w3.org/2000/svg"><sodipodi:namedview
     id="namedview7"
     pagecolor="#ffffff"
     bordercolor="#000000"
     borderopacity="0.25"
     inkscape:showpageshadow="2"
     inkscape:pageopacity="0.0"
     inkscape:pagecheckerboard="0"
     inkscape:deskcolor="#d1d1d1"
     inkscape:document-units="mm"
     showgrid="false"
     inkscape:zoom="3.0934845"
     inkscape:cx="60.449633"
     inkscape:cy="107.96886"
     inkscape:window-width="1850"
     inkscape:window-height="1011"
     inkscape:window-x="0"
     inkscape:window-y="0"
     inkscape:window-maximized="1"
     inkscape:current-layer="layer1" /><defs
     id="defs2"><marker
       style="overflow:visible"
       id="Arrow3"
       refX="0"
       refY="0"
       orient="auto-start-reverse"
       inkscape:stockid="Arrow3"
       markerWidth="4.2071066"
       markerHeight="7"
       viewBox="0 0 4.2071068 7"
       inkscape:isstock="true"
       inkscape:collect="always"
       preserveAspectRatio="xMidYMid"><path
         style="fill:none;stroke:context-stroke;stroke-width:1;stroke-linecap:round"
         d="M 3,-3 0,0 3,3"
         id="arrow3"
         transform="rotate(180,0.125,0)"
         sodipodi:nodetypes="ccc" /></marker><marker
       style="overflow:visible"
       id="Arrow3_Fnone_S-3b7ec3"
       refX="0"
       refY="0"
       orient="auto-start-reverse"
       inkscape:stockid="Arrow3"
       markerWidth="4.2071066"
       markerHeight="7"
       viewBox="0 0 4.2071068 7"
       inkscape:isstock="true"
       inkscape:collect="always"
       preserveAspectRatio="xMidYMid"><path
         style="fill:none;stroke:#3b7ec3;stroke-width:1;stroke-linecap:round"
         d="M 3,-3 0,0 3,3"
         id="path15705"
         transform="rotate(180,0.125,0)"
         sodipodi:nodetypes="ccc" /></marker><marker
       style="overflow:visible"
       id="Arrow3_Fnone_S-3b7ec3_reversed"
       refX="0"
       refY="0"
       orient="auto"
       inkscape:stockid="Arrow3"
       markerWidth="4.2071066"
       markerHeight="7"
       viewBox="0 0 4.2071068 7"
       inkscape:isstock="true"
       inkscape:collect="always"
       preserveAspectRatio="xMidYMid"><g
         transform="rotate(180,0,0)"
         id="g15710"><path
           style="fill:none;stroke:#3b7ec3;stroke-width:1;stroke-linecap:round"
           d="M 3,-3 0,0 3,3"
           id="path15708"
           transform="rotate(180,0.125,0)"
           sodipodi:nodetypes="ccc" /></g></marker><g
       id="id-45a2e069-0925-4c72-9a05-c3b8cddd304e-7"><g
         id="id-78698bbd-2455-46bc-8eb9-a30a1ce02550-5" /><g
         id="id-c813d254-2f5b-415a-8d86-9439a13e2064-3"><path
           d="m 4.25,-6.046875 c 0.078125,-0.28125 0.109375,-0.34375 0.234375,-0.375 0.09375,-0.015625 0.421875,-0.015625 0.625,-0.015625 1.015625,0 1.453125,0.03125 1.453125,0.8125 0,0.15625 -0.03125,0.546875 -0.078125,0.796875 0,0.046875 -0.03125,0.15625 -0.03125,0.1875 0,0.0625 0.03125,0.140625 0.125,0.140625 0.109375,0 0.125,-0.078125 0.15625,-0.234375 L 7,-6.46875 C 7.015625,-6.515625 7.015625,-6.609375 7.015625,-6.640625 7.015625,-6.75 6.921875,-6.75 6.75,-6.75 H 1.21875 c -0.234375,0 -0.25,0.015625 -0.328125,0.203125 l -0.59375,1.75 c 0,0.015625 -0.0625,0.15625 -0.0625,0.1875 0,0.046875 0.0625,0.109375 0.125,0.109375 0.09375,0 0.109375,-0.0625 0.171875,-0.21875 C 1.0625,-6.265625 1.328125,-6.4375 2.796875,-6.4375 H 3.1875 c 0.28125,0 0.28125,0.03125 0.28125,0.125 0,0.046875 -0.03125,0.171875 -0.046875,0.203125 L 2.09375,-0.78125 C 2,-0.421875 1.96875,-0.3125 0.90625,-0.3125 c -0.359375,0 -0.421875,0 -0.421875,0.1875 C 0.484375,0 0.59375,0 0.65625,0 c 0.265625,0 0.546875,-0.015625 0.8125,-0.015625 0.28125,0 0.578125,-0.015625 0.859375,-0.015625 0.28125,0 0.546875,0.015625 0.828125,0.015625 C 3.4375,-0.015625 3.734375,0 4.015625,0 c 0.09375,0 0.21875,0 0.21875,-0.203125 0,-0.109375 -0.078125,-0.109375 -0.34375,-0.109375 -0.234375,0 -0.375,0 -0.625,-0.015625 -0.296875,-0.03125 -0.375,-0.0625 -0.375,-0.21875 0,-0.015625 0,-0.0625 0.046875,-0.203125 z m 0,0"
           id="id-32536e52-6621-49ae-b17c-433e8fb693dd-5" /></g></g><g
       id="id-59531d2e-5dbf-474c-9ea5-752b104144e2-7"><g
         id="id-746e1365-d6fa-4415-98ad-e2879cfe6f50-0" /><g
         id="id-9472d221-a66e-406a-970b-e47f0b04f316-9"><path
           d="m 6.4375,-6.921875 c 0,-0.03125 -0.03125,-0.109375 -0.125,-0.109375 -0.046875,0 -0.046875,0.015625 -0.171875,0.15625 L 5.65625,-6.3125 c -0.25,-0.46875 -0.765625,-0.71875 -1.421875,-0.71875 -1.265625,0 -2.453125,1.15625 -2.453125,2.359375 0,0.796875 0.515625,1.265625 1.03125,1.40625 l 1.0625,0.28125 c 0.375,0.09375 0.921875,0.25 0.921875,1.0625 0,0.890625 -0.8125,1.828125 -1.796875,1.828125 -0.640625,0 -1.75,-0.21875 -1.75,-1.453125 0,-0.234375 0.0625,-0.484375 0.0625,-0.53125 0.015625,-0.046875 0.015625,-0.0625 0.015625,-0.078125 0,-0.09375 -0.0625,-0.109375 -0.109375,-0.109375 -0.046875,0 -0.078125,0.015625 -0.109375,0.046875 -0.03125,0.03125 -0.59375,2.3125 -0.59375,2.34375 0,0.046875 0.046875,0.09375 0.109375,0.09375 0.046875,0 0.0625,-0.015625 0.1875,-0.15625 L 1.296875,-0.5 c 0.421875,0.578125 1.109375,0.71875 1.6875,0.71875 1.359375,0 2.53125,-1.328125 2.53125,-2.5625 0,-0.6875 -0.34375,-1.03125 -0.484375,-1.171875 C 4.796875,-3.734375 4.640625,-3.78125 3.765625,-4 3.53125,-4.0625 3.1875,-4.171875 3.09375,-4.1875 2.828125,-4.28125 2.484375,-4.5625 2.484375,-5.09375 c 0,-0.8125 0.796875,-1.65625 1.75,-1.65625 0.8125,0 1.421875,0.4375 1.421875,1.546875 0,0.3125 -0.03125,0.5 -0.03125,0.5625 0,0 0,0.09375 0.109375,0.09375 0.109375,0 0.125,-0.03125 0.15625,-0.203125 z m 0,0"
           id="id-2a458f34-13ab-4b6d-bfa7-f16f1619e949-3" /></g><g
         id="id-5ec49300-1959-42dd-b9b5-b791efc9eddc-6" /><g
         id="id-1e71104c-27f1-421d-8cf3-2e42eff9f075-0"><path
           d="m 2.015625,-3.296875 c 0.0625,-0.109375 0.0625,-0.171875 0.0625,-0.21875 0,-0.21875 -0.1875,-0.375 -0.40625,-0.375 -0.265625,0 -0.34375,0.21875 -0.375,0.328125 L 0.375,-0.546875 c -0.015625,0.015625 -0.046875,0.09375 -0.046875,0.109375 0,0.078125 0.21875,0.15625 0.28125,0.15625 0.046875,0 0.046875,-0.015625 0.09375,-0.125 z m 0,0"
           id="id-9eb8b1ad-4469-4909-b1e2-b06d16bd5b3e-6" /></g></g><g
       id="id-f8790d98-62d2-4f1e-a32e-8c3037c93750-2"><g
         id="id-0ab761af-ac18-40ee-9b9c-e85b6067ff7c-3" /><g
         id="id-8bf23c7e-394d-4f86-9b31-9a87a174ec8f-7"><path
           d="m 2.9375,-6.375 c 0,-0.25 0,-0.265625 -0.234375,-0.265625 C 2.078125,-6 1.203125,-6 0.890625,-6 v 0.3125 c 0.203125,0 0.78125,0 1.296875,-0.265625 v 5.171875 c 0,0.359375 -0.03125,0.46875 -0.921875,0.46875 h -0.3125 V 0 c 0.34375,-0.03125 1.203125,-0.03125 1.609375,-0.03125 0.390625,0 1.265625,0 1.609375,0.03125 v -0.3125 h -0.3125 c -0.90625,0 -0.921875,-0.109375 -0.921875,-0.46875 z m 0,0"
           id="id-5d9b2009-635c-4fa0-9d26-a96034ed3bf3-5" /></g><g
         id="id-c48bb27a-1da1-43e1-8b09-5c487e2da182-9"><path
           d="m 1.90625,-0.53125 c 0,-0.28125 -0.234375,-0.53125 -0.515625,-0.53125 -0.296875,0 -0.53125,0.25 -0.53125,0.53125 C 0.859375,-0.234375 1.09375,0 1.390625,0 1.671875,0 1.90625,-0.234375 1.90625,-0.53125 Z m 0,0"
           id="id-d5cf0520-1dba-4699-955c-31401c991980-2" /></g><g
         id="id-3ddd3d3f-6039-4f12-8ab2-e4e8d9066bad-2"><path
           d="m 6.640625,-6.75 h -6.09375 l -0.1875,2.25 h 0.25 C 0.75,-6.109375 0.890625,-6.4375 2.40625,-6.4375 c 0.171875,0 0.4375,0 0.53125,0.015625 0.21875,0.046875 0.21875,0.15625 0.21875,0.375 v 5.265625 c 0,0.328125 0,0.46875 -1.046875,0.46875 H 1.703125 V 0 C 2.109375,-0.03125 3.125,-0.03125 3.59375,-0.03125 c 0.453125,0 1.484375,0 1.890625,0.03125 v -0.3125 h -0.40625 c -1.046875,0 -1.046875,-0.140625 -1.046875,-0.46875 v -5.265625 c 0,-0.1875 0,-0.328125 0.1875,-0.375 0.109375,-0.015625 0.375,-0.015625 0.5625,-0.015625 1.515625,0 1.65625,0.328125 1.796875,1.9375 h 0.25 z m 0,0"
           id="id-bc9f283c-de72-46a2-b9d0-b3f4ce4d774b-8" /></g><g
         id="id-1a6150fc-bf39-42e5-a397-1a41397576f6-9"><path
           d="M 1.671875,-3.3125 V -4.40625 L 0.28125,-4.296875 v 0.3125 c 0.703125,0 0.78125,0.0625 0.78125,0.5625 V -0.75 c 0,0.4375 -0.109375,0.4375 -0.78125,0.4375 V 0 c 0.390625,-0.015625 0.859375,-0.03125 1.140625,-0.03125 0.390625,0 0.859375,0 1.265625,0.03125 V -0.3125 H 2.46875 c -0.734375,0 -0.75,-0.109375 -0.75,-0.46875 V -2.3125 c 0,-0.984375 0.421875,-1.875 1.171875,-1.875 0.0625,0 0.09375,0 0.109375,0.015625 -0.03125,0 -0.234375,0.125 -0.234375,0.390625 0,0.265625 0.21875,0.421875 0.4375,0.421875 0.171875,0 0.421875,-0.125 0.421875,-0.4375 0,-0.3125 -0.3125,-0.609375 -0.734375,-0.609375 -0.734375,0 -1.09375,0.671875 -1.21875,1.09375 z m 0,0"
           id="id-e0389a92-64d6-42e2-a356-9423fc7f31e5-7" /></g><g
         id="id-c26db852-f4fc-4111-b55b-e03ba3c51215-3"><path
           d="m 3.3125,-0.75 c 0.046875,0.390625 0.3125,0.8125 0.78125,0.8125 0.21875,0 0.828125,-0.140625 0.828125,-0.953125 v -0.5625 h -0.25 v 0.5625 c 0,0.578125 -0.25,0.640625 -0.359375,0.640625 -0.328125,0 -0.375,-0.453125 -0.375,-0.5 v -1.984375 c 0,-0.421875 0,-0.8125 -0.359375,-1.1875 C 3.1875,-4.3125 2.6875,-4.46875 2.21875,-4.46875 c -0.828125,0 -1.515625,0.46875 -1.515625,1.125 0,0.296875 0.203125,0.46875 0.46875,0.46875 0.28125,0 0.453125,-0.203125 0.453125,-0.453125 0,-0.125 -0.046875,-0.453125 -0.515625,-0.453125 C 1.390625,-4.140625 1.875,-4.25 2.1875,-4.25 c 0.5,0 1.0625,0.390625 1.0625,1.28125 v 0.359375 c -0.515625,0.03125 -1.203125,0.0625 -1.828125,0.359375 -0.75,0.34375 -1,0.859375 -1,1.296875 0,0.8125 0.96875,1.0625 1.59375,1.0625 0.65625,0 1.109375,-0.40625 1.296875,-0.859375 z M 3.25,-2.390625 v 1 c 0,0.9375 -0.71875,1.28125 -1.171875,1.28125 -0.484375,0 -0.890625,-0.34375 -0.890625,-0.84375 0,-0.546875 0.421875,-1.375 2.0625,-1.4375 z m 0,0"
           id="id-978c0193-7575-401c-8fb3-756a36e271e4-6" /></g><g
         id="id-c12a62c5-612b-41fb-a4a9-32d59330af30-1"><path
           d="M 1.09375,-3.421875 V -0.75 c 0,0.4375 -0.109375,0.4375 -0.78125,0.4375 V 0 c 0.359375,-0.015625 0.859375,-0.03125 1.140625,-0.03125 0.25,0 0.765625,0.015625 1.109375,0.03125 v -0.3125 c -0.671875,0 -0.78125,0 -0.78125,-0.4375 V -2.59375 C 1.78125,-3.625 2.5,-4.1875 3.125,-4.1875 c 0.640625,0 0.75,0.53125 0.75,1.109375 V -0.75 c 0,0.4375 -0.109375,0.4375 -0.78125,0.4375 V 0 c 0.34375,-0.015625 0.859375,-0.03125 1.125,-0.03125 0.25,0 0.78125,0.015625 1.109375,0.03125 v -0.3125 c -0.515625,0 -0.765625,0 -0.765625,-0.296875 v -1.90625 c 0,-0.859375 0,-1.15625 -0.3125,-1.515625 -0.140625,-0.171875 -0.46875,-0.375 -1.046875,-0.375 C 2.46875,-4.40625 2,-3.984375 1.71875,-3.359375 V -4.40625 L 0.3125,-4.296875 v 0.3125 c 0.703125,0 0.78125,0.0625 0.78125,0.5625 z m 0,0"
           id="id-e16118b1-1801-4567-a171-ea860ec25f99-2" /></g><g
         id="id-c4af8aa6-8e57-40d8-a4cc-42a5a0cb9150-9"><path
           d="m 2.078125,-1.9375 c 0.21875,0.046875 1.03125,0.203125 1.03125,0.921875 0,0.5 -0.34375,0.90625 -1.125,0.90625 -0.84375,0 -1.203125,-0.5625 -1.390625,-1.421875 C 0.5625,-1.65625 0.5625,-1.6875 0.453125,-1.6875 c -0.125,0 -0.125,0.0625 -0.125,0.234375 V -0.125 c 0,0.171875 0,0.234375 0.109375,0.234375 0.046875,0 0.0625,-0.015625 0.25,-0.203125 0.015625,-0.015625 0.015625,-0.03125 0.203125,-0.21875 0.4375,0.40625 0.890625,0.421875 1.09375,0.421875 1.140625,0 1.609375,-0.671875 1.609375,-1.390625 0,-0.515625 -0.296875,-0.828125 -0.421875,-0.9375 C 2.84375,-2.546875 2.453125,-2.625 2.03125,-2.703125 1.46875,-2.8125 0.8125,-2.9375 0.8125,-3.515625 c 0,-0.359375 0.25,-0.765625 1.109375,-0.765625 1.09375,0 1.15625,0.90625 1.171875,1.203125 0,0.09375 0.09375,0.09375 0.109375,0.09375 0.140625,0 0.140625,-0.046875 0.140625,-0.234375 v -1.015625 c 0,-0.15625 0,-0.234375 -0.109375,-0.234375 -0.046875,0 -0.078125,0 -0.203125,0.125 -0.03125,0.03125 -0.125,0.125 -0.171875,0.15625 -0.375,-0.28125 -0.78125,-0.28125 -0.9375,-0.28125 -1.21875,0 -1.59375,0.671875 -1.59375,1.234375 0,0.34375 0.15625,0.625 0.421875,0.84375 0.328125,0.25 0.609375,0.3125 1.328125,0.453125 z m 0,0"
           id="id-d3646c8f-3a7a-428f-bbf9-3c6bd68ef00b-3" /></g><g
         id="id-701d3624-d921-4f9e-b3e2-41b137af5cf6-1"><path
           d="M 1.765625,-6.921875 0.328125,-6.8125 V -6.5 c 0.703125,0 0.78125,0.0625 0.78125,0.5625 V -0.75 c 0,0.4375 -0.109375,0.4375 -0.78125,0.4375 V 0 C 0.65625,-0.015625 1.1875,-0.03125 1.4375,-0.03125 c 0.25,0 0.734375,0.015625 1.109375,0.03125 v -0.3125 c -0.671875,0 -0.78125,0 -0.78125,-0.4375 z m 0,0"
           id="id-cd54a0ba-748d-4dce-9c63-b2a75b71fc32-9" /></g><g
         id="id-9a033fb5-e25b-4bc6-ad1c-19684ec17f34-4"><path
           d="m 1.71875,-3.984375 h 1.4375 v -0.3125 H 1.71875 V -6.125 h -0.25 c 0,0.8125 -0.296875,1.875 -1.28125,1.921875 v 0.21875 h 0.84375 v 2.75 c 0,1.21875 0.9375,1.34375 1.296875,1.34375 0.703125,0 0.984375,-0.703125 0.984375,-1.34375 v -0.5625 h -0.25 V -1.25 c 0,0.734375 -0.296875,1.109375 -0.671875,1.109375 -0.671875,0 -0.671875,-0.90625 -0.671875,-1.078125 z m 0,0"
           id="id-f5a1f66a-07a2-4d4c-ae28-4f2e398b41f9-7" /></g><g
         id="id-e6f2943f-5176-48c7-b429-9ff6a9e5aebf-8"><path
           d="M 1.109375,-2.515625 C 1.171875,-4 2.015625,-4.25 2.359375,-4.25 c 1.015625,0 1.125,1.34375 1.125,1.734375 z m 0,0.21875 h 2.78125 c 0.21875,0 0.25,0 0.25,-0.21875 0,-0.984375 -0.546875,-1.953125 -1.78125,-1.953125 -1.15625,0 -2.078125,1.03125 -2.078125,2.28125 0,1.328125 1.046875,2.296875 2.1875,2.296875 C 3.6875,0.109375 4.140625,-1 4.140625,-1.1875 4.140625,-1.28125 4.0625,-1.3125 4,-1.3125 c -0.078125,0 -0.109375,0.0625 -0.125,0.140625 -0.34375,1.03125 -1.25,1.03125 -1.34375,1.03125 -0.5,0 -0.890625,-0.296875 -1.125,-0.671875 -0.296875,-0.46875 -0.296875,-1.125 -0.296875,-1.484375 z m 0,0"
           id="id-79d1a4d5-20cb-4453-a045-933a3e4f2d37-4" /></g></g><g
       id="id-f04b2d0d-7b91-4319-8919-7cec57f1364a"><g
         id="id-9671b98c-8f75-4d71-ad19-496e1dc3fdc8" /><g
         id="id-33f99252-5d46-41fd-bdcc-c36bc8dcd278"><path
           d="M 3.015625,-3.15625 H 4.71875 c 1.40625,0 2.796875,-1.03125 2.796875,-2.140625 0,-0.78125 -0.65625,-1.515625 -1.96875,-1.515625 h -3.21875 c -0.1875,0 -0.296875,0 -0.296875,0.1875 0,0.125 0.078125,0.125 0.28125,0.125 0.125,0 0.3125,0.015625 0.421875,0.015625 0.171875,0.03125 0.21875,0.046875 0.21875,0.171875 0,0.03125 0,0.0625 -0.03125,0.1875 l -1.34375,5.34375 c -0.09375,0.390625 -0.109375,0.46875 -0.90625,0.46875 -0.15625,0 -0.265625,0 -0.265625,0.1875 C 0.40625,0 0.515625,0 0.546875,0 0.828125,0 1.53125,-0.03125 1.8125,-0.03125 c 0.21875,0 0.4375,0.015625 0.640625,0.015625 0.21875,0 0.4375,0.015625 0.640625,0.015625 0.078125,0 0.203125,0 0.203125,-0.203125 0,-0.109375 -0.09375,-0.109375 -0.28125,-0.109375 -0.359375,0 -0.640625,0 -0.640625,-0.171875 0,-0.0625 0.015625,-0.109375 0.03125,-0.171875 z M 3.734375,-6.125 C 3.828125,-6.46875 3.84375,-6.5 4.28125,-6.5 h 0.953125 c 0.828125,0 1.359375,0.265625 1.359375,0.953125 0,0.390625 -0.203125,1.25 -0.59375,1.609375 -0.5,0.453125 -1.09375,0.53125 -1.53125,0.53125 H 3.0625 Z m 0,0"
           id="id-db5a541d-d864-4b2c-8926-7c158e416272" /></g></g><g
       id="id-e44d6ee4-0503-4b15-9262-c324e61faa37"><g
         id="id-2b40917c-bf06-4fa6-bfc0-51989ff1266a" /><g
         id="id-bbaae67a-3e65-4055-a5cd-dcf9dc517f46"><path
           d="M 4.359375,-0.0625 C 5.90625,-0.640625 7.375,-2.421875 7.375,-4.34375 c 0,-1.609375 -1.0625,-2.6875 -2.546875,-2.6875 -2.140625,0 -4.34375,2.265625 -4.34375,4.59375 0,1.65625 1.125,2.65625 2.5625,2.65625 0.25,0 0.578125,-0.046875 0.96875,-0.15625 -0.03125,0.625 -0.03125,0.640625 -0.03125,0.78125 0,0.3125 0,1.09375 0.828125,1.09375 1.171875,0 1.65625,-1.828125 1.65625,-1.9375 0,-0.0625 -0.0625,-0.09375 -0.109375,-0.09375 -0.078125,0 -0.09375,0.046875 -0.125,0.109375 C 6,0.71875 5.421875,0.96875 5.078125,0.96875 c -0.46875,0 -0.609375,-0.265625 -0.71875,-1.03125 z m -1.875,-0.078125 c -0.78125,-0.3125 -1.125,-1.078125 -1.125,-1.984375 0,-0.6875 0.265625,-2.109375 1.015625,-3.171875 C 3.109375,-6.3125 4.046875,-6.78125 4.78125,-6.78125 5.765625,-6.78125 6.5,-6 6.5,-4.671875 c 0,1 -0.515625,3.34375 -2.1875,4.265625 -0.046875,-0.34375 -0.140625,-1.0625 -0.875,-1.0625 -0.53125,0 -1.015625,0.484375 -1.015625,1.015625 0,0.1875 0.0625,0.296875 0.0625,0.3125 z M 3.09375,-0.03125 c -0.140625,0 -0.453125,0 -0.453125,-0.421875 0,-0.40625 0.375,-0.796875 0.796875,-0.796875 0.421875,0 0.609375,0.234375 0.609375,0.84375 0,0.140625 -0.015625,0.15625 -0.109375,0.203125 C 3.671875,-0.09375 3.375,-0.03125 3.09375,-0.03125 Z m 0,0"
           id="id-edb91606-63d2-4ddb-b92a-9e7ee0cdc91e" /></g></g><g
       id="id-c827af6c-8357-4b7b-bd33-798697279e56"><g
         id="id-e553cf7f-d80b-475f-b783-37ecd27e3e44" /><g
         id="id-54c48baa-1cc5-40c8-b672-a95ec783ba03"><path
           d="m 4.40625,-6.953125 c -0.0625,-0.140625 -0.09375,-0.1875 -0.265625,-0.1875 -0.15625,0 -0.1875,0.046875 -0.25,0.1875 l -3.375,6.75 C 0.46875,-0.109375 0.46875,-0.09375 0.46875,-0.078125 0.46875,0 0.53125,0 0.6875,0 h 6.921875 c 0.15625,0 0.21875,0 0.21875,-0.078125 0,-0.015625 0,-0.03125 -0.046875,-0.125 z m -0.578125,0.8125 2.6875,5.390625 h -5.375 z m 0,0"
           id="id-99ff0ae7-da33-4041-8f67-89f61e99a0a3" /></g><g
         id="id-12a9cd66-01a2-4df9-abb1-445b91e9b993"><path
           d="m 6.84375,-3.265625 c 0.15625,0 0.34375,0 0.34375,-0.1875 C 7.1875,-3.65625 7,-3.65625 6.859375,-3.65625 h -5.96875 c -0.140625,0 -0.328125,0 -0.328125,0.203125 0,0.1875 0.1875,0.1875 0.328125,0.1875 z m 0.015625,1.9375 c 0.140625,0 0.328125,0 0.328125,-0.203125 0,-0.1875 -0.1875,-0.1875 -0.34375,-0.1875 H 0.890625 c -0.140625,0 -0.328125,0 -0.328125,0.1875 0,0.203125 0.1875,0.203125 0.328125,0.203125 z m 0,0"
           id="id-0cc39609-9ba0-4a5a-a9eb-b12e1db0e00c" /></g><g
         id="id-ba6c61f7-6738-42d6-91ee-e14282d4326a"><path
           d="m 1.265625,-0.765625 1.0625,-1.03125 c 1.546875,-1.375 2.140625,-1.90625 2.140625,-2.90625 0,-1.140625 -0.890625,-1.9375 -2.109375,-1.9375 -1.125,0 -1.859375,0.921875 -1.859375,1.8125 0,0.546875 0.5,0.546875 0.53125,0.546875 0.171875,0 0.515625,-0.109375 0.515625,-0.53125 0,-0.25 -0.1875,-0.515625 -0.53125,-0.515625 -0.078125,0 -0.09375,0 -0.125,0.015625 0.21875,-0.65625 0.765625,-1.015625 1.34375,-1.015625 0.90625,0 1.328125,0.8125 1.328125,1.625 C 3.5625,-3.90625 3.078125,-3.125 2.515625,-2.5 l -1.90625,2.125 C 0.5,-0.265625 0.5,-0.234375 0.5,0 H 4.203125 L 4.46875,-1.734375 H 4.234375 C 4.171875,-1.4375 4.109375,-1 4,-0.84375 3.9375,-0.765625 3.28125,-0.765625 3.0625,-0.765625 Z m 0,0"
           id="id-54d7fcea-7ab5-479b-83ff-7a31194a7c8f" /></g><g
         id="id-f745a83b-b109-45c5-9b33-b77a73545a77" /><g
         id="id-5175fdf2-0a10-4417-ba84-a5c1751a119f"><path
           d="M 3.328125,-3.015625 C 3.390625,-3.265625 3.625,-4.1875 4.3125,-4.1875 c 0.046875,0 0.296875,0 0.5,0.125 C 4.53125,-4 4.34375,-3.765625 4.34375,-3.515625 c 0,0.15625 0.109375,0.34375 0.375,0.34375 0.21875,0 0.53125,-0.171875 0.53125,-0.578125 0,-0.515625 -0.578125,-0.65625 -0.921875,-0.65625 -0.578125,0 -0.921875,0.53125 -1.046875,0.75 -0.25,-0.65625 -0.78125,-0.75 -1.078125,-0.75 -1.03125,0 -1.609375,1.28125 -1.609375,1.53125 0,0.109375 0.109375,0.109375 0.125,0.109375 0.078125,0 0.109375,-0.03125 0.125,-0.109375 0.34375,-1.0625 1,-1.3125 1.34375,-1.3125 0.1875,0 0.53125,0.09375 0.53125,0.671875 0,0.3125 -0.171875,0.96875 -0.53125,2.375 -0.15625,0.609375 -0.515625,1.03125 -0.953125,1.03125 -0.0625,0 -0.28125,0 -0.5,-0.125 0.25,-0.0625 0.46875,-0.265625 0.46875,-0.546875 0,-0.265625 -0.21875,-0.34375 -0.359375,-0.34375 -0.3125,0 -0.546875,0.25 -0.546875,0.578125 0,0.453125 0.484375,0.65625 0.921875,0.65625 0.671875,0 1.03125,-0.703125 1.046875,-0.75 0.125,0.359375 0.484375,0.75 1.078125,0.75 1.03125,0 1.59375,-1.28125 1.59375,-1.53125 0,-0.109375 -0.078125,-0.109375 -0.109375,-0.109375 -0.09375,0 -0.109375,0.046875 -0.140625,0.109375 -0.328125,1.078125 -1,1.3125 -1.3125,1.3125 -0.390625,0 -0.546875,-0.3125 -0.546875,-0.65625 0,-0.21875 0.046875,-0.4375 0.15625,-0.875 z m 0,0"
           id="id-d2d1588c-f5ca-4ee2-a5f3-f833732a1d2d" /></g><g
         id="id-ee062ff0-2a0a-45be-a888-fcfb16a4f516" /><g
         id="id-8cde79d6-a855-4f31-8754-637b60212329"><path
           d="m 6.5625,-2.296875 c 0.171875,0 0.359375,0 0.359375,-0.203125 0,-0.1875 -0.1875,-0.1875 -0.359375,-0.1875 H 1.171875 c -0.171875,0 -0.34375,0 -0.34375,0.1875 0,0.203125 0.171875,0.203125 0.34375,0.203125 z m 0,0"
           id="id-bc07e1dd-7ce9-4304-8d65-97b7e52a0347" /></g></g><g
       id="id-c8848d42-eee0-4d36-b85f-6ce3c8f2dd59"><g
         id="id-685f4688-084c-4e7a-86b9-4707ee7efa17" /><g
         id="id-8479529b-2aa0-4696-849e-52a665d1e0a8"><path
           d="m 4.40625,-6.953125 c -0.0625,-0.140625 -0.09375,-0.1875 -0.265625,-0.1875 -0.15625,0 -0.1875,0.046875 -0.25,0.1875 l -3.375,6.75 C 0.46875,-0.109375 0.46875,-0.09375 0.46875,-0.078125 0.46875,0 0.53125,0 0.6875,0 h 6.921875 c 0.15625,0 0.21875,0 0.21875,-0.078125 0,-0.015625 0,-0.03125 -0.046875,-0.125 z m -0.578125,0.8125 2.6875,5.390625 h -5.375 z m 0,0"
           id="id-b52544d2-53b2-4d45-9160-e1e9fd14973d" /></g><g
         id="id-574e48f9-8c40-4296-ad07-902fd8602429"><path
           d="m 6.84375,-3.265625 c 0.15625,0 0.34375,0 0.34375,-0.1875 C 7.1875,-3.65625 7,-3.65625 6.859375,-3.65625 h -5.96875 c -0.140625,0 -0.328125,0 -0.328125,0.203125 0,0.1875 0.1875,0.1875 0.328125,0.1875 z m 0.015625,1.9375 c 0.140625,0 0.328125,0 0.328125,-0.203125 0,-0.1875 -0.1875,-0.1875 -0.34375,-0.1875 H 0.890625 c -0.140625,0 -0.328125,0 -0.328125,0.1875 0,0.203125 0.1875,0.203125 0.328125,0.203125 z m 0,0"
           id="id-acd52786-e7b6-4df4-af14-91872df2cfe7" /></g><g
         id="id-56f1a358-aada-45eb-9ebf-70806e8bb522"><path
           d="m 4.46875,-2 c 0,-1.1875 -0.8125,-2.1875 -1.890625,-2.1875 -0.46875,0 -0.90625,0.15625 -1.265625,0.515625 V -5.625 c 0.203125,0.0625 0.53125,0.125 0.84375,0.125 1.234375,0 1.9375,-0.90625 1.9375,-1.03125 0,-0.0625 -0.03125,-0.109375 -0.109375,-0.109375 0,0 -0.03125,0 -0.078125,0.03125 C 3.703125,-6.515625 3.21875,-6.3125 2.546875,-6.3125 2.15625,-6.3125 1.6875,-6.390625 1.21875,-6.59375 1.140625,-6.625 1.125,-6.625 1.109375,-6.625 1,-6.625 1,-6.546875 1,-6.390625 V -3.4375 c 0,0.171875 0,0.25 0.140625,0.25 0.078125,0 0.09375,-0.015625 0.140625,-0.078125 C 1.390625,-3.421875 1.75,-3.96875 2.5625,-3.96875 c 0.515625,0 0.765625,0.453125 0.84375,0.640625 0.15625,0.375 0.1875,0.75 0.1875,1.25 0,0.359375 0,0.953125 -0.25,1.375 C 3.109375,-0.3125 2.734375,-0.0625 2.28125,-0.0625 c -0.71875,0 -1.296875,-0.53125 -1.46875,-1.109375 0.03125,0 0.0625,0.015625 0.171875,0.015625 0.328125,0 0.5,-0.25 0.5,-0.484375 0,-0.25 -0.171875,-0.5 -0.5,-0.5 C 0.84375,-2.140625 0.5,-2.0625 0.5,-1.609375 0.5,-0.75 1.1875,0.21875 2.296875,0.21875 3.453125,0.21875 4.46875,-0.734375 4.46875,-2 Z m 0,0"
           id="id-8c0ebe08-bca6-45dd-b3c5-93589ef2b889" /></g><g
         id="id-558a8c90-4cc6-4d27-8c98-bf58c9cd0fd2" /><g
         id="id-a261d8d7-1d81-4ead-83dc-532332baba70"><path
           d="m 4.84375,-3.796875 c 0.046875,-0.140625 0.046875,-0.15625 0.046875,-0.234375 0,-0.171875 -0.140625,-0.265625 -0.296875,-0.265625 -0.09375,0 -0.25,0.0625 -0.34375,0.203125 -0.015625,0.0625 -0.109375,0.359375 -0.140625,0.546875 -0.078125,0.25 -0.140625,0.53125 -0.203125,0.796875 l -0.453125,1.796875 c -0.03125,0.140625 -0.46875,0.84375 -1.125,0.84375 -0.5,0 -0.609375,-0.4375 -0.609375,-0.8125 C 1.71875,-1.375 1.890625,-2 2.21875,-2.875 2.375,-3.28125 2.421875,-3.390625 2.421875,-3.59375 c 0,-0.4375 -0.3125,-0.8125 -0.8125,-0.8125 -0.953125,0 -1.3125,1.453125 -1.3125,1.53125 0,0.109375 0.09375,0.109375 0.109375,0.109375 0.109375,0 0.109375,-0.03125 0.15625,-0.1875 0.28125,-0.9375 0.671875,-1.234375 1.015625,-1.234375 0.078125,0 0.25,0 0.25,0.3125 0,0.25 -0.109375,0.515625 -0.171875,0.703125 -0.40625,1.0625 -0.578125,1.625 -0.578125,2.09375 0,0.890625 0.625,1.1875 1.21875,1.1875 0.390625,0 0.71875,-0.171875 1,-0.453125 -0.125,0.515625 -0.25,1.015625 -0.640625,1.546875 -0.265625,0.328125 -0.640625,0.625 -1.09375,0.625 -0.140625,0 -0.59375,-0.03125 -0.765625,-0.421875 0.15625,0 0.296875,0 0.421875,-0.125 C 1.328125,1.203125 1.421875,1.0625 1.421875,0.875 1.421875,0.5625 1.15625,0.53125 1.0625,0.53125 0.828125,0.53125 0.5,0.6875 0.5,1.171875 c 0,0.5 0.4375,0.875 1.0625,0.875 1.015625,0 2.046875,-0.90625 2.328125,-2.03125 z m 0,0"
           id="id-fa03a1f6-b5e3-4d3a-ba14-ec442c80c31b" /></g></g><g
       id="g145811"><g
         id="g145805" /><g
         id="g145809"><path
           d="M 3.015625,-3.15625 H 4.71875 c 1.40625,0 2.796875,-1.03125 2.796875,-2.140625 0,-0.78125 -0.65625,-1.515625 -1.96875,-1.515625 h -3.21875 c -0.1875,0 -0.296875,0 -0.296875,0.1875 0,0.125 0.078125,0.125 0.28125,0.125 0.125,0 0.3125,0.015625 0.421875,0.015625 0.171875,0.03125 0.21875,0.046875 0.21875,0.171875 0,0.03125 0,0.0625 -0.03125,0.1875 l -1.34375,5.34375 c -0.09375,0.390625 -0.109375,0.46875 -0.90625,0.46875 -0.15625,0 -0.265625,0 -0.265625,0.1875 C 0.40625,0 0.515625,0 0.546875,0 0.828125,0 1.53125,-0.03125 1.8125,-0.03125 c 0.21875,0 0.4375,0.015625 0.640625,0.015625 0.21875,0 0.4375,0.015625 0.640625,0.015625 0.078125,0 0.203125,0 0.203125,-0.203125 0,-0.109375 -0.09375,-0.109375 -0.28125,-0.109375 -0.359375,0 -0.640625,0 -0.640625,-0.171875 0,-0.0625 0.015625,-0.109375 0.03125,-0.171875 z M 3.734375,-6.125 C 3.828125,-6.46875 3.84375,-6.5 4.28125,-6.5 h 0.953125 c 0.828125,0 1.359375,0.265625 1.359375,0.953125 0,0.390625 -0.203125,1.25 -0.59375,1.609375 -0.5,0.453125 -1.09375,0.53125 -1.53125,0.53125 H 3.0625 Z m 0,0"
           id="path145807" /></g></g><g
       id="g145825"><g
         id="g145819" /><g
         id="g145823"><path
           d="M 4.359375,-0.0625 C 5.90625,-0.640625 7.375,-2.421875 7.375,-4.34375 c 0,-1.609375 -1.0625,-2.6875 -2.546875,-2.6875 -2.140625,0 -4.34375,2.265625 -4.34375,4.59375 0,1.65625 1.125,2.65625 2.5625,2.65625 0.25,0 0.578125,-0.046875 0.96875,-0.15625 -0.03125,0.625 -0.03125,0.640625 -0.03125,0.78125 0,0.3125 0,1.09375 0.828125,1.09375 1.171875,0 1.65625,-1.828125 1.65625,-1.9375 0,-0.0625 -0.0625,-0.09375 -0.109375,-0.09375 -0.078125,0 -0.09375,0.046875 -0.125,0.109375 C 6,0.71875 5.421875,0.96875 5.078125,0.96875 c -0.46875,0 -0.609375,-0.265625 -0.71875,-1.03125 z m -1.875,-0.078125 c -0.78125,-0.3125 -1.125,-1.078125 -1.125,-1.984375 0,-0.6875 0.265625,-2.109375 1.015625,-3.171875 C 3.109375,-6.3125 4.046875,-6.78125 4.78125,-6.78125 5.765625,-6.78125 6.5,-6 6.5,-4.671875 c 0,1 -0.515625,3.34375 -2.1875,4.265625 -0.046875,-0.34375 -0.140625,-1.0625 -0.875,-1.0625 -0.53125,0 -1.015625,0.484375 -1.015625,1.015625 0,0.1875 0.0625,0.296875 0.0625,0.3125 z M 3.09375,-0.03125 c -0.140625,0 -0.453125,0 -0.453125,-0.421875 0,-0.40625 0.375,-0.796875 0.796875,-0.796875 0.421875,0 0.609375,0.234375 0.609375,0.84375 0,0.140625 -0.015625,0.15625 -0.109375,0.203125 C 3.671875,-0.09375 3.375,-0.03125 3.09375,-0.03125 Z m 0,0"
           id="path145821" /></g></g><g
       id="g145858"><g
         id="g145832" /><g
         id="g145836"><path
           d="m 4.40625,-6.953125 c -0.0625,-0.140625 -0.09375,-0.1875 -0.265625,-0.1875 -0.15625,0 -0.1875,0.046875 -0.25,0.1875 l -3.375,6.75 C 0.46875,-0.109375 0.46875,-0.09375 0.46875,-0.078125 0.46875,0 0.53125,0 0.6875,0 h 6.921875 c 0.15625,0 0.21875,0 0.21875,-0.078125 0,-0.015625 0,-0.03125 -0.046875,-0.125 z m -0.578125,0.8125 2.6875,5.390625 h -5.375 z m 0,0"
           id="path145834" /></g><g
         id="g145840"><path
           d="m 6.84375,-3.265625 c 0.15625,0 0.34375,0 0.34375,-0.1875 C 7.1875,-3.65625 7,-3.65625 6.859375,-3.65625 h -5.96875 c -0.140625,0 -0.328125,0 -0.328125,0.203125 0,0.1875 0.1875,0.1875 0.328125,0.1875 z m 0.015625,1.9375 c 0.140625,0 0.328125,0 0.328125,-0.203125 0,-0.1875 -0.1875,-0.1875 -0.34375,-0.1875 H 0.890625 c -0.140625,0 -0.328125,0 -0.328125,0.1875 0,0.203125 0.1875,0.203125 0.328125,0.203125 z m 0,0"
           id="path145838" /></g><g
         id="g145844"><path
           d="m 1.265625,-0.765625 1.0625,-1.03125 c 1.546875,-1.375 2.140625,-1.90625 2.140625,-2.90625 0,-1.140625 -0.890625,-1.9375 -2.109375,-1.9375 -1.125,0 -1.859375,0.921875 -1.859375,1.8125 0,0.546875 0.5,0.546875 0.53125,0.546875 0.171875,0 0.515625,-0.109375 0.515625,-0.53125 0,-0.25 -0.1875,-0.515625 -0.53125,-0.515625 -0.078125,0 -0.09375,0 -0.125,0.015625 0.21875,-0.65625 0.765625,-1.015625 1.34375,-1.015625 0.90625,0 1.328125,0.8125 1.328125,1.625 C 3.5625,-3.90625 3.078125,-3.125 2.515625,-2.5 l -1.90625,2.125 C 0.5,-0.265625 0.5,-0.234375 0.5,0 H 4.203125 L 4.46875,-1.734375 H 4.234375 C 4.171875,-1.4375 4.109375,-1 4,-0.84375 3.9375,-0.765625 3.28125,-0.765625 3.0625,-0.765625 Z m 0,0"
           id="path145842" /></g><g
         id="g145846" /><g
         id="g145850"><path
           d="M 3.328125,-3.015625 C 3.390625,-3.265625 3.625,-4.1875 4.3125,-4.1875 c 0.046875,0 0.296875,0 0.5,0.125 C 4.53125,-4 4.34375,-3.765625 4.34375,-3.515625 c 0,0.15625 0.109375,0.34375 0.375,0.34375 0.21875,0 0.53125,-0.171875 0.53125,-0.578125 0,-0.515625 -0.578125,-0.65625 -0.921875,-0.65625 -0.578125,0 -0.921875,0.53125 -1.046875,0.75 -0.25,-0.65625 -0.78125,-0.75 -1.078125,-0.75 -1.03125,0 -1.609375,1.28125 -1.609375,1.53125 0,0.109375 0.109375,0.109375 0.125,0.109375 0.078125,0 0.109375,-0.03125 0.125,-0.109375 0.34375,-1.0625 1,-1.3125 1.34375,-1.3125 0.1875,0 0.53125,0.09375 0.53125,0.671875 0,0.3125 -0.171875,0.96875 -0.53125,2.375 -0.15625,0.609375 -0.515625,1.03125 -0.953125,1.03125 -0.0625,0 -0.28125,0 -0.5,-0.125 0.25,-0.0625 0.46875,-0.265625 0.46875,-0.546875 0,-0.265625 -0.21875,-0.34375 -0.359375,-0.34375 -0.3125,0 -0.546875,0.25 -0.546875,0.578125 0,0.453125 0.484375,0.65625 0.921875,0.65625 0.671875,0 1.03125,-0.703125 1.046875,-0.75 0.125,0.359375 0.484375,0.75 1.078125,0.75 1.03125,0 1.59375,-1.28125 1.59375,-1.53125 0,-0.109375 -0.078125,-0.109375 -0.109375,-0.109375 -0.09375,0 -0.109375,0.046875 -0.140625,0.109375 -0.328125,1.078125 -1,1.3125 -1.3125,1.3125 -0.390625,0 -0.546875,-0.3125 -0.546875,-0.65625 0,-0.21875 0.046875,-0.4375 0.15625,-0.875 z m 0,0"
           id="path145848" /></g><g
         id="g145852" /><g
         id="g145856"><path
           d="m 6.5625,-2.296875 c 0.171875,0 0.359375,0 0.359375,-0.203125 0,-0.1875 -0.1875,-0.1875 -0.359375,-0.1875 H 1.171875 c -0.171875,0 -0.34375,0 -0.34375,0.1875 0,0.203125 0.171875,0.203125 0.34375,0.203125 z m 0,0"
           id="path145854" /></g></g><g
       id="g145897"><g
         id="g145877" /><g
         id="g145881"><path
           d="m 4.40625,-6.953125 c -0.0625,-0.140625 -0.09375,-0.1875 -0.265625,-0.1875 -0.15625,0 -0.1875,0.046875 -0.25,0.1875 l -3.375,6.75 C 0.46875,-0.109375 0.46875,-0.09375 0.46875,-0.078125 0.46875,0 0.53125,0 0.6875,0 h 6.921875 c 0.15625,0 0.21875,0 0.21875,-0.078125 0,-0.015625 0,-0.03125 -0.046875,-0.125 z m -0.578125,0.8125 2.6875,5.390625 h -5.375 z m 0,0"
           id="path145879" /></g><g
         id="g145885"><path
           d="m 6.84375,-3.265625 c 0.15625,0 0.34375,0 0.34375,-0.1875 C 7.1875,-3.65625 7,-3.65625 6.859375,-3.65625 h -5.96875 c -0.140625,0 -0.328125,0 -0.328125,0.203125 0,0.1875 0.1875,0.1875 0.328125,0.1875 z m 0.015625,1.9375 c 0.140625,0 0.328125,0 0.328125,-0.203125 0,-0.1875 -0.1875,-0.1875 -0.34375,-0.1875 H 0.890625 c -0.140625,0 -0.328125,0 -0.328125,0.1875 0,0.203125 0.1875,0.203125 0.328125,0.203125 z m 0,0"
           id="path145883" /></g><g
         id="g145889"><path
           d="m 4.46875,-2 c 0,-1.1875 -0.8125,-2.1875 -1.890625,-2.1875 -0.46875,0 -0.90625,0.15625 -1.265625,0.515625 V -5.625 c 0.203125,0.0625 0.53125,0.125 0.84375,0.125 1.234375,0 1.9375,-0.90625 1.9375,-1.03125 0,-0.0625 -0.03125,-0.109375 -0.109375,-0.109375 0,0 -0.03125,0 -0.078125,0.03125 C 3.703125,-6.515625 3.21875,-6.3125 2.546875,-6.3125 2.15625,-6.3125 1.6875,-6.390625 1.21875,-6.59375 1.140625,-6.625 1.125,-6.625 1.109375,-6.625 1,-6.625 1,-6.546875 1,-6.390625 V -3.4375 c 0,0.171875 0,0.25 0.140625,0.25 0.078125,0 0.09375,-0.015625 0.140625,-0.078125 C 1.390625,-3.421875 1.75,-3.96875 2.5625,-3.96875 c 0.515625,0 0.765625,0.453125 0.84375,0.640625 0.15625,0.375 0.1875,0.75 0.1875,1.25 0,0.359375 0,0.953125 -0.25,1.375 C 3.109375,-0.3125 2.734375,-0.0625 2.28125,-0.0625 c -0.71875,0 -1.296875,-0.53125 -1.46875,-1.109375 0.03125,0 0.0625,0.015625 0.171875,0.015625 0.328125,0 0.5,-0.25 0.5,-0.484375 0,-0.25 -0.171875,-0.5 -0.5,-0.5 C 0.84375,-2.140625 0.5,-2.0625 0.5,-1.609375 0.5,-0.75 1.1875,0.21875 2.296875,0.21875 3.453125,0.21875 4.46875,-0.734375 4.46875,-2 Z m 0,0"
           id="path145887" /></g><g
         id="g145891" /><g
         id="g145895"><path
           d="m 4.84375,-3.796875 c 0.046875,-0.140625 0.046875,-0.15625 0.046875,-0.234375 0,-0.171875 -0.140625,-0.265625 -0.296875,-0.265625 -0.09375,0 -0.25,0.0625 -0.34375,0.203125 -0.015625,0.0625 -0.109375,0.359375 -0.140625,0.546875 -0.078125,0.25 -0.140625,0.53125 -0.203125,0.796875 l -0.453125,1.796875 c -0.03125,0.140625 -0.46875,0.84375 -1.125,0.84375 -0.5,0 -0.609375,-0.4375 -0.609375,-0.8125 C 1.71875,-1.375 1.890625,-2 2.21875,-2.875 2.375,-3.28125 2.421875,-3.390625 2.421875,-3.59375 c 0,-0.4375 -0.3125,-0.8125 -0.8125,-0.8125 -0.953125,0 -1.3125,1.453125 -1.3125,1.53125 0,0.109375 0.09375,0.109375 0.109375,0.109375 0.109375,0 0.109375,-0.03125 0.15625,-0.1875 0.28125,-0.9375 0.671875,-1.234375 1.015625,-1.234375 0.078125,0 0.25,0 0.25,0.3125 0,0.25 -0.109375,0.515625 -0.171875,0.703125 -0.40625,1.0625 -0.578125,1.625 -0.578125,2.09375 0,0.890625 0.625,1.1875 1.21875,1.1875 0.390625,0 0.71875,-0.171875 1,-0.453125 -0.125,0.515625 -0.25,1.015625 -0.640625,1.546875 -0.265625,0.328125 -0.640625,0.625 -1.09375,0.625 -0.140625,0 -0.59375,-0.03125 -0.765625,-0.421875 0.15625,0 0.296875,0 0.421875,-0.125 C 1.328125,1.203125 1.421875,1.0625 1.421875,0.875 1.421875,0.5625 1.15625,0.53125 1.0625,0.53125 0.828125,0.53125 0.5,0.6875 0.5,1.171875 c 0,0.5 0.4375,0.875 1.0625,0.875 1.015625,0 2.046875,-0.90625 2.328125,-2.03125 z m 0,0"
           id="path145893" /></g></g><g
       id="id-e5e987b2-cc61-4451-a882-f47d3d185243"><g
         id="id-7600f307-37fb-4e41-b24a-2733cfb2936c" /><g
         id="id-54c38fdd-ba98-45dc-9c82-5ae83b0b27b1"><path
           d="m 5.359375,-5.9375 c -0.140625,0.140625 -0.46875,0.421875 -0.46875,0.59375 0,0.09375 0.09375,0.203125 0.1875,0.203125 0.09375,0 0.140625,-0.078125 0.203125,-0.140625 C 5.390625,-5.421875 5.625,-5.703125 6.0625,-5.921875 6.125,-5.96875 6.234375,-6.015625 6.234375,-6.125 6.234375,-6.234375 6.15625,-6.28125 6.09375,-6.328125 5.875,-6.484375 5.765625,-6.65625 5.6875,-6.890625 5.65625,-6.984375 5.625,-7.125 5.484375,-7.125 c -0.140625,0 -0.203125,0.140625 -0.203125,0.21875 0,0.046875 0.078125,0.359375 0.234375,0.578125 H 2.15625 c -0.15625,0 -0.34375,0 -0.34375,0.203125 0,0.1875 0.1875,0.1875 0.34375,0.1875 z m 0,0"
           id="id-0121b3b1-c96a-4026-a14e-5745e9d10514" /></g><g
         id="id-9069eca9-9c08-497c-b89e-63581e4a70bf"><path
           d="m 4.671875,-3.703125 c 0,-0.546875 -0.265625,-0.703125 -0.4375,-0.703125 -0.25,0 -0.5,0.265625 -0.5,0.484375 0,0.125 0.046875,0.1875 0.15625,0.296875 0.21875,0.203125 0.34375,0.453125 0.34375,0.8125 0,0.421875 -0.609375,2.703125 -1.765625,2.703125 -0.515625,0 -0.75,-0.34375 -0.75,-0.875 0,-0.546875 0.28125,-1.28125 0.578125,-2.109375 0.078125,-0.171875 0.125,-0.3125 0.125,-0.5 0,-0.4375 -0.3125,-0.8125 -0.8125,-0.8125 -0.9375,0 -1.3125,1.453125 -1.3125,1.53125 0,0.109375 0.09375,0.109375 0.109375,0.109375 0.109375,0 0.109375,-0.03125 0.15625,-0.1875 0.296875,-1 0.71875,-1.234375 1.015625,-1.234375 0.078125,0 0.25,0 0.25,0.3125 0,0.25 -0.109375,0.53125 -0.171875,0.703125 -0.4375,1.15625 -0.5625,1.609375 -0.5625,2.046875 0,1.078125 0.875,1.234375 1.328125,1.234375 1.671875,0 2.25,-3.296875 2.25,-3.8125 z m 0,0"
           id="id-34589ec4-9c0d-4c1a-a798-88e53b793fbd" /></g><g
         id="id-43a88c61-672e-484c-8f6c-d1b598ad705b"><path
           d="m 2.03125,-0.015625 c 0,-0.65625 -0.25,-1.046875 -0.640625,-1.046875 -0.328125,0 -0.53125,0.25 -0.53125,0.53125 C 0.859375,-0.265625 1.0625,0 1.390625,0 1.5,0 1.640625,-0.046875 1.734375,-0.125 1.765625,-0.15625 1.78125,-0.15625 1.78125,-0.15625 c 0.015625,0 0.015625,0 0.015625,0.140625 0,0.75 -0.34375,1.34375 -0.671875,1.671875 -0.109375,0.109375 -0.109375,0.125 -0.109375,0.15625 0,0.078125 0.046875,0.109375 0.09375,0.109375 0.109375,0 0.921875,-0.765625 0.921875,-1.9375 z m 0,0"
           id="id-9080d9fa-3371-4f72-b044-42f9b47405b7" /></g><g
         id="id-8caea868-2be2-455b-8bea-4fe3adaf90a8" /><g
         id="id-be69565b-9627-4c51-ab28-b62475cdbffe"><path
           d="m 6.84375,-3.265625 c 0.15625,0 0.34375,0 0.34375,-0.1875 C 7.1875,-3.65625 7,-3.65625 6.859375,-3.65625 h -5.96875 c -0.140625,0 -0.328125,0 -0.328125,0.203125 0,0.1875 0.1875,0.1875 0.328125,0.1875 z m 0.015625,1.9375 c 0.140625,0 0.328125,0 0.328125,-0.203125 0,-0.1875 -0.1875,-0.1875 -0.34375,-0.1875 H 0.890625 c -0.140625,0 -0.328125,0 -0.328125,0.1875 0,0.203125 0.1875,0.203125 0.328125,0.203125 z m 0,0"
           id="id-b7e9c776-e15e-4743-b8fe-1df61a2a4d13" /></g><g
         id="id-ad78e543-7f25-4fa1-8662-45ccc65bf281"><path
           d="m 3.296875,2.390625 c 0,-0.03125 0,-0.046875 -0.171875,-0.21875 C 1.890625,0.921875 1.5625,-0.96875 1.5625,-2.5 c 0,-1.734375 0.375,-3.46875 1.609375,-4.703125 0.125,-0.125 0.125,-0.140625 0.125,-0.171875 0,-0.078125 -0.03125,-0.109375 -0.09375,-0.109375 -0.109375,0 -1,0.6875 -1.59375,1.953125 -0.5,1.09375 -0.625,2.203125 -0.625,3.03125 0,0.78125 0.109375,1.984375 0.65625,3.125 C 2.25,1.84375 3.09375,2.5 3.203125,2.5 c 0.0625,0 0.09375,-0.03125 0.09375,-0.109375 z m 0,0"
           id="id-7b191564-bab3-453f-9cb0-b95445f0edd1" /></g><g
         id="id-e61dd215-4697-4b72-b4c2-0e247234958a"><path
           d="m 1.265625,-0.765625 1.0625,-1.03125 c 1.546875,-1.375 2.140625,-1.90625 2.140625,-2.90625 0,-1.140625 -0.890625,-1.9375 -2.109375,-1.9375 -1.125,0 -1.859375,0.921875 -1.859375,1.8125 0,0.546875 0.5,0.546875 0.53125,0.546875 0.171875,0 0.515625,-0.109375 0.515625,-0.53125 0,-0.25 -0.1875,-0.515625 -0.53125,-0.515625 -0.078125,0 -0.09375,0 -0.125,0.015625 0.21875,-0.65625 0.765625,-1.015625 1.34375,-1.015625 0.90625,0 1.328125,0.8125 1.328125,1.625 C 3.5625,-3.90625 3.078125,-3.125 2.515625,-2.5 l -1.90625,2.125 C 0.5,-0.265625 0.5,-0.234375 0.5,0 H 4.203125 L 4.46875,-1.734375 H 4.234375 C 4.171875,-1.4375 4.109375,-1 4,-0.84375 3.9375,-0.765625 3.28125,-0.765625 3.0625,-0.765625 Z m 0,0"
           id="id-903da3ee-83cc-47c4-9431-afa52cd81bb6" /></g><g
         id="id-ab40960b-9fa0-4cd4-90d6-265b858eea66"><path
           d="m 4.46875,-2 c 0,-1.1875 -0.8125,-2.1875 -1.890625,-2.1875 -0.46875,0 -0.90625,0.15625 -1.265625,0.515625 V -5.625 c 0.203125,0.0625 0.53125,0.125 0.84375,0.125 1.234375,0 1.9375,-0.90625 1.9375,-1.03125 0,-0.0625 -0.03125,-0.109375 -0.109375,-0.109375 0,0 -0.03125,0 -0.078125,0.03125 C 3.703125,-6.515625 3.21875,-6.3125 2.546875,-6.3125 2.15625,-6.3125 1.6875,-6.390625 1.21875,-6.59375 1.140625,-6.625 1.125,-6.625 1.109375,-6.625 1,-6.625 1,-6.546875 1,-6.390625 V -3.4375 c 0,0.171875 0,0.25 0.140625,0.25 0.078125,0 0.09375,-0.015625 0.140625,-0.078125 C 1.390625,-3.421875 1.75,-3.96875 2.5625,-3.96875 c 0.515625,0 0.765625,0.453125 0.84375,0.640625 0.15625,0.375 0.1875,0.75 0.1875,1.25 0,0.359375 0,0.953125 -0.25,1.375 C 3.109375,-0.3125 2.734375,-0.0625 2.28125,-0.0625 c -0.71875,0 -1.296875,-0.53125 -1.46875,-1.109375 0.03125,0 0.0625,0.015625 0.171875,0.015625 0.328125,0 0.5,-0.25 0.5,-0.484375 0,-0.25 -0.171875,-0.5 -0.5,-0.5 C 0.84375,-2.140625 0.5,-2.0625 0.5,-1.609375 0.5,-0.75 1.1875,0.21875 2.296875,0.21875 3.453125,0.21875 4.46875,-0.734375 4.46875,-2 Z m 0,0"
           id="id-4f9d6e3f-e69e-475b-8226-cb9c4894101c" /></g><g
         id="id-de6bbdbb-7e4f-4d80-93f5-cca1981c4bc8"><path
           d="m 2.875,-2.5 c 0,-0.765625 -0.109375,-1.96875 -0.65625,-3.109375 -0.59375,-1.21875 -1.453125,-1.875 -1.546875,-1.875 -0.0625,0 -0.109375,0.046875 -0.109375,0.109375 0,0.03125 0,0.046875 0.1875,0.234375 0.984375,0.984375 1.546875,2.5625 1.546875,4.640625 0,1.71875 -0.359375,3.46875 -1.59375,4.71875 C 0.5625,2.34375 0.5625,2.359375 0.5625,2.390625 0.5625,2.453125 0.609375,2.5 0.671875,2.5 0.765625,2.5 1.671875,1.8125 2.25,0.546875 2.765625,-0.546875 2.875,-1.65625 2.875,-2.5 Z m 0,0"
           id="id-326a1146-f667-4b88-bab1-02a8473670d5" /></g><g
         id="id-6d6764dc-dc41-4b4e-899b-bf127aaf235e" /><g
         id="id-92bac5f1-f00c-4ea3-81b9-65e571c6bf80"><path
           d="m 6.5625,-2.296875 c 0.171875,0 0.359375,0 0.359375,-0.203125 0,-0.1875 -0.1875,-0.1875 -0.359375,-0.1875 H 1.171875 c -0.171875,0 -0.34375,0 -0.34375,0.1875 0,0.203125 0.171875,0.203125 0.34375,0.203125 z m 0,0"
           id="id-d84cb823-99b9-4f0e-846f-8044027e6805" /></g></g><g
       id="id-aa2d84a5-49fc-404e-b42a-4a3b28052342-3">
      <g
   id="id-f1b65e78-5e85-4188-ad8b-55de2e1365a2-3" />
      <g
   id="id-22587329-96a0-45dc-b975-f0b2629f5aba-8">
        <path
   d="M 3.015625,-3.15625 H 4.71875 c 1.40625,0 2.796875,-1.03125 2.796875,-2.140625 0,-0.78125 -0.65625,-1.515625 -1.96875,-1.515625 h -3.21875 c -0.1875,0 -0.296875,0 -0.296875,0.1875 0,0.125 0.078125,0.125 0.28125,0.125 0.125,0 0.3125,0.015625 0.421875,0.015625 0.171875,0.03125 0.21875,0.046875 0.21875,0.171875 0,0.03125 0,0.0625 -0.03125,0.1875 l -1.34375,5.34375 c -0.09375,0.390625 -0.109375,0.46875 -0.90625,0.46875 -0.15625,0 -0.265625,0 -0.265625,0.1875 C 0.40625,0 0.515625,0 0.546875,0 0.828125,0 1.53125,-0.03125 1.8125,-0.03125 c 0.21875,0 0.4375,0.015625 0.640625,0.015625 0.21875,0 0.4375,0.015625 0.640625,0.015625 0.078125,0 0.203125,0 0.203125,-0.203125 0,-0.109375 -0.09375,-0.109375 -0.28125,-0.109375 -0.359375,0 -0.640625,0 -0.640625,-0.171875 0,-0.0625 0.015625,-0.109375 0.03125,-0.171875 z M 3.734375,-6.125 C 3.828125,-6.46875 3.84375,-6.5 4.28125,-6.5 h 0.953125 c 0.828125,0 1.359375,0.265625 1.359375,0.953125 0,0.390625 -0.203125,1.25 -0.59375,1.609375 -0.5,0.453125 -1.09375,0.53125 -1.53125,0.53125 H 3.0625 Z m 0,0"
   id="id-311b6cce-30d2-4214-abba-eb925c8fac17-6" />
      </g>
    </g></defs><g
     inkscape:label="Layer 1"
     inkscape:groupmode="layer"
     id="layer1"
     transform="translate(-42.2628, -73.9001)"><g
       id="g143447"><g
         id="g142254"><rect
           style="opacity:1;fill:none;fill-opacity:0.584314;stroke:#808080;stroke-width:0.265999;stroke-linecap:round;stroke-opacity:0.999986"
           id="rect130002"
           width="5"
           height="5"
           x="72.39576"
           y="84.033134" /><rect
           style="opacity:1;fill:none;fill-opacity:0.584314;stroke:#808080;stroke-width:0.265999;stroke-linecap:round;stroke-opacity:0.999986"
           id="rect131056"
           width="5"
           height="5"
           x="77.39576"
           y="84.033134" /><rect
           style="opacity:1;fill:none;fill-opacity:0.584314;stroke:#808080;stroke-width:0.265999;stroke-linecap:round;stroke-opacity:0.999986"
           id="rect131058"
           width="5"
           height="5"
           x="72.39576"
           y="89.033134" /><rect
           style="opacity:1;fill:none;fill-opacity:0.584314;stroke:#808080;stroke-width:0.265999;stroke-linecap:round;stroke-opacity:0.999986"
           id="rect131060"
           width="5"
           height="5"
           x="77.39576"
           y="89.033134" /><rect
           style="opacity:1;fill:none;fill-opacity:0.584314;stroke:#808080;stroke-width:0.265999;stroke-linecap:round;stroke-opacity:0.999986"
           id="rect131062"
           width="5"
           height="5"
           x="82.39576"
           y="84.033134" /><rect
           style="opacity:1;fill:none;fill-opacity:0.584314;stroke:#808080;stroke-width:0.265999;stroke-linecap:round;stroke-opacity:0.999986"
           id="rect131064"
           width="5"
           height="5"
           x="87.39576"
           y="84.033134" /><rect
           style="opacity:1;fill:none;fill-opacity:0.584314;stroke:#808080;stroke-width:0.265999;stroke-linecap:round;stroke-opacity:0.999986"
           id="rect131066"
           width="5"
           height="5"
           x="82.39576"
           y="89.033134" /><rect
           style="opacity:1;fill:none;fill-opacity:0.584314;stroke:#808080;stroke-width:0.265999;stroke-linecap:round;stroke-opacity:0.999986"
           id="rect131068"
           width="5"
           height="5"
           x="87.39576"
           y="89.033134" /><rect
           style="opacity:1;fill:none;fill-opacity:0.584314;stroke:#808080;stroke-width:0.265999;stroke-linecap:round;stroke-opacity:0.999986"
           id="rect131070"
           width="5"
           height="5"
           x="72.39576"
           y="94.033134" /><rect
           style="opacity:1;fill:none;fill-opacity:0.584314;stroke:#808080;stroke-width:0.265999;stroke-linecap:round;stroke-opacity:0.999986"
           id="rect131072"
           width="5"
           height="5"
           x="77.39576"
           y="94.033134" /><rect
           style="opacity:1;fill:none;fill-opacity:0.584314;stroke:#808080;stroke-width:0.265999;stroke-linecap:round;stroke-opacity:0.999986"
           id="rect131074"
           width="5"
           height="5"
           x="72.39576"
           y="99.033134" /><rect
           style="opacity:1;fill:none;fill-opacity:0.584314;stroke:#808080;stroke-width:0.265999;stroke-linecap:round;stroke-opacity:0.999986"
           id="rect131076"
           width="5"
           height="5"
           x="77.39576"
           y="99.033134" /><rect
           style="opacity:1;fill:none;fill-opacity:0.584314;stroke:#808080;stroke-width:0.265999;stroke-linecap:round;stroke-opacity:0.999986"
           id="rect131078"
           width="5"
           height="5"
           x="82.39576"
           y="94.033134" /><rect
           style="opacity:1;fill:none;fill-opacity:0.584314;stroke:#808080;stroke-width:0.265999;stroke-linecap:round;stroke-opacity:0.999986"
           id="rect131080"
           width="5"
           height="5"
           x="87.39576"
           y="94.033134" /><rect
           style="opacity:1;fill:none;fill-opacity:0.584314;stroke:#808080;stroke-width:0.265999;stroke-linecap:round;stroke-opacity:0.999986"
           id="rect131082"
           width="5"
           height="5"
           x="82.39576"
           y="99.033134" /><rect
           style="opacity:1;fill:none;fill-opacity:0.584314;stroke:#808080;stroke-width:0.265999;stroke-linecap:round;stroke-opacity:0.999986"
           id="rect131084"
           width="5"
           height="5"
           x="87.39576"
           y="99.033134" /><rect
           style="opacity:1;fill:none;fill-opacity:0.584314;stroke:#808080;stroke-width:0.265999;stroke-linecap:round;stroke-opacity:0.999986"
           id="rect131086"
           width="5"
           height="5"
           x="52.395763"
           y="84.033134" /><rect
           style="opacity:1;fill:none;fill-opacity:0.584314;stroke:#808080;stroke-width:0.265999;stroke-linecap:round;stroke-opacity:0.999986"
           id="rect131088"
           width="5"
           height="5"
           x="57.395763"
           y="84.033134" /><rect
           style="opacity:1;fill:none;fill-opacity:0.584314;stroke:#808080;stroke-width:0.265999;stroke-linecap:round;stroke-opacity:0.999986"
           id="rect131090"
           width="5"
           height="5"
           x="52.395763"
           y="89.033134" /><rect
           style="opacity:1;fill:none;fill-opacity:0.584314;stroke:#808080;stroke-width:0.265999;stroke-linecap:round;stroke-opacity:0.999986"
           id="rect131092"
           width="5"
           height="5"
           x="57.395763"
           y="89.033134" /><rect
           style="opacity:1;fill:none;fill-opacity:0.584314;stroke:#808080;stroke-width:0.265999;stroke-linecap:round;stroke-opacity:0.999986"
           id="rect131094"
           width="5"
           height="5"
           x="62.395763"
           y="84.033134" /><rect
           style="opacity:1;fill:none;fill-opacity:0.584314;stroke:#808080;stroke-width:0.265999;stroke-linecap:round;stroke-opacity:0.999986"
           id="rect131096"
           width="5"
           height="5"
           x="67.39576"
           y="84.033134" /><rect
           style="opacity:1;fill:none;fill-opacity:0.584314;stroke:#808080;stroke-width:0.265999;stroke-linecap:round;stroke-opacity:0.999986"
           id="rect131098"
           width="5"
           height="5"
           x="62.395763"
           y="89.033134" /><rect
           style="opacity:1;fill:none;fill-opacity:0.584314;stroke:#808080;stroke-width:0.265999;stroke-linecap:round;stroke-opacity:0.999986"
           id="rect131100"
           width="5"
           height="5"
           x="67.39576"
           y="89.033134" /><rect
           style="opacity:1;fill:none;fill-opacity:0.584314;stroke:#808080;stroke-width:0.265999;stroke-linecap:round;stroke-opacity:0.999986"
           id="rect131102"
           width="5"
           height="5"
           x="52.395763"
           y="94.033134" /><rect
           style="opacity:1;fill:none;fill-opacity:0.584314;stroke:#808080;stroke-width:0.265999;stroke-linecap:round;stroke-opacity:0.999986"
           id="rect131104"
           width="5"
           height="5"
           x="57.395763"
           y="94.033134" /><rect
           style="opacity:1;fill:none;fill-opacity:0.584314;stroke:#808080;stroke-width:0.265999;stroke-linecap:round;stroke-opacity:0.999986"
           id="rect131106"
           width="5"
           height="5"
           x="52.395763"
           y="99.033134" /><rect
           style="opacity:1;fill:none;fill-opacity:0.584314;stroke:#808080;stroke-width:0.265999;stroke-linecap:round;stroke-opacity:0.999986"
           id="rect131108"
           width="5"
           height="5"
           x="57.395763"
           y="99.033134" /><rect
           style="opacity:1;fill:none;fill-opacity:0.584314;stroke:#808080;stroke-width:0.265999;stroke-linecap:round;stroke-opacity:0.999986"
           id="rect131110"
           width="5"
           height="5"
           x="62.395763"
           y="94.033134" /><rect
           style="opacity:1;fill:none;fill-opacity:0.584314;stroke:#808080;stroke-width:0.265999;stroke-linecap:round;stroke-opacity:0.999986"
           id="rect131112"
           width="5"
           height="5"
           x="67.39576"
           y="94.033134" /><rect
           style="opacity:1;fill:none;fill-opacity:0.584314;stroke:#808080;stroke-width:0.265999;stroke-linecap:round;stroke-opacity:0.999986"
           id="rect131114"
           width="5"
           height="5"
           x="62.395763"
           y="99.033134" /><rect
           style="opacity:1;fill:none;fill-opacity:0.584314;stroke:#808080;stroke-width:0.265999;stroke-linecap:round;stroke-opacity:0.999986"
           id="rect131116"
           width="5"
           height="5"
           x="67.39576"
           y="99.033134" /><rect
           style="opacity:1;fill:none;fill-opacity:0.584314;stroke:#808080;stroke-width:0.265999;stroke-linecap:round;stroke-opacity:0.999986"
           id="rect131118"
           width="5"
           height="5"
           x="72.39576"
           y="104.03313" /><rect
           style="opacity:1;fill:none;fill-opacity:0.584314;stroke:#808080;stroke-width:0.265999;stroke-linecap:round;stroke-opacity:0.999986"
           id="rect131120"
           width="5"
           height="5"
           x="77.39576"
           y="104.03313" /><rect
           style="opacity:1;fill:none;fill-opacity:0.584314;stroke:#808080;stroke-width:0.265999;stroke-linecap:round;stroke-opacity:0.999986"
           id="rect131122"
           width="5"
           height="5"
           x="72.39576"
           y="109.03313" /><rect
           style="opacity:1;fill:none;fill-opacity:0.584314;stroke:#808080;stroke-width:0.265999;stroke-linecap:round;stroke-opacity:0.999986"
           id="rect131124"
           width="5"
           height="5"
           x="77.39576"
           y="109.03313" /><rect
           style="opacity:1;fill:none;fill-opacity:0.584314;stroke:#808080;stroke-width:0.265999;stroke-linecap:round;stroke-opacity:0.999986"
           id="rect131126"
           width="5"
           height="5"
           x="82.39576"
           y="104.03313" /><rect
           style="opacity:1;fill:none;fill-opacity:0.584314;stroke:#808080;stroke-width:0.265999;stroke-linecap:round;stroke-opacity:0.999986"
           id="rect131128"
           width="5"
           height="5"
           x="87.39576"
           y="104.03313" /><rect
           style="opacity:1;fill:none;fill-opacity:0.584314;stroke:#808080;stroke-width:0.265999;stroke-linecap:round;stroke-opacity:0.999986"
           id="rect131130"
           width="5"
           height="5"
           x="82.39576"
           y="109.03313" /><rect
           style="opacity:1;fill:none;fill-opacity:0.584314;stroke:#808080;stroke-width:0.265999;stroke-linecap:round;stroke-opacity:0.999986"
           id="rect131132"
           width="5"
           height="5"
           x="87.39576"
           y="109.03313" /><rect
           style="opacity:1;fill:none;fill-opacity:0.584314;stroke:#808080;stroke-width:0.265999;stroke-linecap:round;stroke-opacity:0.999986"
           id="rect131134"
           width="5"
           height="5"
           x="72.39576"
           y="114.03313" /><rect
           style="opacity:1;fill:none;fill-opacity:0.584314;stroke:#808080;stroke-width:0.265999;stroke-linecap:round;stroke-opacity:0.999986"
           id="rect131136"
           width="5"
           height="5"
           x="77.39576"
           y="114.03313" /><rect
           style="opacity:1;fill:none;fill-opacity:0.584314;stroke:#808080;stroke-width:0.265999;stroke-linecap:round;stroke-opacity:0.999986"
           id="rect131138"
           width="5"
           height="5"
           x="72.39576"
           y="119.03313" /><rect
           style="opacity:1;fill:none;fill-opacity:0.584314;stroke:#808080;stroke-width:0.265999;stroke-linecap:round;stroke-opacity:0.999986"
           id="rect131140"
           width="5"
           height="5"
           x="77.39576"
           y="119.03313" /><rect
           style="opacity:1;fill:none;fill-opacity:0.584314;stroke:#808080;stroke-width:0.265999;stroke-linecap:round;stroke-opacity:0.999986"
           id="rect131142"
           width="5"
           height="5"
           x="82.39576"
           y="114.03313" /><rect
           style="opacity:1;fill:none;fill-opacity:0.584314;stroke:#808080;stroke-width:0.265999;stroke-linecap:round;stroke-opacity:0.999986"
           id="rect131144"
           width="5"
           height="5"
           x="87.39576"
           y="114.03313" /><rect
           style="opacity:1;fill:none;fill-opacity:0.584314;stroke:#808080;stroke-width:0.265999;stroke-linecap:round;stroke-opacity:0.999986"
           id="rect131146"
           width="5"
           height="5"
           x="82.39576"
           y="119.03313" /><rect
           style="opacity:1;fill:none;fill-opacity:0.584314;stroke:#808080;stroke-width:0.265999;stroke-linecap:round;stroke-opacity:0.999986"
           id="rect131148"
           width="5"
           height="5"
           x="87.39576"
           y="119.03313" /><rect
           style="opacity:1;fill:none;fill-opacity:0.584314;stroke:#808080;stroke-width:0.265999;stroke-linecap:round;stroke-opacity:0.999986"
           id="rect131150"
           width="5"
           height="5"
           x="52.395763"
           y="104.03313" /><rect
           style="opacity:1;fill:none;fill-opacity:0.584314;stroke:#808080;stroke-width:0.265999;stroke-linecap:round;stroke-opacity:0.999986"
           id="rect131152"
           width="5"
           height="5"
           x="57.395763"
           y="104.03313" /><rect
           style="opacity:1;fill:none;fill-opacity:0.584314;stroke:#808080;stroke-width:0.265999;stroke-linecap:round;stroke-opacity:0.999986"
           id="rect131154"
           width="5"
           height="5"
           x="52.395763"
           y="109.03313" /><rect
           style="opacity:1;fill:none;fill-opacity:0.584314;stroke:#808080;stroke-width:0.265999;stroke-linecap:round;stroke-opacity:0.999986"
           id="rect131156"
           width="5"
           height="5"
           x="57.395763"
           y="109.03313" /><rect
           style="opacity:1;fill:none;fill-opacity:0.584314;stroke:#808080;stroke-width:0.265999;stroke-linecap:round;stroke-opacity:0.999986"
           id="rect131158"
           width="5"
           height="5"
           x="62.395763"
           y="104.03313" /><rect
           style="opacity:1;fill:none;fill-opacity:0.584314;stroke:#808080;stroke-width:0.265999;stroke-linecap:round;stroke-opacity:0.999986"
           id="rect131160"
           width="5"
           height="5"
           x="67.39576"
           y="104.03313" /><rect
           style="opacity:1;fill:none;fill-opacity:0.584314;stroke:#808080;stroke-width:0.265999;stroke-linecap:round;stroke-opacity:0.999986"
           id="rect131162"
           width="5"
           height="5"
           x="62.395763"
           y="109.03313" /><rect
           style="opacity:1;fill:none;fill-opacity:0.584314;stroke:#808080;stroke-width:0.266;stroke-linecap:round;stroke-dasharray:none;stroke-opacity:0.999986"
           id="rect131164"
           width="5"
           height="5"
           x="67.39576"
           y="109.03313" /><rect
           style="opacity:1;fill:none;fill-opacity:0.584314;stroke:#808080;stroke-width:0.265999;stroke-linecap:round;stroke-opacity:0.999986"
           id="rect131166"
           width="5"
           height="5"
           x="52.395763"
           y="114.03313" /><rect
           style="opacity:1;fill:none;fill-opacity:0.584314;stroke:#808080;stroke-width:0.265999;stroke-linecap:round;stroke-opacity:0.999986"
           id="rect131168"
           width="5"
           height="5"
           x="57.395763"
           y="114.03313" /><rect
           style="opacity:1;fill:none;fill-opacity:0.584314;stroke:#808080;stroke-width:0.265999;stroke-linecap:round;stroke-opacity:0.999986"
           id="rect131170"
           width="5"
           height="5"
           x="52.395763"
           y="119.03313" /><rect
           style="opacity:1;fill:none;fill-opacity:0.584314;stroke:#808080;stroke-width:0.265999;stroke-linecap:round;stroke-opacity:0.999986"
           id="rect131172"
           width="5"
           height="5"
           x="57.395763"
           y="119.03313" /><rect
           style="opacity:1;fill:none;fill-opacity:0.584314;stroke:#808080;stroke-width:0.265999;stroke-linecap:round;stroke-opacity:0.999986"
           id="rect131174"
           width="5"
           height="5"
           x="62.395763"
           y="114.03313" /><rect
           style="opacity:1;fill:none;fill-opacity:0.584314;stroke:#808080;stroke-width:0.265999;stroke-linecap:round;stroke-opacity:0.999986"
           id="rect131176"
           width="5"
           height="5"
           x="67.39576"
           y="114.03313" /><rect
           style="opacity:1;fill:none;fill-opacity:0.584314;stroke:#808080;stroke-width:0.265999;stroke-linecap:round;stroke-opacity:0.999986"
           id="rect131178"
           width="5"
           height="5"
           x="62.395763"
           y="119.03313" /><rect
           style="opacity:1;fill:none;fill-opacity:0.584314;stroke:#808080;stroke-width:0.265999;stroke-linecap:round;stroke-opacity:0.999986"
           id="rect131180"
           width="5"
           height="5"
           x="67.39576"
           y="119.03313" /><rect
           style="opacity:1;fill:none;fill-opacity:0.584314;stroke:#808080;stroke-width:0.265999;stroke-linecap:round;stroke-opacity:0.999986"
           id="rect131182"
           width="5"
           height="5"
           x="42.39576"
           y="84.033134" /><rect
           style="opacity:1;fill:none;fill-opacity:0.584314;stroke:#808080;stroke-width:0.265999;stroke-linecap:round;stroke-opacity:0.999986"
           id="rect131184"
           width="5"
           height="5"
           x="47.39576"
           y="84.033134" /><rect
           style="opacity:1;fill:none;fill-opacity:0.584314;stroke:#808080;stroke-width:0.265999;stroke-linecap:round;stroke-opacity:0.999986"
           id="rect131186"
           width="5"
           height="5"
           x="42.39576"
           y="89.033134" /><rect
           style="opacity:1;fill:none;fill-opacity:0.584314;stroke:#808080;stroke-width:0.265999;stroke-linecap:round;stroke-opacity:0.999986"
           id="rect131188"
           width="5"
           height="5"
           x="47.39576"
           y="89.033134" /><rect
           style="opacity:1;fill:none;fill-opacity:0.584314;stroke:#808080;stroke-width:0.265999;stroke-linecap:round;stroke-opacity:0.999986"
           id="rect131190"
           width="5"
           height="5"
           x="42.39576"
           y="94.033134" /><rect
           style="opacity:1;fill:none;fill-opacity:0.584314;stroke:#808080;stroke-width:0.265999;stroke-linecap:round;stroke-opacity:0.999986"
           id="rect131192"
           width="5"
           height="5"
           x="47.39576"
           y="94.033134" /><rect
           style="opacity:1;fill:none;fill-opacity:0.584314;stroke:#808080;stroke-width:0.265999;stroke-linecap:round;stroke-opacity:0.999986"
           id="rect131194"
           width="5"
           height="5"
           x="42.39576"
           y="99.033134" /><rect
           style="opacity:1;fill:none;fill-opacity:0.584314;stroke:#808080;stroke-width:0.265999;stroke-linecap:round;stroke-opacity:0.999986"
           id="rect131196"
           width="5"
           height="5"
           x="47.39576"
           y="99.033134" /><rect
           style="opacity:1;fill:none;fill-opacity:0.584314;stroke:#808080;stroke-width:0.265999;stroke-linecap:round;stroke-opacity:0.999986"
           id="rect131198"
           width="5"
           height="5"
           x="42.39576"
           y="104.03313" /><rect
           style="opacity:1;fill:none;fill-opacity:0.584314;stroke:#808080;stroke-width:0.265999;stroke-linecap:round;stroke-opacity:0.999986"
           id="rect131200"
           width="5"
           height="5"
           x="47.39576"
           y="104.03313" /><rect
           style="opacity:1;fill:none;fill-opacity:0.584314;stroke:#808080;stroke-width:0.265999;stroke-linecap:round;stroke-opacity:0.999986"
           id="rect131202"
           width="5"
           height="5"
           x="42.39576"
           y="109.03313" /><rect
           style="opacity:1;fill:none;fill-opacity:0.584314;stroke:#808080;stroke-width:0.265999;stroke-linecap:round;stroke-opacity:0.999986"
           id="rect131204"
           width="5"
           height="5"
           x="47.39576"
           y="109.03313" /><rect
           style="opacity:1;fill:none;fill-opacity:0.584314;stroke:#808080;stroke-width:0.265999;stroke-linecap:round;stroke-opacity:0.999986"
           id="rect131206"
           width="5"
           height="5"
           x="42.39576"
           y="114.03313" /><rect
           style="opacity:1;fill:none;fill-opacity:0.584314;stroke:#808080;stroke-width:0.265999;stroke-linecap:round;stroke-opacity:0.999986"
           id="rect131208"
           width="5"
           height="5"
           x="47.39576"
           y="114.03313" /><rect
           style="opacity:1;fill:none;fill-opacity:0.584314;stroke:#808080;stroke-width:0.265999;stroke-linecap:round;stroke-opacity:0.999986"
           id="rect131210"
           width="5"
           height="5"
           x="42.39576"
           y="119.03313" /><rect
           style="opacity:1;fill:none;fill-opacity:0.584314;stroke:#808080;stroke-width:0.265999;stroke-linecap:round;stroke-opacity:0.999986"
           id="rect131212"
           width="5"
           height="5"
           x="47.39576"
           y="119.03313" /><rect
           style="opacity:1;fill:none;fill-opacity:0.584314;stroke:#808080;stroke-width:0.265999;stroke-linecap:round;stroke-opacity:0.999986"
           id="rect131214"
           width="5"
           height="5"
           x="72.39576"
           y="74.033134" /><rect
           style="opacity:1;fill:none;fill-opacity:0.584314;stroke:#808080;stroke-width:0.265999;stroke-linecap:round;stroke-opacity:0.999986"
           id="rect131216"
           width="5"
           height="5"
           x="77.39576"
           y="74.033134" /><rect
           style="opacity:1;fill:none;fill-opacity:0.584314;stroke:#808080;stroke-width:0.265999;stroke-linecap:round;stroke-opacity:0.999986"
           id="rect131218"
           width="5"
           height="5"
           x="72.39576"
           y="79.033134" /><rect
           style="opacity:1;fill:none;fill-opacity:0.584314;stroke:#808080;stroke-width:0.265999;stroke-linecap:round;stroke-opacity:0.999986"
           id="rect131220"
           width="5"
           height="5"
           x="77.39576"
           y="79.033134" /><rect
           style="opacity:1;fill:none;fill-opacity:0.584314;stroke:#808080;stroke-width:0.265999;stroke-linecap:round;stroke-opacity:0.999986"
           id="rect131222"
           width="5"
           height="5"
           x="82.39576"
           y="74.033134" /><rect
           style="opacity:1;fill:none;fill-opacity:0.584314;stroke:#808080;stroke-width:0.265999;stroke-linecap:round;stroke-opacity:0.999986"
           id="rect131224"
           width="5"
           height="5"
           x="87.39576"
           y="74.033134" /><rect
           style="opacity:1;fill:none;fill-opacity:0.584314;stroke:#808080;stroke-width:0.265999;stroke-linecap:round;stroke-opacity:0.999986"
           id="rect131226"
           width="5"
           height="5"
           x="82.39576"
           y="79.033134" /><rect
           style="opacity:1;fill:none;fill-opacity:0.584314;stroke:#808080;stroke-width:0.265999;stroke-linecap:round;stroke-opacity:0.999986"
           id="rect131228"
           width="5"
           height="5"
           x="87.39576"
           y="79.033134" /><rect
           style="opacity:1;fill:none;fill-opacity:0.584314;stroke:#808080;stroke-width:0.265999;stroke-linecap:round;stroke-opacity:0.999986"
           id="rect131230"
           width="5"
           height="5"
           x="52.395763"
           y="74.033134" /><rect
           style="opacity:1;fill:none;fill-opacity:0.584314;stroke:#808080;stroke-width:0.265999;stroke-linecap:round;stroke-opacity:0.999986"
           id="rect131232"
           width="5"
           height="5"
           x="57.395763"
           y="74.033134" /><rect
           style="opacity:1;fill:none;fill-opacity:0.584314;stroke:#808080;stroke-width:0.265999;stroke-linecap:round;stroke-opacity:0.999986"
           id="rect131234"
           width="5"
           height="5"
           x="52.395763"
           y="79.033134" /><rect
           style="opacity:1;fill:none;fill-opacity:0.584314;stroke:#808080;stroke-width:0.265999;stroke-linecap:round;stroke-opacity:0.999986"
           id="rect131236"
           width="5"
           height="5"
           x="57.395763"
           y="79.033134" /><rect
           style="opacity:1;fill:none;fill-opacity:0.584314;stroke:#808080;stroke-width:0.265999;stroke-linecap:round;stroke-opacity:0.999986"
           id="rect131238"
           width="5"
           height="5"
           x="62.395763"
           y="74.033134" /><rect
           style="opacity:1;fill:none;fill-opacity:0.584314;stroke:#808080;stroke-width:0.265999;stroke-linecap:round;stroke-opacity:0.999986"
           id="rect131240"
           width="5"
           height="5"
           x="67.39576"
           y="74.033134" /><rect
           style="opacity:1;fill:none;fill-opacity:0.584314;stroke:#808080;stroke-width:0.265999;stroke-linecap:round;stroke-opacity:0.999986"
           id="rect131242"
           width="5"
           height="5"
           x="62.395763"
           y="79.033134" /><rect
           style="opacity:1;fill:none;fill-opacity:0.584314;stroke:#808080;stroke-width:0.265999;stroke-linecap:round;stroke-opacity:0.999986"
           id="rect131244"
           width="5"
           height="5"
           x="67.39576"
           y="79.033134" /><rect
           style="opacity:1;fill:none;fill-opacity:0.584314;stroke:#808080;stroke-width:0.265999;stroke-linecap:round;stroke-opacity:0.999986"
           id="rect131246"
           width="5"
           height="5"
           x="42.39576"
           y="74.033134" /><rect
           style="opacity:1;fill:none;fill-opacity:0.584314;stroke:#808080;stroke-width:0.265999;stroke-linecap:round;stroke-opacity:0.999986"
           id="rect131248"
           width="5"
           height="5"
           x="47.39576"
           y="74.033134" /><rect
           style="opacity:1;fill:none;fill-opacity:0.584314;stroke:#808080;stroke-width:0.265999;stroke-linecap:round;stroke-opacity:0.999986"
           id="rect131250"
           width="5"
           height="5"
           x="42.39576"
           y="79.033134" /><rect
           style="opacity:1;fill:none;fill-opacity:0.584314;stroke:#808080;stroke-width:0.265999;stroke-linecap:round;stroke-opacity:0.999986"
           id="rect131252"
           width="5"
           height="5"
           x="47.39576"
           y="79.033134" /></g><path
         style="fill:#e3e3fa;fill-opacity:0.796078;stroke:#000000;stroke-width:0.2;stroke-linecap:round;stroke-dasharray:none;stroke-dashoffset:0.653102;stroke-opacity:1;paint-order:normal"
         d="m 42.39576,74.033134 h 50 v 49.999996 h -50 z"
         id="path64181" /></g><path
       id="path10107"
       style="fill:#7f7f7f;fill-opacity:1;stroke:none;stroke-width:0.518629;stroke-linecap:round;stroke-opacity:1"
       d="m 66.088461,94.971091 a 1.6083155,1.6083155 0 0 1 0.355794,-2.246471 1.6083155,1.6083155 0 0 1 2.246511,0.355791 1.6083155,1.6083155 0 0 1 -0.355816,2.2465 1.6083155,1.6083155 0 0 1 -2.246489,-0.35582 z M 62.086685,84.621742 c 1.447197,2.146765 2.576851,3.943249 1.540251,6.364136 -2.980582,0.71355 -4.380746,1.862852 -6.819619,5.177302 2.488909,-0.712959 4.546535,-1.23219 6.52862,0.501782 -0.242428,3.055198 0.417941,4.741978 2.816546,8.085708 0.09104,-2.58741 0.23307,-4.70476 2.494651,-6.054018 2.830751,1.174678 4.639054,1.067868 8.560336,-0.18007 -2.432644,-0.88614 -4.402488,-1.67552 -4.986826,-4.243362 1.991919,-2.329212 2.449143,-4.082009 2.474021,-8.197006 -1.594492,2.039746 -2.953957,3.669246 -5.576688,3.43148 -1.599662,-2.614186 -3.125398,-3.590677 -7.031292,-4.885952 z"
       inkscape:transform-center-x="0.38836581"
       inkscape:transform-center-y="0.65307167" /><path
       style="fill:none;fill-opacity:1;stroke:#3b7ec3;stroke-width:0.3;stroke-linecap:round;stroke-opacity:1"
       d="m 74.694665,86.076214 -7.298898,7.95692 -5.309082,-9.411392"
       id="path10493" /><path
       style="fill:none;fill-opacity:1;stroke:#3b7ec3;stroke-width:0.3;stroke-linecap:round;stroke-opacity:1;marker-start:url(#Arrow3_Fnone_S-3b7ec3_reversed)"
       id="path10547"
       sodipodi:type="arc"
       sodipodi:cx="67.395767"
       sodipodi:cy="94.033134"
       sodipodi:rx="11"
       sodipodi:ry="11"
       sodipodi:start="4.2193576"
       sodipodi:end="5.4429597"
       sodipodi:open="true"
       sodipodi:arc-type="arc"
       d="M 62.189485,84.343211 A 11,11 0 0 1 74.73601,85.840404" /><path
       id="path12304"
       style="fill:#3b7ec3;fill-opacity:1;stroke:none;stroke-width:0.518629;stroke-linecap:round;stroke-opacity:1;opacity:0.25"
       d="m 65.786816,94.023547 a 1.6083155,1.6083155 0 0 1 1.608286,-1.608303 1.6083155,1.6083155 0 0 1 1.608336,1.608307 1.6083155,1.6083155 0 0 1 -1.60832,1.608313 1.6083155,1.6083155 0 0 1 -1.608302,-1.608317 z m 2.84569,-10.724985 c -0.09103,2.587411 -0.233068,4.704791 -2.494656,6.054031 -2.830756,-1.174668 -4.639055,-1.067859 -8.56033,0.180054 2.432637,0.886148 4.402487,1.675524 4.986825,4.243377 -1.991929,2.329211 -2.449144,4.082 -2.474027,8.196996 1.594495,-2.039743 2.953946,-3.669232 5.576678,-3.431481 1.599667,2.614211 3.125396,3.590691 7.0313,4.885961 -1.447191,-2.14678 -2.576842,-3.943243 -1.540242,-6.364136 2.980573,-0.713552 4.380743,-1.862845 6.819604,-5.177324 -2.488903,0.71297 -4.54653,1.23219 -6.528608,-0.50177 0.242426,-3.055178 -0.417953,-4.741981 -2.816544,-8.085708 z"
       inkscape:transform-center-x="-0.38182971"
       inkscape:transform-center-y="-0.67010337" /></g></svg>
