<?xml version="1.0" encoding="UTF-8" standalone="no"?>
<!-- Created with Inkscape (http://www.inkscape.org/) -->

<svg
   width="103.27313mm"
   height="68.376175mm"
   viewBox="0 0 103.27313 68.376177"
   version="1.1"
   id="svg5"
   inkscape:version="1.2.2 (b0a8486541, 2022-12-01)"
   sodipodi:docname="translationexample.svg"
   xmlns:inkscape="http://www.inkscape.org/namespaces/inkscape"
   xmlns:sodipodi="http://sodipodi.sourceforge.net/DTD/sodipodi-0.dtd"
   xmlns="http://www.w3.org/2000/svg"
   xmlns:svg="http://www.w3.org/2000/svg">
  <sodipodi:namedview
     id="namedview7"
     pagecolor="#ffffff"
     bordercolor="#000000"
     borderopacity="0.25"
     inkscape:showpageshadow="2"
     inkscape:pageopacity="0.0"
     inkscape:pagecheckerboard="0"
     inkscape:deskcolor="#d1d1d1"
     inkscape:document-units="mm"
     showgrid="false"
     inkscape:zoom="2.1874239"
     inkscape:cx="269.49509"
     inkscape:cy="161.60562"
     inkscape:window-width="1850"
     inkscape:window-height="1016"
     inkscape:window-x="0"
     inkscape:window-y="0"
     inkscape:window-maximized="1"
     inkscape:current-layer="layer1" />
  <defs
     id="defs2">
    <g
       id="id-45a2e069-0925-4c72-9a05-c3b8cddd304e-7">
      <g
         id="id-78698bbd-2455-46bc-8eb9-a30a1ce02550-5" />
      <g
         id="id-c813d254-2f5b-415a-8d86-9439a13e2064-3">
        <path
           d="m 4.25,-6.046875 c 0.078125,-0.28125 0.109375,-0.34375 0.234375,-0.375 0.09375,-0.015625 0.421875,-0.015625 0.625,-0.015625 1.015625,0 1.453125,0.03125 1.453125,0.8125 0,0.15625 -0.03125,0.546875 -0.078125,0.796875 0,0.046875 -0.03125,0.15625 -0.03125,0.1875 0,0.0625 0.03125,0.140625 0.125,0.140625 0.109375,0 0.125,-0.078125 0.15625,-0.234375 L 7,-6.46875 C 7.015625,-6.515625 7.015625,-6.609375 7.015625,-6.640625 7.015625,-6.75 6.921875,-6.75 6.75,-6.75 H 1.21875 c -0.234375,0 -0.25,0.015625 -0.328125,0.203125 l -0.59375,1.75 c 0,0.015625 -0.0625,0.15625 -0.0625,0.1875 0,0.046875 0.0625,0.109375 0.125,0.109375 0.09375,0 0.109375,-0.0625 0.171875,-0.21875 C 1.0625,-6.265625 1.328125,-6.4375 2.796875,-6.4375 H 3.1875 c 0.28125,0 0.28125,0.03125 0.28125,0.125 0,0.046875 -0.03125,0.171875 -0.046875,0.203125 L 2.09375,-0.78125 C 2,-0.421875 1.96875,-0.3125 0.90625,-0.3125 c -0.359375,0 -0.421875,0 -0.421875,0.1875 C 0.484375,0 0.59375,0 0.65625,0 c 0.265625,0 0.546875,-0.015625 0.8125,-0.015625 0.28125,0 0.578125,-0.015625 0.859375,-0.015625 0.28125,0 0.546875,0.015625 0.828125,0.015625 C 3.4375,-0.015625 3.734375,0 4.015625,0 c 0.09375,0 0.21875,0 0.21875,-0.203125 0,-0.109375 -0.078125,-0.109375 -0.34375,-0.109375 -0.234375,0 -0.375,0 -0.625,-0.015625 -0.296875,-0.03125 -0.375,-0.0625 -0.375,-0.21875 0,-0.015625 0,-0.0625 0.046875,-0.203125 z m 0,0"
           id="id-32536e52-6621-49ae-b17c-433e8fb693dd-5" />
      </g>
    </g>
  </defs>
  <g
     inkscape:label="Layer 1"
     inkscape:groupmode="layer"
     id="layer1"
     transform="translate(-4.119964,-56.941135)">
    <rect
       style="fill:#c8c8da;fill-opacity:0.75;stroke:#62629a;stroke-width:1.016;stroke-linecap:round;stroke-dasharray:none;stroke-dashoffset:0.653102;stroke-opacity:1;paint-order:normal"
       id="rect18774"
       width="102.25713"
       height="67.360176"
       x="4.627964"
       y="57.449135"
       rx="3" />
    <path
       style="opacity:0.5;fill:#000000;fill-opacity:1;stroke:#000000;stroke-width:0.319339;stroke-linecap:round;stroke-dasharray:none;stroke-opacity:1"
       d="m 54.683189,118.70747 0.0115,-2.6042 0.44233,-1.64845 0.60855,-1.09758 c 0,0 0.69398,-0.62817 1.0115,-0.97121 0.96614,-1.04378 1.73159,-2.23429 2.45503,-3.45886 0.36215,-0.613 1.04493,-1.82187 1.04493,-1.82187 0.9365,-0.81446 1.57651,-1.79694 2.22768,-2.83212 0,0 0.59615,-0.62751 0.81208,-1.13556 0.10992,-0.25861 0.25129,-0.9932 0.0876,-1.22156 -0.20919,-0.29177 -0.95227,-0.5077 -1.24987,-0.30687 -0.79761,0.53825 -1.15328,0.89008 -1.15328,0.89008 l -1.53992,1.52824 -1.18848,1.47581 c 0,0 -1.0465,0.72569 -1.37324,0.48675 -0.81622,-0.59688 -1.01369,-1.13301 -1.25625,-1.83286 -0.29626,-0.85478 -0.18007,-2.70801 -0.18007,-2.70801 0.16807,-1.43965 0.15202,-2.894836 0.19655,-4.342388 l -0.0982,-3.942065 c 0,0 -0.0399,-0.853739 -0.1772,-1.252358 -0.11656,-0.338315 -0.22853,-0.747289 -0.53621,-0.92999 -0.32346,-0.192077 -0.81465,-0.234776 -1.12826,-0.027 -0.2844,0.188424 -0.30235,0.618723 -0.3764,0.951747 -0.26262,1.181192 -0.22117,3.623363 -0.22117,3.623363 -0.0562,2.041887 -0.094,2.714487 -0.42653,4.084135 -0.0309,0.158 -0.45308,0.424416 -0.60191,0.36299 -0.19575,-0.0808 -0.31331,-0.33025 -0.33289,-0.54112 -0.10764,-1.159386 -0.0273,-3.426317 -0.0273,-3.426317 0.004,-2.416741 0.004,-4.037271 -0.32326,-5.875809 -0.0761,-0.403573 -0.56177,-0.654494 -0.95221,-0.781867 -0.27666,-0.09026 -0.61995,-0.09656 -0.87161,0.04955 -0.2101,0.121979 -0.40619,0.911426 -0.40862,1.154363 -0.013,1.298238 0.0233,2.50277 0.16491,4.080135 0.15945,1.775862 0.19823,2.35277 0.39601,5.071265 -0.17142,0.27522 -0.51361,0.469776 -0.54264,0.339626 -0.29411,-1.18275 -0.41827,-2.389298 -0.54285,-3.597483 0,0 -0.38612,-3.268437 -0.59046,-4.963868 -0.0323,-0.268663 -0.35734,-0.454778 -0.6066,-0.539519 -0.24926,-0.08474 -0.57433,-0.06784 -0.76584,0.05482 -0.19151,0.122699 -0.28475,0.324095 -0.28756,0.523038 -0.0242,1.709671 0.11834,3.492441 0.11603,5.083792 0.22574,1.771613 0.43433,2.681274 0.60557,4.22649 0.0233,0.19323 -0.51082,0.48421 -0.56381,0.29692 -0.76641,-1.768736 -1.2069,-3.752541 -1.5267,-5.504008 -0.0749,-0.41303 -0.39704,-0.834688 -0.68078,-1.059411 -0.28375,-0.224723 -0.63084,-0.216109 -0.91764,0.07784 -0.28679,0.293949 -0.18236,1.555826 -0.18236,1.555826 0,0 0.0404,0.780599 0.12512,1.146702 0.0847,0.366103 0.10895,0.759925 0.21696,1.19779 0.30908,1.309565 0.60783,2.621571 0.91005,3.932751 l 0.15397,0.82857 c 0,0 0.41661,5.00571 1.14818,7.38823 0.4461,1.4528 0.9203,2.84986 1.24984,4.32876 l -0.106,3.72639 z"
       id="path175027"
       sodipodi:nodetypes="ccccssccssscccsscccssssccssccsssscccszzscccczzczcccsccc" />
    <path
       style="opacity:1;fill:#a3add3;fill-opacity:0.501961;stroke:#7f93cb;stroke-width:0.319339;stroke-linecap:round;stroke-dasharray:none;stroke-opacity:0.678431"
       d="m 91.212692,118.70747 0.0115,-2.6042 0.44233,-1.64845 0.60855,-1.09758 c 0,0 0.69398,-0.62817 1.0115,-0.97121 0.96614,-1.04378 1.73159,-2.23429 2.45503,-3.45886 0.36215,-0.613 1.04493,-1.82187 1.04493,-1.82187 0.9365,-0.81446 1.57651,-1.79694 2.22768,-2.83212 0,0 0.596148,-0.62751 0.812078,-1.13556 0.10992,-0.25861 0.25129,-0.9932 0.0876,-1.22156 -0.20919,-0.29177 -0.952268,-0.5077 -1.249868,-0.30687 -0.79761,0.53825 -1.15328,0.89008 -1.15328,0.89008 l -1.53992,1.52824 -1.18848,1.47581 c 0,0 -1.0465,0.72569 -1.37324,0.48675 -0.81622,-0.59688 -1.01369,-1.13301 -1.25625,-1.83286 -0.29626,-0.85478 -0.18007,-2.70801 -0.18007,-2.70801 0.16807,-1.43965 0.15202,-2.894836 0.19655,-4.342388 l -0.0982,-3.942065 c 0,0 -0.0399,-0.853739 -0.1772,-1.252358 -0.11656,-0.338315 -0.22853,-0.747289 -0.53621,-0.92999 -0.32346,-0.192077 -0.81465,-0.234776 -1.12826,-0.027 -0.2844,0.188424 -0.30235,0.618723 -0.3764,0.951747 -0.26262,1.181192 -0.22117,3.623363 -0.22117,3.623363 -0.0562,2.041887 -0.094,2.714487 -0.42653,4.084135 -0.0309,0.158 -0.45308,0.424416 -0.60191,0.36299 -0.19575,-0.0808 -0.31331,-0.33025 -0.33289,-0.54112 -0.10764,-1.159386 -0.0273,-3.426317 -0.0273,-3.426317 0.004,-2.416741 0.004,-4.037271 -0.32326,-5.875809 -0.0761,-0.403573 -0.56177,-0.654494 -0.95221,-0.781867 -0.27666,-0.09026 -0.61995,-0.09656 -0.87161,0.04955 -0.2101,0.121979 -0.40619,0.911426 -0.40862,1.154363 -0.013,1.298238 0.0233,2.50277 0.16491,4.080135 0.15945,1.775862 0.19823,2.35277 0.39601,5.071265 -0.17142,0.27522 -0.51361,0.469776 -0.54264,0.339626 -0.29411,-1.18275 -0.41827,-2.389298 -0.54285,-3.597483 0,0 -0.38612,-3.268437 -0.59046,-4.963868 -0.0323,-0.268663 -0.35734,-0.454778 -0.6066,-0.539519 -0.24926,-0.08474 -0.57433,-0.06784 -0.76584,0.05482 -0.19151,0.122699 -0.28475,0.324095 -0.28756,0.523038 -0.0242,1.709671 0.11834,3.492441 0.11603,5.083792 0.22574,1.771613 0.43433,2.681274 0.60557,4.22649 0.0233,0.19323 -0.51082,0.48421 -0.56381,0.29692 -0.76641,-1.768736 -1.2069,-3.752541 -1.5267,-5.504008 -0.0749,-0.41303 -0.39704,-0.834688 -0.68078,-1.059411 -0.28375,-0.224723 -0.63084,-0.216109 -0.91764,0.07784 -0.28679,0.293949 -0.18236,1.555826 -0.18236,1.555826 0,0 0.0404,0.780599 0.12512,1.146702 0.0847,0.366103 0.10895,0.759925 0.21696,1.19779 0.30908,1.309565 0.60783,2.621571 0.91005,3.932751 l 0.15397,0.82857 c 0,0 0.41661,5.00571 1.14818,7.38823 0.4461,1.4528 0.9203,2.84986 1.24984,4.32876 l -0.106,3.72639 z"
       id="path785"
       sodipodi:nodetypes="ccccssccssscccsscccssssccssccsssscccszzscccczzczcccsccc" />
    <path
       style="opacity:1;fill:#a3add3;fill-opacity:0.501961;stroke:#7f93cb;stroke-width:0.319339;stroke-linecap:round;stroke-dasharray:none;stroke-opacity:0.678431"
       d="m 24.754606,100.39294 0.0115,-2.604199 0.44233,-1.64845 0.60855,-1.09758 c 0,0 0.69398,-0.62817 1.0115,-0.97121 0.96614,-1.04378 1.73159,-2.23429 2.45503,-3.45886 0.36215,-0.613 1.04493,-1.82187 1.04493,-1.82187 0.9365,-0.81446 1.57651,-1.79694 2.22768,-2.83212 0,0 0.596148,-0.62751 0.812078,-1.13556 0.10992,-0.25861 0.25129,-0.9932 0.0876,-1.22156 -0.20919,-0.29177 -0.952268,-0.5077 -1.249868,-0.30687 -0.79761,0.53825 -1.15328,0.89008 -1.15328,0.89008 l -1.53992,1.52824 -1.18848,1.47581 c 0,0 -1.0465,0.72569 -1.37324,0.48675 -0.81622,-0.59688 -1.01369,-1.13301 -1.25625,-1.83286 -0.29626,-0.85478 -0.18007,-2.70801 -0.18007,-2.70801 0.16807,-1.43965 0.15202,-2.894836 0.19655,-4.342388 l -0.0982,-3.942065 c 0,0 -0.0399,-0.853739 -0.1772,-1.252358 -0.11656,-0.338315 -0.22853,-0.747289 -0.53621,-0.92999 -0.32346,-0.192077 -0.81465,-0.234776 -1.12826,-0.027 -0.2844,0.188424 -0.30235,0.618723 -0.3764,0.951747 -0.26262,1.181192 -0.22117,3.623363 -0.22117,3.623363 -0.0562,2.041887 -0.094,2.714487 -0.42653,4.084135 -0.0309,0.158 -0.45308,0.424416 -0.60191,0.36299 -0.19575,-0.0808 -0.31331,-0.33025 -0.33289,-0.54112 -0.10764,-1.159386 -0.0273,-3.426317 -0.0273,-3.426317 0.004,-2.416741 0.004,-4.037271 -0.32326,-5.875809 -0.0761,-0.403573 -0.56177,-0.654494 -0.95221,-0.781867 -0.27666,-0.09026 -0.61995,-0.09656 -0.87161,0.04955 -0.2101,0.121979 -0.40619,0.911426 -0.40862,1.154363 -0.013,1.298238 0.0233,2.50277 0.16491,4.080135 0.15945,1.775862 0.19823,2.35277 0.39601,5.071265 -0.17142,0.27522 -0.51361,0.469776 -0.54264,0.339626 -0.29411,-1.18275 -0.41827,-2.389298 -0.54285,-3.597483 0,0 -0.38612,-3.268437 -0.59046,-4.963868 -0.0323,-0.268663 -0.35734,-0.454778 -0.6066,-0.539519 -0.24926,-0.08474 -0.57433,-0.06784 -0.76584,0.05482 -0.19151,0.122699 -0.28475,0.324095 -0.28756,0.523038 -0.0242,1.709671 0.11834,3.492441 0.11603,5.083792 0.22574,1.771613 0.43433,2.681274 0.60557,4.22649 0.0233,0.19323 -0.51082,0.48421 -0.56381,0.29692 -0.76641,-1.768736 -1.2069,-3.752541 -1.5267,-5.504008 -0.0749,-0.41303 -0.39704,-0.834688 -0.68078,-1.059411 -0.28375,-0.224723 -0.63084,-0.216109 -0.91764,0.07784 -0.28679,0.293949 -0.18236,1.555826 -0.18236,1.555826 0,0 0.0404,0.780599 0.12512,1.146702 0.0847,0.366103 0.10895,0.759925 0.21696,1.19779 0.30908,1.309565 0.60783,2.621571 0.91005,3.932751 l 0.15397,0.82857 c 0,0 0.41661,5.00571 1.14818,7.38823 0.4461,1.4528 0.9203,2.84986 1.24984,4.32876 l -0.106,3.726389 z"
       id="path4242"
       sodipodi:nodetypes="ccccssccssscccsscccssssccssccsssscccszzscccczzczcccsccc" />
    <path
       style="opacity:1;fill:#a3add3;fill-opacity:0.501961;stroke:#7f93cb;stroke-width:0.319339;stroke-linecap:round;stroke-dasharray:none;stroke-opacity:0.678431"
       d="m 70.649197,88.922154 0.0115,-2.6042 0.44233,-1.64845 0.60855,-1.09758 c 0,0 0.69398,-0.62817 1.0115,-0.97121 0.96614,-1.04378 1.73159,-2.23429 2.45503,-3.45886 0.36215,-0.613 1.04493,-1.82187 1.04493,-1.82187 0.9365,-0.81446 1.57651,-1.79694 2.22768,-2.83212 0,0 0.596148,-0.62751 0.812078,-1.13556 0.10992,-0.25861 0.25129,-0.9932 0.0876,-1.22156 -0.20919,-0.29177 -0.952268,-0.5077 -1.249868,-0.30687 -0.79761,0.53825 -1.15328,0.89008 -1.15328,0.89008 l -1.53992,1.52824 -1.18848,1.47581 c 0,0 -1.0465,0.72569 -1.37324,0.48675 -0.81622,-0.59688 -1.01369,-1.13301 -1.25625,-1.83286 -0.29626,-0.85478 -0.18007,-2.70801 -0.18007,-2.70801 0.16807,-1.43965 0.15202,-2.894836 0.19655,-4.342388 l -0.0982,-3.942065 c 0,0 -0.0399,-0.853739 -0.1772,-1.252358 -0.11656,-0.338315 -0.22853,-0.747289 -0.53621,-0.92999 -0.32346,-0.192077 -0.81465,-0.234776 -1.12826,-0.027 -0.2844,0.188424 -0.30235,0.618723 -0.3764,0.951747 -0.26262,1.181192 -0.22117,3.623363 -0.22117,3.623363 -0.0562,2.041887 -0.094,2.714487 -0.42653,4.084135 -0.0309,0.158 -0.45308,0.424416 -0.60191,0.36299 -0.19575,-0.0808 -0.31331,-0.33025 -0.33289,-0.54112 -0.10764,-1.159386 -0.0273,-3.426317 -0.0273,-3.426317 0.004,-2.416741 0.004,-4.037271 -0.32326,-5.875809 -0.0761,-0.403573 -0.56177,-0.654494 -0.95221,-0.781867 -0.27666,-0.09026 -0.61995,-0.09656 -0.87161,0.04955 -0.2101,0.121979 -0.40619,0.911426 -0.40862,1.154363 -0.013,1.298238 0.0233,2.50277 0.16491,4.080135 0.15945,1.775862 0.19823,2.35277 0.39601,5.071265 -0.17142,0.27522 -0.51361,0.469776 -0.54264,0.339626 -0.29411,-1.18275 -0.41827,-2.389298 -0.54285,-3.597483 0,0 -0.38612,-3.268437 -0.59046,-4.963868 -0.0323,-0.268663 -0.35734,-0.454778 -0.6066,-0.539519 -0.24926,-0.08474 -0.57433,-0.06784 -0.76584,0.05482 -0.19151,0.122699 -0.28475,0.324095 -0.28756,0.523038 -0.0242,1.709671 0.11834,3.492441 0.11603,5.083792 0.22574,1.771613 0.43433,2.681274 0.60557,4.22649 0.0233,0.19323 -0.51082,0.48421 -0.56381,0.29692 -0.76641,-1.768736 -1.2069,-3.752541 -1.5267,-5.504008 -0.0749,-0.41303 -0.39704,-0.834688 -0.68078,-1.059411 -0.28375,-0.224723 -0.63084,-0.216109 -0.91764,0.07784 -0.28679,0.293949 -0.18236,1.555826 -0.18236,1.555826 0,0 0.0404,0.780599 0.12512,1.146702 0.0847,0.366103 0.10895,0.759925 0.21696,1.19779 0.30908,1.309565 0.60783,2.621571 0.91005,3.932751 l 0.15397,0.82857 c 0,0 0.41661,5.00571 1.14818,7.38823 0.4461,1.4528 0.9203,2.84986 1.24984,4.32876 l -0.106,3.72639 z"
       id="path4246"
       sodipodi:nodetypes="ccccssccssscccsscccssssccssccsssscccszzscccczzczcccsccc" />
  </g>
</svg>
