<?xml version="1.0" encoding="UTF-8" standalone="no"?>
<!-- Created with Inkscape (http://www.inkscape.org/) -->

<svg
   sodipodi:docname="vectorperp.svg"
   inkscape:version="1.2.2 (b0a8486541, 2022-12-01)"
   id="svg5"
   version="1.1"
   viewBox="0 0 50.2 50.200006"
   height="50.200005mm"
   width="50.200001mm"
   xmlns:inkscape="http://www.inkscape.org/namespaces/inkscape"
   xmlns:sodipodi="http://sodipodi.sourceforge.net/DTD/sodipodi-0.dtd"
   xmlns="http://www.w3.org/2000/svg"
   xmlns:svg="http://www.w3.org/2000/svg">
  <sodipodi:namedview
     id="namedview7"
     pagecolor="#ffffff"
     bordercolor="#000000"
     borderopacity="0.25"
     inkscape:showpageshadow="2"
     inkscape:pageopacity="0.0"
     inkscape:pagecheckerboard="0"
     inkscape:deskcolor="#d1d1d1"
     inkscape:document-units="mm"
     showgrid="false"
     inkscape:zoom="4.3748478"
     inkscape:cx="115.77546"
     inkscape:cy="83.088605"
     inkscape:window-width="1850"
     inkscape:window-height="1016"
     inkscape:window-x="0"
     inkscape:window-y="0"
     inkscape:window-maximized="1"
     inkscape:current-layer="layer1" />
  <defs
     id="defs2">
    <g
       id="id-45a2e069-0925-4c72-9a05-c3b8cddd304e-7">
      <g
         id="id-78698bbd-2455-46bc-8eb9-a30a1ce02550-5" />
      <g
         id="id-c813d254-2f5b-415a-8d86-9439a13e2064-3">
        <path
           d="m 4.25,-6.046875 c 0.078125,-0.28125 0.109375,-0.34375 0.234375,-0.375 0.09375,-0.015625 0.421875,-0.015625 0.625,-0.015625 1.015625,0 1.453125,0.03125 1.453125,0.8125 0,0.15625 -0.03125,0.546875 -0.078125,0.796875 0,0.046875 -0.03125,0.15625 -0.03125,0.1875 0,0.0625 0.03125,0.140625 0.125,0.140625 0.109375,0 0.125,-0.078125 0.15625,-0.234375 L 7,-6.46875 C 7.015625,-6.515625 7.015625,-6.609375 7.015625,-6.640625 7.015625,-6.75 6.921875,-6.75 6.75,-6.75 H 1.21875 c -0.234375,0 -0.25,0.015625 -0.328125,0.203125 l -0.59375,1.75 c 0,0.015625 -0.0625,0.15625 -0.0625,0.1875 0,0.046875 0.0625,0.109375 0.125,0.109375 0.09375,0 0.109375,-0.0625 0.171875,-0.21875 C 1.0625,-6.265625 1.328125,-6.4375 2.796875,-6.4375 H 3.1875 c 0.28125,0 0.28125,0.03125 0.28125,0.125 0,0.046875 -0.03125,0.171875 -0.046875,0.203125 L 2.09375,-0.78125 C 2,-0.421875 1.96875,-0.3125 0.90625,-0.3125 c -0.359375,0 -0.421875,0 -0.421875,0.1875 C 0.484375,0 0.59375,0 0.65625,0 c 0.265625,0 0.546875,-0.015625 0.8125,-0.015625 0.28125,0 0.578125,-0.015625 0.859375,-0.015625 0.28125,0 0.546875,0.015625 0.828125,0.015625 C 3.4375,-0.015625 3.734375,0 4.015625,0 c 0.09375,0 0.21875,0 0.21875,-0.203125 0,-0.109375 -0.078125,-0.109375 -0.34375,-0.109375 -0.234375,0 -0.375,0 -0.625,-0.015625 -0.296875,-0.03125 -0.375,-0.0625 -0.375,-0.21875 0,-0.015625 0,-0.0625 0.046875,-0.203125 z m 0,0"
           id="id-32536e52-6621-49ae-b17c-433e8fb693dd-5" />
      </g>
    </g>
    <g
       id="id-59531d2e-5dbf-474c-9ea5-752b104144e2-7">
      <g
         id="id-746e1365-d6fa-4415-98ad-e2879cfe6f50-0" />
      <g
         id="id-9472d221-a66e-406a-970b-e47f0b04f316-9">
        <path
           d="m 6.4375,-6.921875 c 0,-0.03125 -0.03125,-0.109375 -0.125,-0.109375 -0.046875,0 -0.046875,0.015625 -0.171875,0.15625 L 5.65625,-6.3125 c -0.25,-0.46875 -0.765625,-0.71875 -1.421875,-0.71875 -1.265625,0 -2.453125,1.15625 -2.453125,2.359375 0,0.796875 0.515625,1.265625 1.03125,1.40625 l 1.0625,0.28125 c 0.375,0.09375 0.921875,0.25 0.921875,1.0625 0,0.890625 -0.8125,1.828125 -1.796875,1.828125 -0.640625,0 -1.75,-0.21875 -1.75,-1.453125 0,-0.234375 0.0625,-0.484375 0.0625,-0.53125 0.015625,-0.046875 0.015625,-0.0625 0.015625,-0.078125 0,-0.09375 -0.0625,-0.109375 -0.109375,-0.109375 -0.046875,0 -0.078125,0.015625 -0.109375,0.046875 -0.03125,0.03125 -0.59375,2.3125 -0.59375,2.34375 0,0.046875 0.046875,0.09375 0.109375,0.09375 0.046875,0 0.0625,-0.015625 0.1875,-0.15625 L 1.296875,-0.5 c 0.421875,0.578125 1.109375,0.71875 1.6875,0.71875 1.359375,0 2.53125,-1.328125 2.53125,-2.5625 0,-0.6875 -0.34375,-1.03125 -0.484375,-1.171875 C 4.796875,-3.734375 4.640625,-3.78125 3.765625,-4 3.53125,-4.0625 3.1875,-4.171875 3.09375,-4.1875 2.828125,-4.28125 2.484375,-4.5625 2.484375,-5.09375 c 0,-0.8125 0.796875,-1.65625 1.75,-1.65625 0.8125,0 1.421875,0.4375 1.421875,1.546875 0,0.3125 -0.03125,0.5 -0.03125,0.5625 0,0 0,0.09375 0.109375,0.09375 0.109375,0 0.125,-0.03125 0.15625,-0.203125 z m 0,0"
           id="id-2a458f34-13ab-4b6d-bfa7-f16f1619e949-3" />
      </g>
      <g
         id="id-5ec49300-1959-42dd-b9b5-b791efc9eddc-6" />
      <g
         id="id-1e71104c-27f1-421d-8cf3-2e42eff9f075-0">
        <path
           d="m 2.015625,-3.296875 c 0.0625,-0.109375 0.0625,-0.171875 0.0625,-0.21875 0,-0.21875 -0.1875,-0.375 -0.40625,-0.375 -0.265625,0 -0.34375,0.21875 -0.375,0.328125 L 0.375,-0.546875 c -0.015625,0.015625 -0.046875,0.09375 -0.046875,0.109375 0,0.078125 0.21875,0.15625 0.28125,0.15625 0.046875,0 0.046875,-0.015625 0.09375,-0.125 z m 0,0"
           id="id-9eb8b1ad-4469-4909-b1e2-b06d16bd5b3e-6" />
      </g>
    </g>
    <g
       id="id-f8790d98-62d2-4f1e-a32e-8c3037c93750-2">
      <g
         id="id-0ab761af-ac18-40ee-9b9c-e85b6067ff7c-3" />
      <g
         id="id-8bf23c7e-394d-4f86-9b31-9a87a174ec8f-7">
        <path
           d="m 2.9375,-6.375 c 0,-0.25 0,-0.265625 -0.234375,-0.265625 C 2.078125,-6 1.203125,-6 0.890625,-6 v 0.3125 c 0.203125,0 0.78125,0 1.296875,-0.265625 v 5.171875 c 0,0.359375 -0.03125,0.46875 -0.921875,0.46875 h -0.3125 V 0 c 0.34375,-0.03125 1.203125,-0.03125 1.609375,-0.03125 0.390625,0 1.265625,0 1.609375,0.03125 v -0.3125 h -0.3125 c -0.90625,0 -0.921875,-0.109375 -0.921875,-0.46875 z m 0,0"
           id="id-5d9b2009-635c-4fa0-9d26-a96034ed3bf3-5" />
      </g>
      <g
         id="id-c48bb27a-1da1-43e1-8b09-5c487e2da182-9">
        <path
           d="m 1.90625,-0.53125 c 0,-0.28125 -0.234375,-0.53125 -0.515625,-0.53125 -0.296875,0 -0.53125,0.25 -0.53125,0.53125 C 0.859375,-0.234375 1.09375,0 1.390625,0 1.671875,0 1.90625,-0.234375 1.90625,-0.53125 Z m 0,0"
           id="id-d5cf0520-1dba-4699-955c-31401c991980-2" />
      </g>
      <g
         id="id-3ddd3d3f-6039-4f12-8ab2-e4e8d9066bad-2">
        <path
           d="m 6.640625,-6.75 h -6.09375 l -0.1875,2.25 h 0.25 C 0.75,-6.109375 0.890625,-6.4375 2.40625,-6.4375 c 0.171875,0 0.4375,0 0.53125,0.015625 0.21875,0.046875 0.21875,0.15625 0.21875,0.375 v 5.265625 c 0,0.328125 0,0.46875 -1.046875,0.46875 H 1.703125 V 0 C 2.109375,-0.03125 3.125,-0.03125 3.59375,-0.03125 c 0.453125,0 1.484375,0 1.890625,0.03125 v -0.3125 h -0.40625 c -1.046875,0 -1.046875,-0.140625 -1.046875,-0.46875 v -5.265625 c 0,-0.1875 0,-0.328125 0.1875,-0.375 0.109375,-0.015625 0.375,-0.015625 0.5625,-0.015625 1.515625,0 1.65625,0.328125 1.796875,1.9375 h 0.25 z m 0,0"
           id="id-bc9f283c-de72-46a2-b9d0-b3f4ce4d774b-8" />
      </g>
      <g
         id="id-1a6150fc-bf39-42e5-a397-1a41397576f6-9">
        <path
           d="M 1.671875,-3.3125 V -4.40625 L 0.28125,-4.296875 v 0.3125 c 0.703125,0 0.78125,0.0625 0.78125,0.5625 V -0.75 c 0,0.4375 -0.109375,0.4375 -0.78125,0.4375 V 0 c 0.390625,-0.015625 0.859375,-0.03125 1.140625,-0.03125 0.390625,0 0.859375,0 1.265625,0.03125 V -0.3125 H 2.46875 c -0.734375,0 -0.75,-0.109375 -0.75,-0.46875 V -2.3125 c 0,-0.984375 0.421875,-1.875 1.171875,-1.875 0.0625,0 0.09375,0 0.109375,0.015625 -0.03125,0 -0.234375,0.125 -0.234375,0.390625 0,0.265625 0.21875,0.421875 0.4375,0.421875 0.171875,0 0.421875,-0.125 0.421875,-0.4375 0,-0.3125 -0.3125,-0.609375 -0.734375,-0.609375 -0.734375,0 -1.09375,0.671875 -1.21875,1.09375 z m 0,0"
           id="id-e0389a92-64d6-42e2-a356-9423fc7f31e5-7" />
      </g>
      <g
         id="id-c26db852-f4fc-4111-b55b-e03ba3c51215-3">
        <path
           d="m 3.3125,-0.75 c 0.046875,0.390625 0.3125,0.8125 0.78125,0.8125 0.21875,0 0.828125,-0.140625 0.828125,-0.953125 v -0.5625 h -0.25 v 0.5625 c 0,0.578125 -0.25,0.640625 -0.359375,0.640625 -0.328125,0 -0.375,-0.453125 -0.375,-0.5 v -1.984375 c 0,-0.421875 0,-0.8125 -0.359375,-1.1875 C 3.1875,-4.3125 2.6875,-4.46875 2.21875,-4.46875 c -0.828125,0 -1.515625,0.46875 -1.515625,1.125 0,0.296875 0.203125,0.46875 0.46875,0.46875 0.28125,0 0.453125,-0.203125 0.453125,-0.453125 0,-0.125 -0.046875,-0.453125 -0.515625,-0.453125 C 1.390625,-4.140625 1.875,-4.25 2.1875,-4.25 c 0.5,0 1.0625,0.390625 1.0625,1.28125 v 0.359375 c -0.515625,0.03125 -1.203125,0.0625 -1.828125,0.359375 -0.75,0.34375 -1,0.859375 -1,1.296875 0,0.8125 0.96875,1.0625 1.59375,1.0625 0.65625,0 1.109375,-0.40625 1.296875,-0.859375 z M 3.25,-2.390625 v 1 c 0,0.9375 -0.71875,1.28125 -1.171875,1.28125 -0.484375,0 -0.890625,-0.34375 -0.890625,-0.84375 0,-0.546875 0.421875,-1.375 2.0625,-1.4375 z m 0,0"
           id="id-978c0193-7575-401c-8fb3-756a36e271e4-6" />
      </g>
      <g
         id="id-c12a62c5-612b-41fb-a4a9-32d59330af30-1">
        <path
           d="M 1.09375,-3.421875 V -0.75 c 0,0.4375 -0.109375,0.4375 -0.78125,0.4375 V 0 c 0.359375,-0.015625 0.859375,-0.03125 1.140625,-0.03125 0.25,0 0.765625,0.015625 1.109375,0.03125 v -0.3125 c -0.671875,0 -0.78125,0 -0.78125,-0.4375 V -2.59375 C 1.78125,-3.625 2.5,-4.1875 3.125,-4.1875 c 0.640625,0 0.75,0.53125 0.75,1.109375 V -0.75 c 0,0.4375 -0.109375,0.4375 -0.78125,0.4375 V 0 c 0.34375,-0.015625 0.859375,-0.03125 1.125,-0.03125 0.25,0 0.78125,0.015625 1.109375,0.03125 v -0.3125 c -0.515625,0 -0.765625,0 -0.765625,-0.296875 v -1.90625 c 0,-0.859375 0,-1.15625 -0.3125,-1.515625 -0.140625,-0.171875 -0.46875,-0.375 -1.046875,-0.375 C 2.46875,-4.40625 2,-3.984375 1.71875,-3.359375 V -4.40625 L 0.3125,-4.296875 v 0.3125 c 0.703125,0 0.78125,0.0625 0.78125,0.5625 z m 0,0"
           id="id-e16118b1-1801-4567-a171-ea860ec25f99-2" />
      </g>
      <g
         id="id-c4af8aa6-8e57-40d8-a4cc-42a5a0cb9150-9">
        <path
           d="m 2.078125,-1.9375 c 0.21875,0.046875 1.03125,0.203125 1.03125,0.921875 0,0.5 -0.34375,0.90625 -1.125,0.90625 -0.84375,0 -1.203125,-0.5625 -1.390625,-1.421875 C 0.5625,-1.65625 0.5625,-1.6875 0.453125,-1.6875 c -0.125,0 -0.125,0.0625 -0.125,0.234375 V -0.125 c 0,0.171875 0,0.234375 0.109375,0.234375 0.046875,0 0.0625,-0.015625 0.25,-0.203125 0.015625,-0.015625 0.015625,-0.03125 0.203125,-0.21875 0.4375,0.40625 0.890625,0.421875 1.09375,0.421875 1.140625,0 1.609375,-0.671875 1.609375,-1.390625 0,-0.515625 -0.296875,-0.828125 -0.421875,-0.9375 C 2.84375,-2.546875 2.453125,-2.625 2.03125,-2.703125 1.46875,-2.8125 0.8125,-2.9375 0.8125,-3.515625 c 0,-0.359375 0.25,-0.765625 1.109375,-0.765625 1.09375,0 1.15625,0.90625 1.171875,1.203125 0,0.09375 0.09375,0.09375 0.109375,0.09375 0.140625,0 0.140625,-0.046875 0.140625,-0.234375 v -1.015625 c 0,-0.15625 0,-0.234375 -0.109375,-0.234375 -0.046875,0 -0.078125,0 -0.203125,0.125 -0.03125,0.03125 -0.125,0.125 -0.171875,0.15625 -0.375,-0.28125 -0.78125,-0.28125 -0.9375,-0.28125 -1.21875,0 -1.59375,0.671875 -1.59375,1.234375 0,0.34375 0.15625,0.625 0.421875,0.84375 0.328125,0.25 0.609375,0.3125 1.328125,0.453125 z m 0,0"
           id="id-d3646c8f-3a7a-428f-bbf9-3c6bd68ef00b-3" />
      </g>
      <g
         id="id-701d3624-d921-4f9e-b3e2-41b137af5cf6-1">
        <path
           d="M 1.765625,-6.921875 0.328125,-6.8125 V -6.5 c 0.703125,0 0.78125,0.0625 0.78125,0.5625 V -0.75 c 0,0.4375 -0.109375,0.4375 -0.78125,0.4375 V 0 C 0.65625,-0.015625 1.1875,-0.03125 1.4375,-0.03125 c 0.25,0 0.734375,0.015625 1.109375,0.03125 v -0.3125 c -0.671875,0 -0.78125,0 -0.78125,-0.4375 z m 0,0"
           id="id-cd54a0ba-748d-4dce-9c63-b2a75b71fc32-9" />
      </g>
      <g
         id="id-9a033fb5-e25b-4bc6-ad1c-19684ec17f34-4">
        <path
           d="m 1.71875,-3.984375 h 1.4375 v -0.3125 H 1.71875 V -6.125 h -0.25 c 0,0.8125 -0.296875,1.875 -1.28125,1.921875 v 0.21875 h 0.84375 v 2.75 c 0,1.21875 0.9375,1.34375 1.296875,1.34375 0.703125,0 0.984375,-0.703125 0.984375,-1.34375 v -0.5625 h -0.25 V -1.25 c 0,0.734375 -0.296875,1.109375 -0.671875,1.109375 -0.671875,0 -0.671875,-0.90625 -0.671875,-1.078125 z m 0,0"
           id="id-f5a1f66a-07a2-4d4c-ae28-4f2e398b41f9-7" />
      </g>
      <g
         id="id-e6f2943f-5176-48c7-b429-9ff6a9e5aebf-8">
        <path
           d="M 1.109375,-2.515625 C 1.171875,-4 2.015625,-4.25 2.359375,-4.25 c 1.015625,0 1.125,1.34375 1.125,1.734375 z m 0,0.21875 h 2.78125 c 0.21875,0 0.25,0 0.25,-0.21875 0,-0.984375 -0.546875,-1.953125 -1.78125,-1.953125 -1.15625,0 -2.078125,1.03125 -2.078125,2.28125 0,1.328125 1.046875,2.296875 2.1875,2.296875 C 3.6875,0.109375 4.140625,-1 4.140625,-1.1875 4.140625,-1.28125 4.0625,-1.3125 4,-1.3125 c -0.078125,0 -0.109375,0.0625 -0.125,0.140625 -0.34375,1.03125 -1.25,1.03125 -1.34375,1.03125 -0.5,0 -0.890625,-0.296875 -1.125,-0.671875 -0.296875,-0.46875 -0.296875,-1.125 -0.296875,-1.484375 z m 0,0"
           id="id-79d1a4d5-20cb-4453-a045-933a3e4f2d37-4" />
      </g>
    </g>
    <marker
       style="overflow:visible"
       id="Arrow1"
       refX="0"
       refY="0"
       orient="auto-start-reverse"
       inkscape:stockid="Arrow1"
       markerWidth="4.0606604"
       markerHeight="6.7071066"
       viewBox="0 0 4.0606602 6.7071068"
       inkscape:isstock="true"
       inkscape:collect="always"
       preserveAspectRatio="xMidYMid">
      <path
         style="fill:none;stroke:context-stroke;stroke-width:1;stroke-linecap:butt"
         d="M 3,-3 0,0 3,3"
         id="path5057"
         transform="rotate(180,0.125,0)"
         sodipodi:nodetypes="ccc" />
    </marker>
  </defs>
  <g
     inkscape:label="Layer 1"
     inkscape:groupmode="layer"
     id="layer1"
     transform="translate(-42.2628, -73.9001)">
    <path
       style="fill:none;fill-opacity:0.154933;stroke:#808080;stroke-width:0.2;stroke-linecap:round;stroke-dasharray:none;stroke-dashoffset:0.653102;stroke-opacity:1;paint-order:normal"
       d="M 92.362763,79.100138 H 42.36276"
       id="path64183" />
    <path
       style="fill:none;fill-opacity:0.154933;stroke:#808080;stroke-width:0.2;stroke-linecap:round;stroke-dasharray:none;stroke-dashoffset:0.653102;stroke-opacity:1;paint-order:normal"
       d="M 92.362763,84.100138 H 42.36276"
       id="path64185" />
    <path
       style="fill:none;fill-opacity:0.154933;stroke:#808080;stroke-width:0.2;stroke-linecap:round;stroke-dasharray:none;stroke-dashoffset:0.653102;stroke-opacity:1;paint-order:normal"
       d="M 92.362764,89.100138 H 42.36276"
       id="path64187" />
    <path
       style="fill:none;fill-opacity:0.154933;stroke:#808080;stroke-width:0.2;stroke-linecap:round;stroke-dasharray:none;stroke-dashoffset:0.653102;stroke-opacity:1;paint-order:normal"
       d="M 92.262763,94.000138 H 42.26276"
       id="path64189" />
    <path
       style="fill:none;fill-opacity:0.154933;stroke:#808080;stroke-width:0.2;stroke-linecap:round;stroke-dasharray:none;stroke-dashoffset:0.653102;stroke-opacity:1;paint-order:normal"
       d="M 92.262763,99.000138 H 42.26276"
       id="path64191" />
    <path
       style="fill:none;fill-opacity:0.154933;stroke:#808080;stroke-width:0.2;stroke-linecap:round;stroke-dasharray:none;stroke-dashoffset:0.653102;stroke-opacity:1;paint-order:normal"
       d="M 92.262763,104.00014 H 42.26276"
       id="path64193" />
    <path
       style="fill:none;fill-opacity:0.154933;stroke:#808080;stroke-width:0.2;stroke-linecap:round;stroke-dasharray:none;stroke-dashoffset:0.653102;stroke-opacity:1;paint-order:normal"
       d="M 92.262763,109.20014 H 42.26276"
       id="path64195" />
    <path
       style="fill:none;fill-opacity:0.154933;stroke:#808080;stroke-width:0.2;stroke-linecap:round;stroke-dasharray:none;stroke-dashoffset:0.653102;stroke-opacity:1;paint-order:normal"
       d="M 92.362763,114.10014 H 42.36276"
       id="path64197" />
    <path
       style="fill:none;fill-opacity:0.154933;stroke:#808080;stroke-width:0.2;stroke-linecap:round;stroke-dasharray:none;stroke-dashoffset:0.653102;stroke-opacity:1;paint-order:normal"
       d="M 92.262763,119.00014 H 42.26276"
       id="path64199" />
    <path
       style="fill:none;fill-opacity:0.154933;stroke:#808080;stroke-width:0.2;stroke-linecap:round;stroke-dasharray:none;stroke-dashoffset:0.653102;stroke-opacity:1;paint-order:normal"
       d="M 47.362759,74.000136 V 124.00014"
       id="path64348" />
    <path
       style="fill:none;fill-opacity:0.154933;stroke:#808080;stroke-width:0.2;stroke-linecap:round;stroke-dasharray:none;stroke-dashoffset:0.653102;stroke-opacity:1;paint-order:normal"
       d="M 52.362759,74.000136 V 124.00014"
       id="path64350" />
    <path
       style="fill:none;fill-opacity:0.154933;stroke:#808080;stroke-width:0.2;stroke-linecap:round;stroke-dasharray:none;stroke-dashoffset:0.653102;stroke-opacity:1;paint-order:normal"
       d="M 57.362759,74.000136 V 124.00014"
       id="path64352" />
    <path
       style="fill:none;fill-opacity:0.154933;stroke:#808080;stroke-width:0.2;stroke-linecap:round;stroke-dasharray:none;stroke-dashoffset:0.653102;stroke-opacity:1;paint-order:normal"
       d="M 62.262759,74.100136 V 124.10014"
       id="path64354" />
    <path
       style="fill:none;fill-opacity:0.154933;stroke:#808080;stroke-width:0.2;stroke-linecap:round;stroke-dasharray:none;stroke-dashoffset:0.653102;stroke-opacity:1;paint-order:normal"
       d="M 67.262759,74.100136 V 124.10014"
       id="path64356" />
    <path
       style="fill:none;fill-opacity:0.154933;stroke:#808080;stroke-width:0.2;stroke-linecap:round;stroke-dasharray:none;stroke-dashoffset:0.653102;stroke-opacity:1;paint-order:normal"
       d="M 72.262762,74.100136 V 124.10014"
       id="path64358" />
    <path
       style="fill:none;fill-opacity:0.154933;stroke:#808080;stroke-width:0.2;stroke-linecap:round;stroke-dasharray:none;stroke-dashoffset:0.653102;stroke-opacity:1;paint-order:normal"
       d="M 77.462762,74.100136 V 124.10014"
       id="path64360" />
    <path
       style="fill:none;fill-opacity:0.154933;stroke:#808080;stroke-width:0.2;stroke-linecap:round;stroke-dasharray:none;stroke-dashoffset:0.653102;stroke-opacity:1;paint-order:normal"
       d="M 82.362762,74.000136 V 124.00014"
       id="path64362" />
    <path
       style="fill:none;fill-opacity:0.154933;stroke:#808080;stroke-width:0.2;stroke-linecap:round;stroke-dasharray:none;stroke-dashoffset:0.653102;stroke-opacity:1;paint-order:normal"
       d="M 87.262762,74.100136 V 124.10014"
       id="path64364" />
    <path
       style="fill:#e3e3f9;fill-opacity:0.74902;stroke:#000000;stroke-width:0.2;stroke-linecap:round;stroke-dasharray:none;stroke-dashoffset:0.653102;stroke-opacity:1;paint-order:normal"
       d="m 42.262759,74.100136 h 50 v 50.000004 h -50 z"
       id="path64181" />
    <path
       style="fill:#000000;fill-opacity:0.74902;stroke:#000000;stroke-width:0.5;stroke-linecap:round;stroke-dasharray:none;stroke-dashoffset:0.653102;stroke-opacity:1;marker-end:url(#Arrow1);paint-order:normal"
       d="M 57.362759,104.00014 82.362762,99.000138"
       id="path67029"
       sodipodi:nodetypes="cc" />
    <path
       style="fill:#000000;fill-opacity:0.74902;stroke:#3b7ec3;stroke-width:0.5;stroke-linecap:round;stroke-dasharray:none;stroke-dashoffset:0.653102;stroke-opacity:0.83529413;marker-end:url(#Arrow1);paint-order:normal"
       d="m 57.362759,104.00014 -5,-24.651195"
       id="path98934"
       sodipodi:nodetypes="cc" />
    <path
       style="fill:#000000;fill-opacity:0.74902;stroke:#000000;stroke-width:0.5;stroke-linecap:round;stroke-dasharray:none;stroke-dashoffset:0.653102;stroke-opacity:1;marker-end:url(#Arrow1);paint-order:normal"
       d="m 67.262762,119.00014 -9.650003,-9.8"
       id="path100812"
       sodipodi:nodetypes="cc" />
    <path
       style="fill:#000000;fill-opacity:0.74902;stroke:#3b7ec3;stroke-width:0.5;stroke-linecap:round;stroke-dasharray:none;stroke-dashoffset:0.653102;stroke-opacity:0.835294;marker-end:url(#Arrow1);paint-order:normal"
       d="m 67.262762,119.00014 20,-19.900002"
       id="path100818"
       sodipodi:nodetypes="cc" />
    <path
       style="fill:#000000;fill-opacity:0.74902;stroke:#000000;stroke-width:0.5;stroke-linecap:round;stroke-dasharray:none;stroke-dashoffset:0.653102;stroke-opacity:1;marker-end:url(#Arrow1);paint-order:normal"
       d="m 82.262762,84.000138 0.1,9.9"
       id="path100828"
       sodipodi:nodetypes="cc" />
    <path
       style="fill:#000000;fill-opacity:0.74902;stroke:#3b7ec3;stroke-width:0.5;stroke-linecap:round;stroke-dasharray:none;stroke-dashoffset:0.653102;stroke-opacity:0.835294;marker-end:url(#Arrow1);paint-order:normal"
       d="m 82.262762,84.000138 -25.000003,0.1"
       id="path100834"
       sodipodi:nodetypes="cc" />
  </g>
</svg>
